<?xml version="1.0" encoding="UTF-8" standalone="no"?>
<svg
   version="1.1"
   width="169.67969mm"
   height="74.427696mm"
   viewBox="0 0 169.67969 74.427695"
   id="svg1871"
   sodipodi:docname="debug.svg"
   inkscape:version="1.3.1 (6036e22fae, 2023-11-19, custom)"
   xmlns:inkscape="http://www.inkscape.org/namespaces/inkscape"
   xmlns:sodipodi="http://sodipodi.sourceforge.net/DTD/sodipodi-0.dtd"
   xmlns="http://www.w3.org/2000/svg"
   xmlns:svg="http://www.w3.org/2000/svg"
   xmlns:rdf="http://www.w3.org/1999/02/22-rdf-syntax-ns#"
   xmlns:cc="http://creativecommons.org/ns#"
   xmlns:dc="http://purl.org/dc/elements/1.1/">
  <defs
     id="defs1871">
    <inkscape:path-effect
       effect="fillet_chamfer"
       id="path-effect8"
       is_visible="true"
       lpeversion="1"
       nodesatellites_param="F,0,0,1,0,1,0,1 @ F,0,0,1,0,1,0,1 @ F,0,0,1,0,1,0,1 @ F,0,0,1,0,1,0,1"
       radius="1"
       unit="mm"
       method="auto"
       mode="F"
       chamfer_steps="1"
       flexible="false"
       use_knot_distance="true"
       apply_no_radius="true"
       apply_with_radius="true"
       only_selected="false"
       hide_knots="false" />
    <inkscape:path-effect
       effect="fillet_chamfer"
       id="path-effect7"
       is_visible="true"
       lpeversion="1"
       nodesatellites_param="F,0,0,1,0,0,0,1 @ F,0,0,1,0,0,0,1 @ F,0,0,1,0,0,0,1 @ F,0,0,1,0,0,0,1"
       radius="0"
       unit="px"
       method="auto"
       mode="F"
       chamfer_steps="1"
       flexible="false"
       use_knot_distance="true"
       apply_no_radius="true"
       apply_with_radius="true"
       only_selected="false"
       hide_knots="false" />
    <inkscape:path-effect
       effect="fillet_chamfer"
       id="path-effect6"
       is_visible="true"
       lpeversion="1"
       nodesatellites_param="F,0,0,1,0,0,0,1 @ F,0,0,1,0,0,0,1 @ F,0,0,1,0,0,0,1 @ F,0,0,1,0,0,0,1 | F,0,0,1,0,1.6,0,1 @ F,0,0,1,0,1.6,0,1 @ F,0,1,1,0,1,0,1 @ F,0,0,1,0,0,0,1 @ F,0,0,1,0,0,0,1 @ F,0,0,1,0,0,0,1 @ F,0,1,1,0,1,0,1 @ F,0,1,1,0,1,0,1 @ F,0,0,1,0,0,0,1 @ F,0,0,1,0,0,0,1 @ F,0,0,1,0,0,0,1 @ F,0,1,1,0,1,0,1 @ F,0,1,1,0,1,0,1 @ F,0,0,1,0,0,0,1 @ F,0,0,1,0,0,0,1 @ F,0,0,1,0,0,0,1 @ F,0,1,1,0,1,0,1 @ F,0,1,1,0,1,0,1 @ F,0,0,1,0,0,0,1 @ F,0,0,1,0,0,0,1 @ F,0,0,1,0,0,0,1 @ F,0,1,1,0,1,0,1 @ F,0,0,1,0,1.6,0,1 @ F,0,0,1,0,1.6,0,1 @ F,0,1,1,0,1,0,1 @ F,0,0,1,0,0,0,1 @ F,0,0,1,0,0,0,1 @ F,0,0,1,0,0,0,1 @ F,0,1,1,0,1,0,1 @ F,0,1,1,0,1,0,1 @ F,0,0,1,0,0,0,1 @ F,0,0,1,0,0,0,1 @ F,0,0,1,0,0,0,1 @ F,0,1,1,0,1,0,1 @ F,0,1,1,0,1,0,1 @ F,0,0,1,0,0,0,1 @ F,0,0,1,0,0,0,1 @ F,0,0,1,0,0,0,1 @ F,0,1,1,0,1,0,1 @ F,0,1,1,0,1,0,1 @ F,0,0,1,0,0,0,1 @ F,0,0,1,0,0,0,1 @ F,0,0,1,0,0,0,1 @ F,0,1,1,0,1,0,1 | F,0,0,1,0,0,0,1 @ F,0,0,1,0,0,0,1 @ F,0,0,1,0,0,0,1 @ F,0,0,1,0,0,0,1 | F,0,0,1,0,0,0,1 @ F,0,0,1,0,0,0,1 @ F,0,0,1,0,0,0,1 @ F,0,0,1,0,0,0,1 | F,0,0,1,0,0,0,1 @ F,0,0,1,0,0,0,1 @ F,0,0,1,0,0,0,1 @ F,0,0,1,0,0,0,1 | F,0,0,1,0,0,0,1 @ F,0,0,1,0,0,0,1 @ F,0,0,1,0,0,0,1 @ F,0,0,1,0,0,0,1 | F,0,0,1,0,0,0,1 @ F,0,0,1,0,0,0,1 @ F,0,0,1,0,0,0,1 @ F,0,0,1,0,0,0,1 | F,0,0,1,0,0,0,1 @ F,0,0,1,0,0,0,1 @ F,0,0,1,0,0,0,1 @ F,0,0,1,0,0,0,1 | F,0,0,1,0,0,0,1 @ F,0,0,1,0,0,0,1 @ F,0,0,1,0,0,0,1 @ F,0,0,1,0,0,0,1 | F,0,0,1,0,5,0,1 @ F,0,0,1,0,5,0,1 @ F,0,0,1,0,5,0,1 @ F,0,0,1,0,5,0,1"
       radius="1"
       unit="mm"
       method="auto"
       mode="F"
       chamfer_steps="1"
       flexible="false"
       use_knot_distance="true"
       apply_no_radius="true"
       apply_with_radius="true"
       only_selected="true"
       hide_knots="false" />
    <inkscape:path-effect
       effect="fillet_chamfer"
       id="path-effect5"
       is_visible="true"
       lpeversion="1"
       nodesatellites_param="F,0,1,1,0,1.6,0,1 @ F,0,1,1,0,1.6,0,1 @ F,0,1,1,0,1.6,0,1 @ F,0,1,1,0,1.6,0,1 | F,0,0,1,0,5,0,1 @ F,0,0,1,0,5,0,1 @ F,0,0,1,0,5,0,1 @ F,0,0,1,0,5,0,1"
       radius="1.6"
       unit="mm"
       method="auto"
       mode="F"
       chamfer_steps="1"
       flexible="false"
       use_knot_distance="true"
       apply_no_radius="true"
       apply_with_radius="true"
       only_selected="true"
       hide_knots="false" />
    <inkscape:path-effect
       effect="fillet_chamfer"
       id="path-effect4"
       is_visible="true"
       lpeversion="1"
       nodesatellites_param="F,0,1,1,0,1.6,0,1 @ F,0,1,1,0,1.6,0,1 @ F,0,1,1,0,1.6,0,1 @ F,0,1,1,0,1.6,0,1 | F,0,0,1,0,5,0,1 @ F,0,0,1,0,5,0,1 @ F,0,0,1,0,5,0,1 @ F,0,0,1,0,5,0,1"
       radius="1.6"
       unit="mm"
       method="auto"
       mode="F"
       chamfer_steps="1"
       flexible="false"
       use_knot_distance="true"
       apply_no_radius="true"
       apply_with_radius="true"
       only_selected="true"
       hide_knots="false" />
    <inkscape:path-effect
       effect="fillet_chamfer"
       id="path-effect3"
       is_visible="true"
       lpeversion="1"
       nodesatellites_param="F,0,0,1,0,5,0,1 @ F,0,0,1,0,5,0,1 @ F,0,0,1,0,5,0,1 @ F,0,0,1,0,5,0,1"
       radius="5"
       unit="mm"
       method="auto"
       mode="F"
       chamfer_steps="1"
       flexible="false"
       use_knot_distance="true"
       apply_no_radius="true"
       apply_with_radius="true"
       only_selected="false"
       hide_knots="false" />
    <inkscape:path-effect
       effect="fillet_chamfer"
       id="path-effect2"
       is_visible="true"
       lpeversion="1"
       nodesatellites_param="F,0,1,1,0,1.5,0,1 @ F,0,1,1,0,1.5,0,1 @ F,0,1,1,0,1.5,0,1 @ F,0,1,1,0,1.5,0,1 @ F,0,0,1,0,0,0,1 @ F,0,0,1,0,0,0,1 @ F,0,0,1,0,0,0,1 @ F,0,1,1,0,1.5,0,1 @ F,0,1,1,0,1.5,0,1 @ F,0,0,1,0,0,0,1 @ F,0,0,1,0,0,0,1 @ F,0,0,1,0,0,0,1 @ F,0,1,1,0,1.5,0,1 @ F,0,1,1,0,1.5,0,1 @ F,0,0,1,0,0,0,1 @ F,0,0,1,0,0,0,1 @ F,0,0,1,0,0,0,1 @ F,0,1,1,0,1.5,0,1 @ F,0,1,1,0,1.5,0,1 @ F,0,0,1,0,0,0,1 @ F,0,0,1,0,0,0,1 @ F,0,0,1,0,0,0,1 @ F,0,1,1,0,1.5,0,1 @ F,0,1,1,0,1.5,0,1 @ F,0,1,1,0,1.5,0,1 @ F,0,1,1,0,1.5,0,1 @ F,0,0,1,0,0,0,1 @ F,0,0,1,0,0,0,1 @ F,0,0,1,0,0,0,1 @ F,0,1,1,0,1.5,0,1 @ F,0,1,1,0,1.5,0,1 @ F,0,0,1,0,0,0,1 @ F,0,0,1,0,0,0,1 @ F,0,0,1,0,0,0,1 @ F,0,1,1,0,1.5,0,1 @ F,0,1,1,0,1.5,0,1 @ F,0,0,1,0,0,0,1 @ F,0,0,1,0,0,0,1 @ F,0,0,1,0,0,0,1 @ F,0,1,1,0,1.5,0,1 @ F,0,1,1,0,1.5,0,1 @ F,0,0,1,0,0,0,1 @ F,0,0,1,0,0,0,1 @ F,0,0,1,0,0,0,1 | F,0,0,1,0,0,0,1 @ F,0,0,1,0,0,0,1 @ F,0,0,1,0,0,0,1 @ F,0,0,1,0,0,0,1 | F,0,0,1,0,0,0,1 @ F,0,0,1,0,0,0,1 @ F,0,0,1,0,0,0,1 @ F,0,0,1,0,0,0,1 | F,0,0,1,0,0,0,1 @ F,0,0,1,0,0,0,1 @ F,0,0,1,0,0,0,1 @ F,0,0,1,0,0,0,1 | F,0,0,1,0,0,0,1 @ F,0,0,1,0,0,0,1 @ F,0,0,1,0,0,0,1 @ F,0,0,1,0,0,0,1 | F,0,0,1,0,0,0,1 @ F,0,0,1,0,0,0,1 @ F,0,0,1,0,0,0,1 @ F,0,0,1,0,0,0,1 | F,0,0,1,0,0,0,1 @ F,0,0,1,0,0,0,1 @ F,0,0,1,0,0,0,1 @ F,0,0,1,0,0,0,1 | F,0,0,1,0,0,0,1 @ F,0,0,1,0,0,0,1 @ F,0,0,1,0,0,0,1 @ F,0,0,1,0,0,0,1 | F,0,0,1,0,0,0,1 @ F,0,0,1,0,0,0,1 @ F,0,0,1,0,0,0,1 @ F,0,0,1,0,0,0,1 | F,0,0,1,0,0,0,1 @ F,0,0,1,0,0,0,1 @ F,0,0,1,0,0,0,1 @ F,0,0,1,0,0,0,1 | F,0,0,1,0,0,0,1 @ F,0,0,1,0,0,0,1 @ F,0,0,1,0,0,0,1 @ F,0,0,1,0,0,0,1 | F,0,0,1,0,0,0,1 @ F,0,0,1,0,0,0,1 @ F,0,0,1,0,0,0,1 @ F,0,0,1,0,0,0,1 | F,0,0,1,0,0,0,1 @ F,0,0,1,0,0,0,1 @ F,0,0,1,0,0,0,1 @ F,0,0,1,0,0,0,1 | F,0,0,1,0,0,0,1 @ F,0,0,1,0,0,0,1 @ F,0,0,1,0,0,0,1 @ F,0,0,1,0,0,0,1 | F,0,0,1,0,0,0,1 @ F,0,0,1,0,0,0,1 @ F,0,0,1,0,0,0,1 @ F,0,0,1,0,0,0,1 | F,0,0,1,0,0,0,1 @ F,0,0,1,0,0,0,1 @ F,0,0,1,0,0,0,1 @ F,0,0,1,0,0,0,1 | F,0,0,1,0,0,0,1 @ F,0,0,1,0,0,0,1 @ F,0,0,1,0,0,0,1 @ F,0,0,1,0,0,0,1 | F,0,0,1,0,0,0,1 @ F,0,0,1,0,0,0,1 @ F,0,0,1,0,0,0,1 @ F,0,0,1,0,0,0,1 | F,0,0,1,0,0,0,1 @ F,0,0,1,0,0,0,1 @ F,0,0,1,0,0,0,1 @ F,0,0,1,0,0,0,1 | F,0,0,1,0,0,0,1 @ F,0,0,1,0,0,0,1 @ F,0,0,1,0,0,0,1 @ F,0,0,1,0,0,0,1 | F,0,0,1,0,0,0,1 @ F,0,0,1,0,0,0,1 @ F,0,0,1,0,0,0,1 @ F,0,0,1,0,0,0,1 | F,0,0,1,0,0,0,1 @ F,0,0,1,0,0,0,1 @ F,0,0,1,0,0,0,1 @ F,0,0,1,0,0,0,1 | F,0,0,1,0,0,0,1 @ F,0,0,1,0,0,0,1 @ F,0,0,1,0,0,0,1 @ F,0,0,1,0,0,0,1 | F,0,0,1,0,0,0,1 @ F,0,0,1,0,0,0,1 @ F,0,0,1,0,0,0,1 @ F,0,0,1,0,0,0,1 | F,0,0,1,0,0,0,1 @ F,0,0,1,0,0,0,1 @ F,0,0,1,0,0,0,1 @ F,0,0,1,0,0,0,1 | F,0,0,1,0,0,0,1 @ F,0,0,1,0,0,0,1 @ F,0,0,1,0,0,0,1 @ F,0,0,1,0,0,0,1 | F,0,0,1,0,0,0,1 @ F,0,0,1,0,0,0,1 @ F,0,0,1,0,0,0,1 @ F,0,0,1,0,0,0,1 | F,0,0,1,0,0,0,1 @ F,0,0,1,0,0,0,1 @ F,0,0,1,0,0,0,1 @ F,0,0,1,0,0,0,1 | F,0,0,1,0,0,0,1 @ F,0,0,1,0,0,0,1 @ F,0,0,1,0,0,0,1 @ F,0,0,1,0,0,0,1 | F,0,0,1,0,0,0,1 @ F,0,0,1,0,0,0,1 @ F,0,0,1,0,0,0,1 @ F,0,0,1,0,0,0,1 | F,0,0,1,0,0,0,1 @ F,0,0,1,0,0,0,1 @ F,0,0,1,0,0,0,1 @ F,0,0,1,0,0,0,1 | F,0,0,1,0,0,0,1 @ F,0,0,1,0,0,0,1 @ F,0,0,1,0,0,0,1 @ F,0,0,1,0,0,0,1 | F,0,0,1,0,0,0,1 @ F,0,0,1,0,0,0,1 @ F,0,0,1,0,0,0,1 @ F,0,0,1,0,0,0,1 | F,0,0,1,0,0,0,1 @ F,0,0,1,0,0,0,1 @ F,0,0,1,0,0,0,1 @ F,0,0,1,0,0,0,1"
       radius="1.5"
       unit="mm"
       method="auto"
       mode="F"
       chamfer_steps="1"
       flexible="false"
       use_knot_distance="true"
       apply_no_radius="true"
       apply_with_radius="true"
       only_selected="true"
       hide_knots="false" />
    <inkscape:path-effect
       effect="fillet_chamfer"
       id="path-effect1"
       is_visible="true"
       lpeversion="1"
       nodesatellites_param="F,0,0,1,0,1.5,0,1 @ F,0,0,1,0,1.5,0,1 @ F,0,0,1,0,1.5,0,1 @ F,0,0,1,0,1.5,0,1 @ F,0,0,1,0,1.5,0,1 @ F,0,0,1,0,1.5,0,1 @ F,0,0,1,0,1.5,0,1 @ F,0,0,1,0,1.5,0,1"
       radius="1.5"
       unit="mm"
       method="auto"
       mode="F"
       chamfer_steps="1"
       flexible="false"
       use_knot_distance="true"
       apply_no_radius="true"
       apply_with_radius="true"
       only_selected="false"
       hide_knots="false" />
    <inkscape:path-effect
       effect="fillet_chamfer"
       id="path-effect2-7"
       is_visible="true"
       lpeversion="1"
       nodesatellites_param="F,0,1,1,0,1.5,0,1 @ F,0,1,1,0,1.5,0,1 @ F,0,1,1,0,1.5,0,1 @ F,0,1,1,0,1.5,0,1"
       radius="1.5"
       unit="mm"
       method="auto"
       mode="F"
       chamfer_steps="1"
       flexible="false"
       use_knot_distance="true"
       apply_no_radius="true"
       apply_with_radius="true"
       only_selected="true"
       hide_knots="false" />
    <inkscape:path-effect
       effect="fillet_chamfer"
       id="path-effect6-7"
       is_visible="true"
       lpeversion="1"
       nodesatellites_param="F,0,0,1,0,0,0,1 @ F,0,0,1,0,0,0,1 @ F,0,0,1,0,0,0,1 @ F,0,0,1,0,0,0,1 | F,0,0,1,0,1.6,0,1 @ F,0,0,1,0,1.6,0,1 @ F,0,1,1,0,1,0,1 @ F,0,0,1,0,0,0,1 @ F,0,0,1,0,0,0,1 @ F,0,0,1,0,0,0,1 @ F,0,1,1,0,1,0,1 @ F,0,1,1,0,1,0,1 @ F,0,0,1,0,0,0,1 @ F,0,0,1,0,0,0,1 @ F,0,0,1,0,0,0,1 @ F,0,1,1,0,1,0,1 @ F,0,1,1,0,1,0,1 @ F,0,0,1,0,0,0,1 @ F,0,0,1,0,0,0,1 @ F,0,0,1,0,0,0,1 @ F,0,1,1,0,1,0,1 @ F,0,1,1,0,1,0,1 @ F,0,0,1,0,0,0,1 @ F,0,0,1,0,0,0,1 @ F,0,0,1,0,0,0,1 @ F,0,1,1,0,1,0,1 @ F,0,0,1,0,1.6,0,1 @ F,0,0,1,0,1.6,0,1 @ F,0,1,1,0,1,0,1 @ F,0,0,1,0,0,0,1 @ F,0,0,1,0,0,0,1 @ F,0,0,1,0,0,0,1 @ F,0,1,1,0,1,0,1 @ F,0,1,1,0,1,0,1 @ F,0,0,1,0,0,0,1 @ F,0,0,1,0,0,0,1 @ F,0,0,1,0,0,0,1 @ F,0,1,1,0,1,0,1 @ F,0,1,1,0,1,0,1 @ F,0,0,1,0,0,0,1 @ F,0,0,1,0,0,0,1 @ F,0,0,1,0,0,0,1 @ F,0,1,1,0,1,0,1 @ F,0,1,1,0,1,0,1 @ F,0,0,1,0,0,0,1 @ F,0,0,1,0,0,0,1 @ F,0,0,1,0,0,0,1 @ F,0,1,1,0,1,0,1 | F,0,0,1,0,0,0,1 @ F,0,0,1,0,0,0,1 @ F,0,0,1,0,0,0,1 @ F,0,0,1,0,0,0,1 | F,0,0,1,0,0,0,1 @ F,0,0,1,0,0,0,1 @ F,0,0,1,0,0,0,1 @ F,0,0,1,0,0,0,1 | F,0,0,1,0,0,0,1 @ F,0,0,1,0,0,0,1 @ F,0,0,1,0,0,0,1 @ F,0,0,1,0,0,0,1 | F,0,0,1,0,0,0,1 @ F,0,0,1,0,0,0,1 @ F,0,0,1,0,0,0,1 @ F,0,0,1,0,0,0,1 | F,0,0,1,0,0,0,1 @ F,0,0,1,0,0,0,1 @ F,0,0,1,0,0,0,1 @ F,0,0,1,0,0,0,1 | F,0,0,1,0,0,0,1 @ F,0,0,1,0,0,0,1 @ F,0,0,1,0,0,0,1 @ F,0,0,1,0,0,0,1 | F,0,0,1,0,0,0,1 @ F,0,0,1,0,0,0,1 @ F,0,0,1,0,0,0,1 @ F,0,0,1,0,0,0,1 | F,0,0,1,0,5,0,1 @ F,0,0,1,0,5,0,1 @ F,0,0,1,0,5,0,1 @ F,0,0,1,0,5,0,1"
       radius="1"
       unit="mm"
       method="auto"
       mode="F"
       chamfer_steps="1"
       flexible="false"
       use_knot_distance="true"
       apply_no_radius="true"
       apply_with_radius="true"
       only_selected="true"
       hide_knots="false" />
  </defs>
  <sodipodi:namedview
     id="namedview1871"
     pagecolor="#ffffff"
     bordercolor="#000000"
     borderopacity="0.25"
     inkscape:showpageshadow="2"
     inkscape:pageopacity="0.0"
     inkscape:pagecheckerboard="0"
     inkscape:deskcolor="#d1d1d1"
     inkscape:document-units="mm"
     showgrid="false"
     inkscape:zoom="2.8436503"
     inkscape:cx="38.155184"
     inkscape:cy="118.15799"
     inkscape:window-width="1850"
     inkscape:window-height="1016"
     inkscape:window-x="70"
     inkscape:window-y="27"
     inkscape:window-maximized="1"
     inkscape:current-layer="svg1871" />
  <title
     id="title1">SVG Image created as typing-check-board-User_Drawings.svg date 2023/11/21 23:44:53 </title>
  <desc
     id="desc1">Image generated by PCBNEW </desc>
  <path
     id="path8-3-5-5"
     style="display:inline;fill:none;stroke:#000000;stroke-width:0.1"
     d="m 148.58885,69.78765 c 0,-0.856041 -0.69395,-1.55 -1.55,-1.55 -0.85604,10e-7 -1.54999,0.693959 -1.54999,1.55 0,0.856041 0.69395,1.549999 1.54999,1.55 0.85605,0 1.55,-0.693959 1.55,-1.55 z m 13.44981,-4.6 V 9.24005 a 1.6,1.6 45 0 0 -1.6,-1.6 l -9.3998,0 a 1,1 45 0 1 -1,-1 v -2 c 0,-1.65686 -1.34315,-3 -3,-3 -1.65686,0 -3.00001,1.34314 -3.00001,3 v 2 a 1,1 135 0 1 -1,1 h -32 a 1,1 45 0 1 -1,-1 v -2 c 0,-1.65686 -1.34314,-3 -3,-3 -1.65685,0 -3,1.34314 -3,3 v 2 a 1,1 135 0 1 -1,1 H 66.640852 a 1,1 45 0 1 -1,-1 v -2 c 0,-1.65686 -1.343146,-3 -3,-3 -1.656854,0 -3.000001,1.34314 -3.000001,3 v 2 a 1,1 135 0 1 -1,1 H 26.640852 a 1,1 45 0 1 -1,-1 l 0,-2 c 0,-1.65686 -1.343146,-3 -3,-3 -1.656854,0 -3.000001,1.34314 -3.000001,3 v 2 a 1,1 135 0 1 -1,1 l -9.399798,0 a 1.6,1.6 135 0 0 -1.6,1.6 v 55.9476 a 1.6000001,1.6000001 45.000002 0 0 1.6,1.6 l 9.399798,10e-7 a 1.0000001,1.0000001 45.000002 0 1 1,1 v 1.999999 c 0,1.656854 1.343147,3 3.000001,3 1.656854,0 3,-1.343146 3,-3 v -1.999999 a 1,1 135 0 1 1,-1 H 58.64085 a 1,1 45 0 1 1,1 v 1.999999 c 0,1.656854 1.343147,3 3.000001,3 1.656854,0 3,-1.343146 3,-3 v -1.999999 a 1,1 135 0 1 1,-1 h 36.397999 a 1,1 45 0 1 1,1 v 1.999999 c 0,1.656854 1.34315,3 3,3 1.65686,0 3,-1.343146 3,-3 v -1.999999 a 1,1 135 0 1 1,-1 h 32 a 1,1 45 0 1 1,1 v 1.999999 c 0,1.656854 1.34315,3 3,3 1.65686,0 3,-1.343146 3,-3 v -1.999999 a 1.0000001,1.0000001 135 0 1 1,-1 l 9.39981,-10e-7 a 1.6000001,1.6000001 135 0 0 1.6,-1.6 z m -53.44981,4.6 c 0,-0.856041 -0.69396,-1.55 -1.55,-1.55 -0.85604,10e-7 -1.55,0.693959 -1.55,1.55 0,0.856041 0.69396,1.549999 1.55,1.55 0.85604,0 1.55,-0.693959 1.55,-1.55 z m -44.397999,0 c 0,-0.856041 -0.693959,-1.55 -1.55,-1.55 -0.856041,10e-7 -1.549999,0.693959 -1.549999,1.55 0,0.856041 0.693958,1.549999 1.549999,1.55 0.856041,0 1.55,-0.693959 1.55,-1.55 z m -39.999999,0 c 0,-0.856041 -0.693959,-1.55 -1.55,-1.55 -0.856041,10e-7 -1.549999,0.693959 -1.549999,1.55 0,0.856041 0.693958,1.549999 1.549999,1.55 0.856041,0 1.55,-0.693959 1.55,-1.55 z M 148.58886,4.64005 c 0,0.85604 -0.69396,1.55 -1.55,1.55 -0.85605,0 -1.55,-0.69396 -1.55,-1.55 0,-0.85604 0.69395,-1.55 1.55,-1.55 0.85604,0 1.55,0.69396 1.55,1.55 z m -40.00001,0 c 0,0.85604 -0.69396,1.55 -1.55,1.55 -0.85604,0 -1.55,-0.69396 -1.55,-1.55 0,-0.85604 0.69396,-1.55 1.55,-1.55 0.85604,0 1.55,0.69396 1.55,1.55 z m -44.397998,0 c 0,0.85604 -0.693958,1.55 -1.55,1.55 -0.856041,0 -1.549999,-0.69396 -1.549999,-1.55 0,-0.85604 0.693958,-1.55 1.549999,-1.55 0.856042,0 1.55,0.69396 1.55,1.55 z m -40,0 c 0,0.85604 -0.693959,1.55 -1.55,1.55 -0.856041,0 -1.549999,-0.69396 -1.549999,-1.55 0,-0.85604 0.693958,-1.55 1.549999,-1.55 0.856041,0 1.55,0.69396 1.55,1.55 z M 5.05,0.05 h 159.57969 a 5,5 45 0 1 5,5 v 64.3277 a 5,5 135 0 1 -5,5 H 5.05 a 5,5 45 0 1 -5,-5 V 5.05 a 5,5 135 0 1 5,-5 z"
     sodipodi:nodetypes="ssssscccsssccsssccsssccsssccccsssccsssccsssccsssccsssssssssssssssssssssssssssssssssssccccc"
     inkscape:label="top-middle" />
  <path
     id="path8-3-5-5-4"
     style="display:inline;fill:none;stroke:#000000;stroke-width:0.1"
     d="M 162.03866,65.18765 V 9.24005 a 1.6,1.6 45 0 0 -1.6,-1.6 H 9.241053 a 1.6,1.6 135 0 0 -1.6,1.6 v 55.9476 a 1.6,1.6 45 0 0 1.6,1.6 H 160.43866 a 1.6,1.6 135 0 0 1.6,-1.6 z M 5.05,0.05 h 159.57969 a 5,5 45 0 1 5,5 v 64.3277 a 5,5 135 0 1 -5,5 H 5.05 a 5,5 45 0 1 -5,-5 V 5.05 a 5,5 135 0 1 5,-5 z"
     sodipodi:nodetypes="cccccccccc"
     inkscape:label="bottom-middle" />
  <path
     id="path8-3-5-5-4-3"
     style="display:inline;fill:none;stroke:#000000;stroke-width:0.1"
     d="M 162.03866,65.18765 V 9.24005 a 1.6,1.6 45 0 0 -1.6,-1.6 H 9.241053 a 1.6,1.6 135 0 0 -1.6,1.6 v 55.9476 a 1.6,1.6 45 0 0 1.6,1.6 H 160.43866 a 1.6,1.6 135 0 0 1.6,-1.6 z M 5.05,0.05 h 159.57969 a 5,5 45 0 1 5,5 v 64.3277 a 5,5 135 0 1 -5,5 H 5.05 a 5,5 45 0 1 -5,-5 V 5.05 a 5,5 135 0 1 5,-5 z"
     sodipodi:nodetypes="cccccccccc"
     inkscape:label="top" />
  <path
     id="path10-2-4-4"
     style="display:inline;fill:none;stroke:#000000;stroke-width:0.1"
     transform="matrix(1,0,0,-1,67.220312,136.38127)"
     d="m 84.018541,70.59213 8.301006,5.86e-4 a 1.5001059,1.5001059 45.002023 0 1 1.5,1.500106 V 126.2428 a 1.5000027,1.5000027 134.99995 0 1 -1.5,1.5 l -8.30101,2e-5 a 1.5000008,1.5000008 134.99991 0 0 -1.499998,1.5 l 3e-6,2.4984 c 5e-6,1.49117 -1.208835,2.7 -2.699995,2.7 -1.49117,0 -2.7,-1.20883 -2.700005,-2.7 l -3e-6,-2.4984 a 1.5000019,1.5000019 44.999964 0 0 -1.500002,-1.5 h -31.6 a 1.5,1.5 135 0 0 -1.5,1.5 v 2.4984 c 0,1.49117 -1.20883,2.7 -2.7,2.7 -1.49117,0 -2.7,-1.20883 -2.7,-2.7 v -2.4984 a 1.5,1.5 45 0 0 -1.5,-1.5 h -35.998 a 1.5,1.5 135 0 0 -1.5,1.5 v 2.4984 c 0,1.49117 -1.20883,2.7 -2.7,2.7 -1.49117,0 -2.7,-1.20883 -2.7,-2.7 v -2.4984 a 1.5,1.5 45 0 0 -1.5,-1.5 l -31.599999,0 a 1.4999996,1.4999996 134.99999 0 0 -1.5,1.5 l 10e-7,2.4984 c 10e-7,1.49117 -1.208831,2.7 -2.7,2.7 -1.491169,0 -2.7,-1.20883 -2.7,-2.7 l -1e-6,-2.4984 a 1.5000004,1.5000004 44.999993 0 0 -1.5,-1.5 h -8.300996 a 1.5,1.5 45.000001 0 1 -1.5,-1.5 l 10e-7,-54.149998 a 1.5001059,1.5001059 134.99798 0 1 1.5,-1.500106 l 8.300995,-5.86e-4 a 1.5001063,1.5001063 134.99798 0 0 1.5,-1.500106 l 1e-6,-2.498404 c 0,-1.491169 1.208831,-2.7 2.7,-2.7 1.491169,-10e-7 2.700001,1.208831 2.700001,2.7 l -10e-7,2.498404 a 1.4999996,1.4999996 45.000007 0 0 1.5,1.5 h 31.599999 a 1.5000002,1.5000002 135 0 0 1.5000002,-1.5 l 3e-7,-2.498404 c 5e-7,-1.491169 1.2088315,-2.7 2.7000005,-2.7 1.491169,-10e-7 2.700001,1.208831 2.7,2.7 l -6e-7,2.498404 a 1.4999996,1.4999996 45.000007 0 0 1.4999996,1.5 h 35.998 a 1.5000004,1.5000004 135.00001 0 0 1.5,-1.5 l 10e-7,-2.498404 c 0,-1.491169 1.208831,-2.7 2.7,-2.7 1.491169,-10e-7 2.700001,1.208831 2.7,2.7 l -10e-7,2.498404 a 1.4999996,1.4999996 45.000007 0 0 1.5,1.5 h 31.600003 a 1.5,1.5 135 0 0 1.5,-1.5 V 66.59362 c 1e-6,-1.491169 1.208832,-2.7 2.700001,-2.7 1.491169,-10e-7 2.700001,1.208831 2.7,2.7 l -10e-7,2.498404 a 1.5001055,1.5001055 45.00203 0 0 1.5,1.500106 z m -3.099998,-3.99851 c 0,0.607514 -0.492487,1.100001 -1.100001,1.1 -0.607513,0 -1.1,-0.492487 -1.1,-1.1 0,-0.607513 0.492487,-1.1 1.1,-1.1 0.607514,-1e-6 1.100001,0.492486 1.100001,1.1 z m -40.000003,0 c 0,0.607514 -0.492487,1.100001 -1.100001,1.1 -0.607513,0 -1.1,-0.492487 -1.1,-1.1 0,-0.607513 0.492487,-1.1 1.1,-1.1 0.607514,-1e-6 1.100001,0.492486 1.100001,1.1 z m -44.398,0 c 0,0.607514 -0.4924874,1.100001 -1.100001,1.1 -0.6075132,0 -1.1,-0.492487 -1.1,-1.1 0,-0.607513 0.4924868,-1.1 1.1,-1.1 0.6075136,-1e-6 1.100001,0.492486 1.100001,1.1 z m -39.999999,0 c 0,0.607514 -0.492488,1.100001 -1.100002,1.1 -0.607513,-10e-7 -1.099999,-0.492487 -1.099999,-1.1 0,-0.607513 0.492486,-1.099999 1.099999,-1.1 0.607514,-1e-6 1.100002,0.492486 1.100002,1.1 z m 124.398006,65.1476 c 0,-0.60751 -0.492487,-1.1 -1.1,-1.1 -0.607513,0 -1.1,0.49249 -1.1,1.1 0,0.60751 0.492487,1.1 1.1,1.1 0.607513,0 1.1,-0.49249 1.1,-1.1 z m -40.00001,0 c 0,-0.60751 -0.492487,-1.1 -1.1,-1.1 -0.607513,0 -1.1,0.49249 -1.1,1.1 0,0.60751 0.492487,1.1 1.1,1.1 0.607513,0 1.1,-0.49249 1.1,-1.1 z m -44.398,0 c 0,-0.60751 -0.4924868,-1.1 -1.1,-1.1 -0.6075132,0 -1.1,0.49249 -1.1,1.1 0,0.60751 0.4924868,1.1 1.1,1.1 0.6075132,0 1.1,-0.49249 1.1,-1.1 z m -39.999997,0 c 0,-0.60751 -0.492487,-1.1 -1.100001,-1.1 -0.607513,0 -1.1,0.49249 -1.1,1.1 0,0.60751 0.492487,1.1 1.1,1.1 0.607514,0 1.100001,-0.49249 1.100001,-1.1 z m 49.352,-58.6338 v 14 h 14 v -14 z m 85.437,38.1 h -14 v 14 h 14 z m -147.35,-5.05 h 14 v -14 h -14 z m 90.2,19.05 v -14 h -14 v 14 z m 57.15,-19.05 v -14 h -14 v 14 z m -52.1,19.05 h 14 v -14 h -14 z m -76.2,0 h 14 v -14 h -14 z m 76.2,-19.05 h 14 v -14 h -14 z m -95.25,5.05 v 14 h 14 v -14 z m 76.2,-5.05 h 14 v -14 h -14 z m -19.05,5.05 v 14 h 14 v -14 z m 0,-19.05 v 14 h 14 v -14 z m 57.15,33.05 h 14 v -14 h -14 z m -114.3,-38.1 h 14 v -14 h -14 z m 120.069,-13 h -7 v 15 h 7 z m -90.551,0 h -7 v 15 h 7 z m 3.532,18.05 h -14 v 14 h 14 z m 19.05,14 v -14 h -14 v 14 z m 1.294,-32.05 h -7 v 15 h 7 z m 74.906,18.05 h -14 v 14 h 14 z m 5.05,-5.05 h 14 v -14 h -14 z m -21.719,0 v -14 h -14 v 14 z m -73.531,38.1 h 14 v -14 h -14 z m 6.856,-52.1 h -14 v 14 h 14 z m 44.237,1 v 15 h 7 v -15 z"
     inkscape:label="plate" />
  <path
     id="path10-2-4-4-5"
     style="display:inline;fill:none;stroke:#000000;stroke-width:0.1"
     transform="matrix(1,0,0,-1,67.220312,136.38127)"
     d="M 93.819547,72.092822 V 126.2428 a 1.5000002,1.5000002 135 0 1 -1.5,1.5 l -149.400005,2e-5 a 1.4999998,1.4999998 44.999997 0 1 -1.5,-1.5 l 10e-7,-54.149998 a 1.5,1.5 135 0 1 1.5,-1.5 l 149.400004,0 a 1.5,1.5 45 0 1 1.5,1.5 z"
     inkscape:label="pcb"
     sodipodi:nodetypes="ccccc" />
  <path
     id="path8-3-5-5-4-7"
     style="display:inline;fill:none;stroke:#000000;stroke-width:0.1"
     d="m 5.05,0.05 h 159.57969 a 5,5 45 0 1 5,5 v 64.3277 a 5,5 135 0 1 -5,5 H 5.05 a 5,5 45 0 1 -5,-5 V 5.05 a 5,5 135 0 1 5,-5 z"
     sodipodi:nodetypes="ccccc"
     inkscape:label="bottom" />
  <metadata
     id="metadata2">
    <rdf:RDF>
      <cc:Work
         rdf:about="">
        <dc:title>SVG Image created as typing-check-board-User_Drawings.svg date 2023/11/21 23:44:53 </dc:title>
      </cc:Work>
    </rdf:RDF>
  </metadata>
  <path
     id="path8-3-5-5-5"
     style="display:inline;fill:none;stroke:#000000;stroke-width:0.1"
     d="m 148.58885,69.78765 c 0,-0.856041 -0.69395,-1.55 -1.55,-1.55 -0.85604,10e-7 -1.54999,0.693959 -1.54999,1.55 0,0.856041 0.69395,1.549999 1.54999,1.55 0.85605,0 1.55,-0.693959 1.55,-1.55 z m 13.44981,-4.6 V 9.24005 c 0,-0.8836556 -0.71634,-1.6 -1.6,-1.6 H 9.241053 c -0.8836556,0 -1.6,0.7163444 -1.6,1.6 v 55.9476 c 0,0.883656 0.7163444,1.6 1.6,1.6 H 160.43866 c 0.88366,0 1.6,-0.716344 1.6,-1.6 z m -53.44981,4.6 c 0,-0.856041 -0.69396,-1.55 -1.55,-1.55 -0.85604,10e-7 -1.55,0.693959 -1.55,1.55 0,0.856041 0.69396,1.549999 1.55,1.55 0.85604,0 1.55,-0.693959 1.55,-1.55 z m -44.397999,0 c 0,-0.856041 -0.693959,-1.55 -1.55,-1.55 -0.856041,10e-7 -1.549999,0.693959 -1.549999,1.55 0,0.856041 0.693958,1.549999 1.549999,1.55 0.856041,0 1.55,-0.693959 1.55,-1.55 z m -39.999999,0 c 0,-0.856041 -0.693959,-1.55 -1.55,-1.55 -0.856041,10e-7 -1.549999,0.693959 -1.549999,1.55 0,0.856041 0.693958,1.549999 1.549999,1.55 0.856041,0 1.55,-0.693959 1.55,-1.55 z M 148.58886,4.64005 c 0,0.85604 -0.69396,1.55 -1.55,1.55 -0.85605,0 -1.55,-0.69396 -1.55,-1.55 0,-0.85604 0.69395,-1.55 1.55,-1.55 0.85604,0 1.55,0.69396 1.55,1.55 z m -40.00001,0 c 0,0.85604 -0.69396,1.55 -1.55,1.55 -0.85604,0 -1.55,-0.69396 -1.55,-1.55 0,-0.85604 0.69396,-1.55 1.55,-1.55 0.85604,0 1.55,0.69396 1.55,1.55 z m -44.397998,0 c 0,0.85604 -0.693958,1.55 -1.55,1.55 -0.856041,0 -1.549999,-0.69396 -1.549999,-1.55 0,-0.85604 0.693958,-1.55 1.549999,-1.55 0.856042,0 1.55,0.69396 1.55,1.55 z m -40,0 c 0,0.85604 -0.693959,1.55 -1.55,1.55 -0.856041,0 -1.549999,-0.69396 -1.549999,-1.55 0,-0.85604 0.693958,-1.55 1.549999,-1.55 0.856041,0 1.55,0.69396 1.55,1.55 z M 5.05,0.05 h 159.57969 c 2.76142,0 5,2.2385763 5,5 v 64.3277 c 0,2.761424 -2.23858,5 -5,5 H 5.05 c -2.7614237,0 -5,-2.238576 -5,-5 V 5.05 c 0,-2.7614237 2.2385763,-5 5,-5 z"
     sodipodi:nodetypes="sssssscccscccsssssssssssssssscccccssssssssssssssssssssssss"
     inkscape:label="top-insert" />
  <path
     id="rect1"
     d="m 15.39,11.17385 h 139 a 1,1 45 0 1 1,1 v 37 a 1,1 135 0 1 -1,1 h -139 a 1,1 45 0 1 -1,-1 l 0,-37 a 1,1 135 0 1 1,-1 z"
     style="fill:none;stroke:#000000;stroke-width:0.1"
     inkscape:label="weight-hole" />
</svg>
