%TF.GenerationSoftware,KiCad,Pcbnew,7.0.9-dirty*%
%TF.CreationDate,2023-12-07T15:16:22+09:00*%
%TF.ProjectId,plate,706c6174-652e-46b6-9963-61645f706362,rev?*%
%TF.SameCoordinates,Original*%
%TF.FileFunction,Profile,NP*%
%FSLAX46Y46*%
G04 Gerber Fmt 4.6, Leading zero omitted, Abs format (unit mm)*
G04 Created by KiCad (PCBNEW 7.0.9-dirty) date 2023-12-07 15:16:22*
%MOMM*%
%LPD*%
G01*
G04 APERTURE LIST*
%TA.AperFunction,Profile*%
%ADD10C,0.093999*%
%TD*%
G04 APERTURE END LIST*
D10*
X210435343Y-127023614D02*
X210486893Y-127025212D01*
X210384353Y-127018914D02*
X210435343Y-127023614D01*
X210334074Y-127011252D02*
X210384353Y-127018914D01*
X210284660Y-127000768D02*
X210334074Y-127011252D01*
X210236260Y-126987604D02*
X210284660Y-127000768D01*
X210189026Y-126971900D02*
X210236260Y-126987604D01*
X210143110Y-126953795D02*
X210189026Y-126971900D01*
X210098664Y-126933430D02*
X210143110Y-126953795D01*
X210055838Y-126910947D02*
X210098664Y-126933430D01*
X210014785Y-126886485D02*
X210055838Y-126910947D01*
X209975655Y-126860184D02*
X210014785Y-126886485D01*
X209938600Y-126832186D02*
X209975655Y-126860184D01*
X209903772Y-126802630D02*
X209938600Y-126832186D01*
X209871323Y-126771657D02*
X209903772Y-126802630D01*
X209841403Y-126739407D02*
X209871323Y-126771657D01*
X209814164Y-126706022D02*
X209841403Y-126739407D01*
X209789757Y-126671640D02*
X209814164Y-126706022D01*
X209768335Y-126636404D02*
X209789757Y-126671640D01*
X209750048Y-126600452D02*
X209768335Y-126636404D01*
X209735048Y-126563927D02*
X209750048Y-126600452D01*
X209723487Y-126526967D02*
X209735048Y-126563927D01*
X209715516Y-126489713D02*
X209723487Y-126526967D01*
X209711286Y-126452307D02*
X209715516Y-126489713D01*
X209710949Y-126414888D02*
X209711286Y-126452307D01*
X209714657Y-126377597D02*
X209710949Y-126414888D01*
X209722560Y-126340574D02*
X209714657Y-126377597D01*
X209734811Y-126303959D02*
X209722560Y-126340574D01*
X209751561Y-126267894D02*
X209734811Y-126303959D01*
X209772961Y-126232518D02*
X209751561Y-126267894D01*
X209799163Y-126197972D02*
X209772961Y-126232518D01*
X209830318Y-126164396D02*
X209799163Y-126197972D01*
X209866578Y-126131932D02*
X209830318Y-126164396D01*
X209894354Y-126110138D02*
X209866578Y-126131932D01*
X209923453Y-126089278D02*
X209894354Y-126110138D01*
X209953905Y-126069416D02*
X209923453Y-126089278D01*
X209985741Y-126050619D02*
X209953905Y-126069416D01*
X210018991Y-126032950D02*
X209985741Y-126050619D01*
X210053687Y-126016476D02*
X210018991Y-126032950D01*
X210089859Y-126001262D02*
X210053687Y-126016476D01*
X210127537Y-125987372D02*
X210089859Y-126001262D01*
X210166753Y-125974872D02*
X210127537Y-125987372D01*
X210207537Y-125963827D02*
X210166753Y-125974872D01*
X210249920Y-125954303D02*
X210207537Y-125963827D01*
X210293933Y-125946364D02*
X210249920Y-125954303D01*
X210339606Y-125940075D02*
X210293933Y-125946364D01*
X210386970Y-125935503D02*
X210339606Y-125940075D01*
X210436055Y-125932712D02*
X210386970Y-125935503D01*
X210486893Y-125931767D02*
X210436055Y-125932712D01*
X227277802Y-125931782D02*
X210486893Y-125931767D01*
X227354992Y-125929830D02*
X227277802Y-125931782D01*
X227431169Y-125924038D02*
X227354992Y-125929830D01*
X227506238Y-125914499D02*
X227431169Y-125924038D01*
X227580105Y-125901308D02*
X227506238Y-125914499D01*
X227652676Y-125884558D02*
X227580105Y-125901308D01*
X227723857Y-125864345D02*
X227652676Y-125884558D01*
X227793553Y-125840763D02*
X227723857Y-125864345D01*
X227861671Y-125813905D02*
X227793553Y-125840763D01*
X227928115Y-125783866D02*
X227861671Y-125813905D01*
X227992792Y-125750741D02*
X227928115Y-125783866D01*
X228055608Y-125714623D02*
X227992792Y-125750741D01*
X228116468Y-125675607D02*
X228055608Y-125714623D01*
X228175277Y-125633786D02*
X228116468Y-125675607D01*
X228231943Y-125589256D02*
X228175277Y-125633786D01*
X228286369Y-125542110D02*
X228231943Y-125589256D01*
X228338463Y-125492443D02*
X228286369Y-125542110D01*
X228388130Y-125440349D02*
X228338463Y-125492443D01*
X228435276Y-125385923D02*
X228388130Y-125440349D01*
X228479806Y-125329257D02*
X228435276Y-125385923D01*
X228521626Y-125270448D02*
X228479806Y-125329257D01*
X228560643Y-125209588D02*
X228521626Y-125270448D01*
X228596761Y-125146773D02*
X228560643Y-125209588D01*
X228629886Y-125082096D02*
X228596761Y-125146773D01*
X228659925Y-125015651D02*
X228629886Y-125082096D01*
X228686783Y-124947534D02*
X228659925Y-125015651D01*
X228710365Y-124877837D02*
X228686783Y-124947534D01*
X228730578Y-124806657D02*
X228710365Y-124877837D01*
X228747327Y-124734085D02*
X228730578Y-124806657D01*
X228760519Y-124660218D02*
X228747327Y-124734085D01*
X228770058Y-124585149D02*
X228760519Y-124660218D01*
X228775850Y-124508972D02*
X228770058Y-124585149D01*
X228777802Y-124431782D02*
X228775850Y-124508972D01*
X228777802Y-70281802D02*
X228777802Y-124431782D01*
X228775850Y-70204612D02*
X228777802Y-70281802D01*
X228770058Y-70128435D02*
X228775850Y-70204612D01*
X228760519Y-70053366D02*
X228770058Y-70128435D01*
X228747327Y-69979499D02*
X228760519Y-70053366D01*
X228730578Y-69906928D02*
X228747327Y-69979499D01*
X228710365Y-69835747D02*
X228730578Y-69906928D01*
X228686783Y-69766051D02*
X228710365Y-69835747D01*
X228659925Y-69697933D02*
X228686783Y-69766051D01*
X228629886Y-69631489D02*
X228659925Y-69697933D01*
X228596761Y-69566812D02*
X228629886Y-69631489D01*
X228560643Y-69503996D02*
X228596761Y-69566812D01*
X228521626Y-69443137D02*
X228560643Y-69503996D01*
X228479806Y-69384327D02*
X228521626Y-69443137D01*
X228435276Y-69327661D02*
X228479806Y-69384327D01*
X228388130Y-69273235D02*
X228435276Y-69327661D01*
X228338463Y-69221141D02*
X228388130Y-69273235D01*
X228286369Y-69171473D02*
X228338463Y-69221141D01*
X228231943Y-69124328D02*
X228286369Y-69171473D01*
X228175277Y-69079798D02*
X228231943Y-69124328D01*
X228116468Y-69037977D02*
X228175277Y-69079798D01*
X228055608Y-68998961D02*
X228116468Y-69037977D01*
X227992792Y-68962843D02*
X228055608Y-68998961D01*
X227928115Y-68929717D02*
X227992792Y-68962843D01*
X227861671Y-68899678D02*
X227928115Y-68929717D01*
X227793553Y-68872820D02*
X227861671Y-68899678D01*
X227723857Y-68849238D02*
X227793553Y-68872820D01*
X227652676Y-68829025D02*
X227723857Y-68849238D01*
X227580105Y-68812275D02*
X227652676Y-68829025D01*
X227506238Y-68799084D02*
X227580105Y-68812275D01*
X227431169Y-68789545D02*
X227506238Y-68799084D01*
X227354992Y-68783752D02*
X227431169Y-68789545D01*
X227277802Y-68781801D02*
X227354992Y-68783752D01*
X210486908Y-68781798D02*
X227277802Y-68781801D01*
X210436087Y-68780854D02*
X210486908Y-68781798D01*
X210387018Y-68778064D02*
X210436087Y-68780854D01*
X210339669Y-68773495D02*
X210387018Y-68778064D01*
X210294011Y-68767211D02*
X210339669Y-68773495D01*
X210250012Y-68759278D02*
X210294011Y-68767211D01*
X210207642Y-68749760D02*
X210250012Y-68759278D01*
X210166870Y-68738723D02*
X210207642Y-68749760D01*
X210127665Y-68726231D02*
X210166870Y-68738723D01*
X210089997Y-68712351D02*
X210127665Y-68726231D01*
X210053834Y-68697147D02*
X210089997Y-68712351D01*
X210019147Y-68680684D02*
X210053834Y-68697147D01*
X209985904Y-68663027D02*
X210019147Y-68680684D01*
X209954075Y-68644242D02*
X209985904Y-68663027D01*
X209923628Y-68624394D02*
X209954075Y-68644242D01*
X209894534Y-68603548D02*
X209923628Y-68624394D01*
X209866761Y-68581768D02*
X209894534Y-68603548D01*
X209830484Y-68549307D02*
X209866761Y-68581768D01*
X209799314Y-68515734D02*
X209830484Y-68549307D01*
X209773099Y-68481189D02*
X209799314Y-68515734D01*
X209751686Y-68445813D02*
X209773099Y-68481189D01*
X209734925Y-68409747D02*
X209751686Y-68445813D01*
X209722664Y-68373130D02*
X209734925Y-68409747D01*
X209714751Y-68336104D02*
X209722664Y-68373130D01*
X209711035Y-68298809D02*
X209714751Y-68336104D01*
X209711365Y-68261386D02*
X209711035Y-68298809D01*
X209715588Y-68223974D02*
X209711365Y-68261386D01*
X209723554Y-68186715D02*
X209715588Y-68223974D01*
X209735110Y-68149749D02*
X209723554Y-68186715D01*
X209750106Y-68113217D02*
X209735110Y-68149749D01*
X209768389Y-68077258D02*
X209750106Y-68113217D01*
X209789808Y-68042015D02*
X209768389Y-68077258D01*
X209814211Y-68007626D02*
X209789808Y-68042015D01*
X209841448Y-67974233D02*
X209814211Y-68007626D01*
X209871366Y-67941976D02*
X209841448Y-67974233D01*
X209903814Y-67910995D02*
X209871366Y-67941976D01*
X209938640Y-67881432D02*
X209903814Y-67910995D01*
X209975694Y-67853426D02*
X209938640Y-67881432D01*
X210014822Y-67827118D02*
X209975694Y-67853426D01*
X210055874Y-67802649D02*
X210014822Y-67827118D01*
X210098699Y-67780160D02*
X210055874Y-67802649D01*
X210143144Y-67759789D02*
X210098699Y-67780160D01*
X210189058Y-67741679D02*
X210143144Y-67759789D01*
X210236290Y-67725970D02*
X210189058Y-67741679D01*
X210284688Y-67712802D02*
X210236290Y-67725970D01*
X210334100Y-67702315D02*
X210284688Y-67712802D01*
X210384375Y-67694651D02*
X210334100Y-67702315D01*
X210435362Y-67689949D02*
X210384375Y-67694651D01*
X210486908Y-67688351D02*
X210435362Y-67689949D01*
X225168961Y-67688351D02*
X210486908Y-67688351D01*
X225215273Y-67687180D02*
X225168961Y-67688351D01*
X225260978Y-67683704D02*
X225215273Y-67687180D01*
X225306018Y-67677981D02*
X225260978Y-67683704D01*
X225350337Y-67670066D02*
X225306018Y-67677981D01*
X225393879Y-67660016D02*
X225350337Y-67670066D01*
X225436587Y-67647888D02*
X225393879Y-67660016D01*
X225478404Y-67633739D02*
X225436587Y-67647888D01*
X225519274Y-67617624D02*
X225478404Y-67633739D01*
X225559140Y-67599601D02*
X225519274Y-67617624D01*
X225597946Y-67579725D02*
X225559140Y-67599601D01*
X225635635Y-67558054D02*
X225597946Y-67579725D01*
X225672150Y-67534645D02*
X225635635Y-67558054D01*
X225707436Y-67509552D02*
X225672150Y-67534645D01*
X225741435Y-67482834D02*
X225707436Y-67509552D01*
X225774091Y-67454547D02*
X225741435Y-67482834D01*
X225805348Y-67424747D02*
X225774091Y-67454547D01*
X225835148Y-67393490D02*
X225805348Y-67424747D01*
X225863436Y-67360834D02*
X225835148Y-67393490D01*
X225890154Y-67326835D02*
X225863436Y-67360834D01*
X225915247Y-67291549D02*
X225890154Y-67326835D01*
X225938657Y-67255033D02*
X225915247Y-67291549D01*
X225960328Y-67217344D02*
X225938657Y-67255033D01*
X225980204Y-67178538D02*
X225960328Y-67217344D01*
X225998227Y-67138671D02*
X225980204Y-67178538D01*
X226014342Y-67097801D02*
X225998227Y-67138671D01*
X226028492Y-67055983D02*
X226014342Y-67097801D01*
X226040620Y-67013274D02*
X226028492Y-67055983D01*
X226050670Y-66969732D02*
X226040620Y-67013274D01*
X226058585Y-66925412D02*
X226050670Y-66969732D01*
X226064308Y-66880370D02*
X226058585Y-66925412D01*
X226067784Y-66834664D02*
X226064308Y-66880370D01*
X226068955Y-66788350D02*
X226067784Y-66834664D01*
X226068955Y-63682340D02*
X226068955Y-66788350D01*
X226067784Y-63636026D02*
X226068955Y-63682340D01*
X226064308Y-63590320D02*
X226067784Y-63636026D01*
X226058585Y-63545279D02*
X226064308Y-63590320D01*
X226050670Y-63500959D02*
X226058585Y-63545279D01*
X226040621Y-63457416D02*
X226050670Y-63500959D01*
X226028493Y-63414707D02*
X226040621Y-63457416D01*
X226014344Y-63372890D02*
X226028493Y-63414707D01*
X225998229Y-63332019D02*
X226014344Y-63372890D01*
X225980206Y-63292153D02*
X225998229Y-63332019D01*
X225960331Y-63253346D02*
X225980206Y-63292153D01*
X225938660Y-63215657D02*
X225960331Y-63253346D01*
X225915251Y-63179141D02*
X225938660Y-63215657D01*
X225890159Y-63143856D02*
X225915251Y-63179141D01*
X225863441Y-63109856D02*
X225890159Y-63143856D01*
X225835154Y-63077200D02*
X225863441Y-63109856D01*
X225805354Y-63045944D02*
X225835154Y-63077200D01*
X225774097Y-63016144D02*
X225805354Y-63045944D01*
X225741442Y-62987856D02*
X225774097Y-63016144D01*
X225707443Y-62961138D02*
X225741442Y-62987856D01*
X225672157Y-62936046D02*
X225707443Y-62961138D01*
X225635642Y-62912636D02*
X225672157Y-62936046D01*
X225597953Y-62890965D02*
X225635642Y-62912636D01*
X225559147Y-62871090D02*
X225597953Y-62890965D01*
X225519280Y-62853066D02*
X225559147Y-62871090D01*
X225478410Y-62836952D02*
X225519280Y-62853066D01*
X225436592Y-62822802D02*
X225478410Y-62836952D01*
X225393884Y-62810674D02*
X225436592Y-62822802D01*
X225350342Y-62800625D02*
X225393884Y-62810674D01*
X225306022Y-62792710D02*
X225350342Y-62800625D01*
X225260981Y-62786987D02*
X225306022Y-62792710D01*
X225215275Y-62783511D02*
X225260981Y-62786987D01*
X225168961Y-62782340D02*
X225215275Y-62783511D01*
X191828949Y-62782340D02*
X225168961Y-62782340D01*
X191782635Y-62783511D02*
X191828949Y-62782340D01*
X191736929Y-62786987D02*
X191782635Y-62783511D01*
X191691887Y-62792710D02*
X191736929Y-62786987D01*
X191647566Y-62800625D02*
X191691887Y-62792710D01*
X191604023Y-62810674D02*
X191647566Y-62800625D01*
X191561314Y-62822802D02*
X191604023Y-62810674D01*
X191519496Y-62836952D02*
X191561314Y-62822802D01*
X191478626Y-62853066D02*
X191519496Y-62836952D01*
X191438759Y-62871090D02*
X191478626Y-62853066D01*
X191399953Y-62890965D02*
X191438759Y-62871090D01*
X191362263Y-62912636D02*
X191399953Y-62890965D01*
X191325748Y-62936046D02*
X191362263Y-62912636D01*
X191290462Y-62961138D02*
X191325748Y-62936046D01*
X191256463Y-62987856D02*
X191290462Y-62961138D01*
X191223807Y-63016144D02*
X191256463Y-62987856D01*
X191192550Y-63045944D02*
X191223807Y-63016144D01*
X191162750Y-63077200D02*
X191192550Y-63045944D01*
X191134463Y-63109856D02*
X191162750Y-63077200D01*
X191107745Y-63143856D02*
X191134463Y-63109856D01*
X191082653Y-63179141D02*
X191107745Y-63143856D01*
X191059243Y-63215657D02*
X191082653Y-63179141D01*
X191037572Y-63253346D02*
X191059243Y-63215657D01*
X191017697Y-63292153D02*
X191037572Y-63253346D01*
X190999674Y-63332019D02*
X191017697Y-63292153D01*
X190983559Y-63372890D02*
X190999674Y-63332019D01*
X190969410Y-63414707D02*
X190983559Y-63372890D01*
X190957282Y-63457416D02*
X190969410Y-63414707D01*
X190947232Y-63500958D02*
X190957282Y-63457416D01*
X190939318Y-63545279D02*
X190947232Y-63500958D01*
X190933594Y-63590320D02*
X190939318Y-63545279D01*
X190930119Y-63636026D02*
X190933594Y-63590320D01*
X190928948Y-63682340D02*
X190930119Y-63636026D01*
X190928948Y-66788350D02*
X190928948Y-63682340D01*
X190930119Y-66834663D02*
X190928948Y-66788350D01*
X190933594Y-66880369D02*
X190930119Y-66834663D01*
X190939318Y-66925411D02*
X190933594Y-66880369D01*
X190947232Y-66969731D02*
X190939318Y-66925411D01*
X190957282Y-67013273D02*
X190947232Y-66969731D01*
X190969410Y-67055982D02*
X190957282Y-67013273D01*
X190983559Y-67097800D02*
X190969410Y-67055982D01*
X190999674Y-67138670D02*
X190983559Y-67097800D01*
X191017697Y-67178537D02*
X190999674Y-67138670D01*
X191037572Y-67217343D02*
X191017697Y-67178537D01*
X191059243Y-67255032D02*
X191037572Y-67217343D01*
X191082653Y-67291548D02*
X191059243Y-67255032D01*
X191107745Y-67326834D02*
X191082653Y-67291548D01*
X191134463Y-67360833D02*
X191107745Y-67326834D01*
X191162750Y-67393489D02*
X191134463Y-67360833D01*
X191192550Y-67424746D02*
X191162750Y-67393489D01*
X191223807Y-67454546D02*
X191192550Y-67424746D01*
X191256463Y-67482833D02*
X191223807Y-67454546D01*
X191290462Y-67509551D02*
X191256463Y-67482833D01*
X191325748Y-67534644D02*
X191290462Y-67509551D01*
X191362263Y-67558054D02*
X191325748Y-67534644D01*
X191399953Y-67579724D02*
X191362263Y-67558054D01*
X191438759Y-67599600D02*
X191399953Y-67579724D01*
X191478626Y-67617623D02*
X191438759Y-67599600D01*
X191519496Y-67633738D02*
X191478626Y-67617623D01*
X191561314Y-67647887D02*
X191519496Y-67633738D01*
X191604023Y-67660015D02*
X191561314Y-67647887D01*
X191647566Y-67670065D02*
X191604023Y-67660015D01*
X191691887Y-67677980D02*
X191647566Y-67670065D01*
X191736929Y-67683703D02*
X191691887Y-67677980D01*
X191782635Y-67687179D02*
X191736929Y-67683703D01*
X191828949Y-67688350D02*
X191782635Y-67687179D01*
X206510987Y-67688350D02*
X191828949Y-67688350D01*
X206562537Y-67689948D02*
X206510987Y-67688350D01*
X206613528Y-67694648D02*
X206562537Y-67689948D01*
X206663806Y-67702310D02*
X206613528Y-67694648D01*
X206713221Y-67712793D02*
X206663806Y-67702310D01*
X206761621Y-67725957D02*
X206713221Y-67712793D01*
X206808855Y-67741662D02*
X206761621Y-67725957D01*
X206854771Y-67759767D02*
X206808855Y-67741662D01*
X206899218Y-67780131D02*
X206854771Y-67759767D01*
X206942044Y-67802614D02*
X206899218Y-67780131D01*
X206983098Y-67827077D02*
X206942044Y-67802614D01*
X207022229Y-67853377D02*
X206983098Y-67827077D01*
X207059284Y-67881376D02*
X207022229Y-67853377D01*
X207094112Y-67910932D02*
X207059284Y-67881376D01*
X207126562Y-67941905D02*
X207094112Y-67910932D01*
X207156483Y-67974154D02*
X207126562Y-67941905D01*
X207183722Y-68007540D02*
X207156483Y-67974154D01*
X207208129Y-68041921D02*
X207183722Y-68007540D01*
X207229551Y-68077158D02*
X207208129Y-68041921D01*
X207247838Y-68113109D02*
X207229551Y-68077158D01*
X207262838Y-68149635D02*
X207247838Y-68113109D01*
X207274399Y-68186594D02*
X207262838Y-68149635D01*
X207282371Y-68223848D02*
X207274399Y-68186594D01*
X207286600Y-68261254D02*
X207282371Y-68223848D01*
X207286937Y-68298673D02*
X207286600Y-68261254D01*
X207283229Y-68335964D02*
X207286937Y-68298673D01*
X207275325Y-68372987D02*
X207283229Y-68335964D01*
X207263074Y-68409602D02*
X207275325Y-68372987D01*
X207246323Y-68445667D02*
X207263074Y-68409602D01*
X207224923Y-68481043D02*
X207246323Y-68445667D01*
X207198720Y-68515588D02*
X207224923Y-68481043D01*
X207167563Y-68549164D02*
X207198720Y-68515588D01*
X207131302Y-68581628D02*
X207167563Y-68549164D01*
X207103526Y-68603422D02*
X207131302Y-68581628D01*
X207074428Y-68624282D02*
X207103526Y-68603422D01*
X207043976Y-68644143D02*
X207074428Y-68624282D01*
X207012141Y-68662941D02*
X207043976Y-68644143D01*
X206978892Y-68680610D02*
X207012141Y-68662941D01*
X206944197Y-68697084D02*
X206978892Y-68680610D01*
X206908026Y-68712299D02*
X206944197Y-68697084D01*
X206870348Y-68726189D02*
X206908026Y-68712299D01*
X206831133Y-68738690D02*
X206870348Y-68726189D01*
X206790349Y-68749735D02*
X206831133Y-68738690D01*
X206747966Y-68759260D02*
X206790349Y-68749735D01*
X206703953Y-68767199D02*
X206747966Y-68759260D01*
X206658280Y-68773488D02*
X206703953Y-68767199D01*
X206610915Y-68778060D02*
X206658280Y-68773488D01*
X206561827Y-68780852D02*
X206610915Y-68778060D01*
X206510987Y-68781797D02*
X206561827Y-68780852D01*
X154566903Y-68781783D02*
X206510987Y-68781797D01*
X154516083Y-68780838D02*
X154566903Y-68781783D01*
X154467014Y-68778049D02*
X154516083Y-68780838D01*
X154419666Y-68773480D02*
X154467014Y-68778049D01*
X154374008Y-68767196D02*
X154419666Y-68773480D01*
X154330010Y-68759262D02*
X154374008Y-68767196D01*
X154287639Y-68749745D02*
X154330010Y-68759262D01*
X154246867Y-68738707D02*
X154287639Y-68749745D01*
X154207662Y-68726216D02*
X154246867Y-68738707D01*
X154169993Y-68712335D02*
X154207662Y-68726216D01*
X154133831Y-68697131D02*
X154169993Y-68712335D01*
X154099143Y-68680668D02*
X154133831Y-68697131D01*
X154065899Y-68663011D02*
X154099143Y-68680668D01*
X154034069Y-68644226D02*
X154065899Y-68663011D01*
X154003623Y-68624378D02*
X154034069Y-68644226D01*
X153974528Y-68603532D02*
X154003623Y-68624378D01*
X153946755Y-68581752D02*
X153974528Y-68603532D01*
X153910478Y-68549291D02*
X153946755Y-68581752D01*
X153879307Y-68515718D02*
X153910478Y-68549291D01*
X153853091Y-68481173D02*
X153879307Y-68515718D01*
X153831678Y-68445797D02*
X153853091Y-68481173D01*
X153814916Y-68409730D02*
X153831678Y-68445797D01*
X153802655Y-68373114D02*
X153814916Y-68409730D01*
X153794742Y-68336088D02*
X153802655Y-68373114D01*
X153791025Y-68298793D02*
X153794742Y-68336088D01*
X153791355Y-68261369D02*
X153791025Y-68298793D01*
X153795578Y-68223958D02*
X153791355Y-68261369D01*
X153803543Y-68186699D02*
X153795578Y-68223958D01*
X153815099Y-68149733D02*
X153803543Y-68186699D01*
X153830094Y-68113201D02*
X153815099Y-68149733D01*
X153848377Y-68077242D02*
X153830094Y-68113201D01*
X153869796Y-68041998D02*
X153848377Y-68077242D01*
X153894200Y-68007610D02*
X153869796Y-68041998D01*
X153921436Y-67974217D02*
X153894200Y-68007610D01*
X153951355Y-67941960D02*
X153921436Y-67974217D01*
X153983803Y-67910979D02*
X153951355Y-67941960D01*
X154018629Y-67881416D02*
X153983803Y-67910979D01*
X154055683Y-67853410D02*
X154018629Y-67881416D01*
X154094811Y-67827102D02*
X154055683Y-67853410D01*
X154135864Y-67802633D02*
X154094811Y-67827102D01*
X154178689Y-67780143D02*
X154135864Y-67802633D01*
X154223134Y-67759773D02*
X154178689Y-67780143D01*
X154269049Y-67741663D02*
X154223134Y-67759773D01*
X154316281Y-67725954D02*
X154269049Y-67741663D01*
X154364679Y-67712785D02*
X154316281Y-67725954D01*
X154414092Y-67702299D02*
X154364679Y-67712785D01*
X154464368Y-67694634D02*
X154414092Y-67702299D01*
X154515355Y-67689933D02*
X154464368Y-67694634D01*
X154566903Y-67688334D02*
X154515355Y-67689933D01*
X169248963Y-67688334D02*
X154566903Y-67688334D01*
X169295277Y-67687163D02*
X169248963Y-67688334D01*
X169340982Y-67683688D02*
X169295277Y-67687163D01*
X169386024Y-67677964D02*
X169340982Y-67683688D01*
X169430344Y-67670050D02*
X169386024Y-67677964D01*
X169473887Y-67660000D02*
X169430344Y-67670050D01*
X169516595Y-67647872D02*
X169473887Y-67660000D01*
X169558413Y-67633723D02*
X169516595Y-67647872D01*
X169599283Y-67617608D02*
X169558413Y-67633723D01*
X169639150Y-67599585D02*
X169599283Y-67617608D01*
X169677956Y-67579709D02*
X169639150Y-67599585D01*
X169715645Y-67558038D02*
X169677956Y-67579709D01*
X169752161Y-67534629D02*
X169715645Y-67558038D01*
X169787447Y-67509536D02*
X169752161Y-67534629D01*
X169821447Y-67482818D02*
X169787447Y-67509536D01*
X169854103Y-67454531D02*
X169821447Y-67482818D01*
X169885359Y-67424731D02*
X169854103Y-67454531D01*
X169915160Y-67393474D02*
X169885359Y-67424731D01*
X169943447Y-67360818D02*
X169915160Y-67393474D01*
X169970165Y-67326819D02*
X169943447Y-67360818D01*
X169995258Y-67291533D02*
X169970165Y-67326819D01*
X170018668Y-67255017D02*
X169995258Y-67291533D01*
X170040339Y-67217328D02*
X170018668Y-67255017D01*
X170060214Y-67178522D02*
X170040339Y-67217328D01*
X170078238Y-67138655D02*
X170060214Y-67178522D01*
X170094352Y-67097785D02*
X170078238Y-67138655D01*
X170108502Y-67055967D02*
X170094352Y-67097785D01*
X170120630Y-67013259D02*
X170108502Y-67055967D01*
X170130679Y-66969716D02*
X170120630Y-67013259D01*
X170138594Y-66925396D02*
X170130679Y-66969716D01*
X170144318Y-66880354D02*
X170138594Y-66925396D01*
X170147793Y-66834648D02*
X170144318Y-66880354D01*
X170148964Y-66788334D02*
X170147793Y-66834648D01*
X170148964Y-63682325D02*
X170148964Y-66788334D01*
X170147793Y-63636011D02*
X170148964Y-63682325D01*
X170144318Y-63590305D02*
X170147793Y-63636011D01*
X170138594Y-63545264D02*
X170144318Y-63590305D01*
X170130679Y-63500943D02*
X170138594Y-63545264D01*
X170120629Y-63457401D02*
X170130679Y-63500943D01*
X170108501Y-63414692D02*
X170120629Y-63457401D01*
X170094351Y-63372875D02*
X170108501Y-63414692D01*
X170078236Y-63332004D02*
X170094351Y-63372875D01*
X170060213Y-63292137D02*
X170078236Y-63332004D01*
X170040337Y-63253331D02*
X170060213Y-63292137D01*
X170018666Y-63215642D02*
X170040337Y-63253331D01*
X169995256Y-63179126D02*
X170018666Y-63215642D01*
X169970163Y-63143840D02*
X169995256Y-63179126D01*
X169943445Y-63109841D02*
X169970163Y-63143840D01*
X169915157Y-63077185D02*
X169943445Y-63109841D01*
X169885356Y-63045929D02*
X169915157Y-63077185D01*
X169854100Y-63016128D02*
X169885356Y-63045929D01*
X169821443Y-62987841D02*
X169854100Y-63016128D01*
X169787444Y-62961123D02*
X169821443Y-62987841D01*
X169752158Y-62936031D02*
X169787444Y-62961123D01*
X169715642Y-62912621D02*
X169752158Y-62936031D01*
X169677953Y-62890950D02*
X169715642Y-62912621D01*
X169639147Y-62871074D02*
X169677953Y-62890950D01*
X169599280Y-62853051D02*
X169639147Y-62871074D01*
X169558410Y-62836936D02*
X169599280Y-62853051D01*
X169516592Y-62822787D02*
X169558410Y-62836936D01*
X169473884Y-62810659D02*
X169516592Y-62822787D01*
X169430342Y-62800609D02*
X169473884Y-62810659D01*
X169386022Y-62792695D02*
X169430342Y-62800609D01*
X169340981Y-62786971D02*
X169386022Y-62792695D01*
X169295276Y-62783496D02*
X169340981Y-62786971D01*
X169248963Y-62782325D02*
X169295276Y-62783496D01*
X135908944Y-62782325D02*
X169248963Y-62782325D01*
X135862630Y-62783496D02*
X135908944Y-62782325D01*
X135816924Y-62786971D02*
X135862630Y-62783496D01*
X135771883Y-62792695D02*
X135816924Y-62786971D01*
X135727563Y-62800610D02*
X135771883Y-62792695D01*
X135684020Y-62810659D02*
X135727563Y-62800610D01*
X135641311Y-62822787D02*
X135684020Y-62810659D01*
X135599494Y-62836936D02*
X135641311Y-62822787D01*
X135558623Y-62853051D02*
X135599494Y-62836936D01*
X135518757Y-62871074D02*
X135558623Y-62853051D01*
X135479950Y-62890950D02*
X135518757Y-62871074D01*
X135442261Y-62912621D02*
X135479950Y-62890950D01*
X135405745Y-62936031D02*
X135442261Y-62912621D01*
X135370459Y-62961123D02*
X135405745Y-62936031D01*
X135336460Y-62987841D02*
X135370459Y-62961123D01*
X135303804Y-63016128D02*
X135336460Y-62987841D01*
X135272547Y-63045929D02*
X135303804Y-63016128D01*
X135242747Y-63077185D02*
X135272547Y-63045929D01*
X135214459Y-63109841D02*
X135242747Y-63077185D01*
X135187741Y-63143840D02*
X135214459Y-63109841D01*
X135162649Y-63179126D02*
X135187741Y-63143840D01*
X135139239Y-63215642D02*
X135162649Y-63179126D01*
X135117568Y-63253331D02*
X135139239Y-63215642D01*
X135097692Y-63292138D02*
X135117568Y-63253331D01*
X135079669Y-63332004D02*
X135097692Y-63292138D01*
X135063554Y-63372875D02*
X135079669Y-63332004D01*
X135049405Y-63414692D02*
X135063554Y-63372875D01*
X135037277Y-63457401D02*
X135049405Y-63414692D01*
X135027227Y-63500943D02*
X135037277Y-63457401D01*
X135019312Y-63545264D02*
X135027227Y-63500943D01*
X135013589Y-63590305D02*
X135019312Y-63545264D01*
X135010113Y-63636011D02*
X135013589Y-63590305D01*
X135008942Y-63682325D02*
X135010113Y-63636011D01*
X135008942Y-66788334D02*
X135008942Y-63682325D01*
X135010113Y-66834648D02*
X135008942Y-66788334D01*
X135013589Y-66880354D02*
X135010113Y-66834648D01*
X135019312Y-66925396D02*
X135013589Y-66880354D01*
X135027227Y-66969716D02*
X135019312Y-66925396D01*
X135037277Y-67013259D02*
X135027227Y-66969716D01*
X135049405Y-67055967D02*
X135037277Y-67013259D01*
X135063554Y-67097785D02*
X135049405Y-67055967D01*
X135079669Y-67138655D02*
X135063554Y-67097785D01*
X135097692Y-67178522D02*
X135079669Y-67138655D01*
X135117568Y-67217328D02*
X135097692Y-67178522D01*
X135139239Y-67255017D02*
X135117568Y-67217328D01*
X135162649Y-67291533D02*
X135139239Y-67255017D01*
X135187741Y-67326819D02*
X135162649Y-67291533D01*
X135214459Y-67360818D02*
X135187741Y-67326819D01*
X135242747Y-67393474D02*
X135214459Y-67360818D01*
X135272547Y-67424731D02*
X135242747Y-67393474D01*
X135303804Y-67454531D02*
X135272547Y-67424731D01*
X135336460Y-67482818D02*
X135303804Y-67454531D01*
X135370459Y-67509536D02*
X135336460Y-67482818D01*
X135405745Y-67534629D02*
X135370459Y-67509536D01*
X135442261Y-67558038D02*
X135405745Y-67534629D01*
X135479950Y-67579709D02*
X135442261Y-67558038D01*
X135518757Y-67599585D02*
X135479950Y-67579709D01*
X135558623Y-67617608D02*
X135518757Y-67599585D01*
X135599494Y-67633723D02*
X135558623Y-67617608D01*
X135641311Y-67647872D02*
X135599494Y-67633723D01*
X135684020Y-67660000D02*
X135641311Y-67647872D01*
X135727563Y-67670050D02*
X135684020Y-67660000D01*
X135771883Y-67677964D02*
X135727563Y-67670050D01*
X135816924Y-67683688D02*
X135771883Y-67677964D01*
X135862630Y-67687163D02*
X135816924Y-67683688D01*
X135908944Y-67688334D02*
X135862630Y-67687163D01*
X150590989Y-67688334D02*
X135908944Y-67688334D01*
X150642536Y-67689932D02*
X150590989Y-67688334D01*
X150693523Y-67694632D02*
X150642536Y-67689932D01*
X150743799Y-67702294D02*
X150693523Y-67694632D01*
X150793212Y-67712778D02*
X150743799Y-67702294D01*
X150841610Y-67725942D02*
X150793212Y-67712778D01*
X150888843Y-67741646D02*
X150841610Y-67725942D01*
X150934758Y-67759751D02*
X150888843Y-67741646D01*
X150979204Y-67780116D02*
X150934758Y-67759751D01*
X151022030Y-67802599D02*
X150979204Y-67780116D01*
X151063083Y-67827061D02*
X151022030Y-67802599D01*
X151102214Y-67853362D02*
X151063083Y-67827061D01*
X151139269Y-67881360D02*
X151102214Y-67853362D01*
X151174097Y-67910916D02*
X151139269Y-67881360D01*
X151206548Y-67941889D02*
X151174097Y-67910916D01*
X151236469Y-67974138D02*
X151206548Y-67941889D01*
X151263710Y-68007524D02*
X151236469Y-67974138D01*
X151288117Y-68041905D02*
X151263710Y-68007524D01*
X151309541Y-68077142D02*
X151288117Y-68041905D01*
X151327829Y-68113093D02*
X151309541Y-68077142D01*
X151342830Y-68149619D02*
X151327829Y-68113093D01*
X151354392Y-68186579D02*
X151342830Y-68149619D01*
X151362365Y-68223832D02*
X151354392Y-68186579D01*
X151366596Y-68261238D02*
X151362365Y-68223832D01*
X151366933Y-68298657D02*
X151366596Y-68261238D01*
X151363227Y-68335949D02*
X151366933Y-68298657D01*
X151355324Y-68372972D02*
X151363227Y-68335949D01*
X151343073Y-68409586D02*
X151355324Y-68372972D01*
X151326324Y-68445651D02*
X151343073Y-68409586D01*
X151304923Y-68481027D02*
X151326324Y-68445651D01*
X151278721Y-68515573D02*
X151304923Y-68481027D01*
X151247565Y-68549148D02*
X151278721Y-68515573D01*
X151211304Y-68581613D02*
X151247565Y-68549148D01*
X151183529Y-68603406D02*
X151211304Y-68581613D01*
X151154432Y-68624266D02*
X151183529Y-68603406D01*
X151123981Y-68644128D02*
X151154432Y-68624266D01*
X151092146Y-68662925D02*
X151123981Y-68644128D01*
X151058897Y-68680594D02*
X151092146Y-68662925D01*
X151024202Y-68697068D02*
X151058897Y-68680594D01*
X150988031Y-68712283D02*
X151024202Y-68697068D01*
X150950353Y-68726174D02*
X150988031Y-68712283D01*
X150911137Y-68738674D02*
X150950353Y-68726174D01*
X150870353Y-68749719D02*
X150911137Y-68738674D01*
X150827970Y-68759244D02*
X150870353Y-68749719D01*
X150783956Y-68767184D02*
X150827970Y-68759244D01*
X150738282Y-68773473D02*
X150783956Y-68767184D01*
X150690917Y-68778045D02*
X150738282Y-68773473D01*
X150641829Y-68780837D02*
X150690917Y-68778045D01*
X150590989Y-68781782D02*
X150641829Y-68780837D01*
X98674904Y-68781783D02*
X150590989Y-68781782D01*
X98624084Y-68780838D02*
X98674904Y-68781783D01*
X98575015Y-68778049D02*
X98624084Y-68780838D01*
X98527666Y-68773480D02*
X98575015Y-68778049D01*
X98482008Y-68767196D02*
X98527666Y-68773480D01*
X98438009Y-68759263D02*
X98482008Y-68767196D01*
X98395639Y-68749745D02*
X98438009Y-68759263D01*
X98354867Y-68738707D02*
X98395639Y-68749745D01*
X98315661Y-68726216D02*
X98354867Y-68738707D01*
X98277993Y-68712336D02*
X98315661Y-68726216D01*
X98241830Y-68697131D02*
X98277993Y-68712336D01*
X98207142Y-68680668D02*
X98241830Y-68697131D01*
X98173899Y-68663012D02*
X98207142Y-68680668D01*
X98142069Y-68644227D02*
X98173899Y-68663012D01*
X98111622Y-68624379D02*
X98142069Y-68644227D01*
X98082528Y-68603532D02*
X98111622Y-68624379D01*
X98054755Y-68581753D02*
X98082528Y-68603532D01*
X98018478Y-68549292D02*
X98054755Y-68581753D01*
X97987307Y-68515719D02*
X98018478Y-68549292D01*
X97961091Y-68481174D02*
X97987307Y-68515719D01*
X97939678Y-68445798D02*
X97961091Y-68481174D01*
X97922917Y-68409731D02*
X97939678Y-68445798D01*
X97910655Y-68373115D02*
X97922917Y-68409731D01*
X97902742Y-68336089D02*
X97910655Y-68373115D01*
X97899026Y-68298794D02*
X97902742Y-68336089D01*
X97899356Y-68261370D02*
X97899026Y-68298794D01*
X97903579Y-68223959D02*
X97899356Y-68261370D01*
X97911544Y-68186700D02*
X97903579Y-68223959D01*
X97923100Y-68149734D02*
X97911544Y-68186700D01*
X97938096Y-68113202D02*
X97923100Y-68149734D01*
X97956379Y-68077243D02*
X97938096Y-68113202D01*
X97977798Y-68041999D02*
X97956379Y-68077243D01*
X98002201Y-68007611D02*
X97977798Y-68041999D01*
X98029438Y-67974218D02*
X98002201Y-68007611D01*
X98059356Y-67941960D02*
X98029438Y-67974218D01*
X98091804Y-67910980D02*
X98059356Y-67941960D01*
X98126631Y-67881417D02*
X98091804Y-67910980D01*
X98163684Y-67853411D02*
X98126631Y-67881417D01*
X98202813Y-67827103D02*
X98163684Y-67853411D01*
X98243866Y-67802634D02*
X98202813Y-67827103D01*
X98286690Y-67780144D02*
X98243866Y-67802634D01*
X98331136Y-67759774D02*
X98286690Y-67780144D01*
X98377051Y-67741664D02*
X98331136Y-67759774D01*
X98424283Y-67725955D02*
X98377051Y-67741664D01*
X98472681Y-67712786D02*
X98424283Y-67725955D01*
X98522094Y-67702300D02*
X98472681Y-67712786D01*
X98572370Y-67694635D02*
X98522094Y-67702300D01*
X98623357Y-67689934D02*
X98572370Y-67694635D01*
X98674904Y-67688335D02*
X98623357Y-67689934D01*
X113356953Y-67688335D02*
X98674904Y-67688335D01*
X113403267Y-67687164D02*
X113356953Y-67688335D01*
X113448973Y-67683689D02*
X113403267Y-67687164D01*
X113494015Y-67677965D02*
X113448973Y-67683689D01*
X113538335Y-67670051D02*
X113494015Y-67677965D01*
X113581878Y-67660001D02*
X113538335Y-67670051D01*
X113624587Y-67647873D02*
X113581878Y-67660001D01*
X113666405Y-67633724D02*
X113624587Y-67647873D01*
X113707275Y-67617609D02*
X113666405Y-67633724D01*
X113747142Y-67599586D02*
X113707275Y-67617609D01*
X113785948Y-67579710D02*
X113747142Y-67599586D01*
X113823637Y-67558039D02*
X113785948Y-67579710D01*
X113860153Y-67534629D02*
X113823637Y-67558039D01*
X113895439Y-67509537D02*
X113860153Y-67534629D01*
X113929438Y-67482819D02*
X113895439Y-67509537D01*
X113962095Y-67454532D02*
X113929438Y-67482819D01*
X113993351Y-67424731D02*
X113962095Y-67454532D01*
X114023151Y-67393475D02*
X113993351Y-67424731D01*
X114051439Y-67360819D02*
X114023151Y-67393475D01*
X114078157Y-67326820D02*
X114051439Y-67360819D01*
X114103249Y-67291534D02*
X114078157Y-67326820D01*
X114126659Y-67255018D02*
X114103249Y-67291534D01*
X114148330Y-67217329D02*
X114126659Y-67255018D01*
X114168205Y-67178523D02*
X114148330Y-67217329D01*
X114186228Y-67138656D02*
X114168205Y-67178523D01*
X114202343Y-67097786D02*
X114186228Y-67138656D01*
X114216492Y-67055968D02*
X114202343Y-67097786D01*
X114228620Y-67013259D02*
X114216492Y-67055968D01*
X114238670Y-66969717D02*
X114228620Y-67013259D01*
X114246585Y-66925396D02*
X114238670Y-66969717D01*
X114252308Y-66880355D02*
X114246585Y-66925396D01*
X114255784Y-66834649D02*
X114252308Y-66880355D01*
X114256955Y-66788335D02*
X114255784Y-66834649D01*
X114256955Y-63682325D02*
X114256955Y-66788335D01*
X114255784Y-63636011D02*
X114256955Y-63682325D01*
X114252308Y-63590305D02*
X114255784Y-63636011D01*
X114246585Y-63545264D02*
X114252308Y-63590305D01*
X114238670Y-63500943D02*
X114246585Y-63545264D01*
X114228620Y-63457401D02*
X114238670Y-63500943D01*
X114216492Y-63414692D02*
X114228620Y-63457401D01*
X114202343Y-63372875D02*
X114216492Y-63414692D01*
X114186228Y-63332004D02*
X114202343Y-63372875D01*
X114168204Y-63292137D02*
X114186228Y-63332004D01*
X114148329Y-63253331D02*
X114168204Y-63292137D01*
X114126658Y-63215642D02*
X114148329Y-63253331D01*
X114103248Y-63179126D02*
X114126658Y-63215642D01*
X114078156Y-63143840D02*
X114103248Y-63179126D01*
X114051437Y-63109841D02*
X114078156Y-63143840D01*
X114023150Y-63077185D02*
X114051437Y-63109841D01*
X113993350Y-63045929D02*
X114023150Y-63077185D01*
X113962093Y-63016128D02*
X113993350Y-63045929D01*
X113929437Y-62987841D02*
X113962093Y-63016128D01*
X113895437Y-62961123D02*
X113929437Y-62987841D01*
X113860152Y-62936031D02*
X113895437Y-62961123D01*
X113823636Y-62912621D02*
X113860152Y-62936031D01*
X113785946Y-62890950D02*
X113823636Y-62912621D01*
X113747140Y-62871074D02*
X113785946Y-62890950D01*
X113707273Y-62853051D02*
X113747140Y-62871074D01*
X113666403Y-62836936D02*
X113707273Y-62853051D01*
X113624585Y-62822787D02*
X113666403Y-62836936D01*
X113581877Y-62810659D02*
X113624585Y-62822787D01*
X113538334Y-62800609D02*
X113581877Y-62810659D01*
X113494014Y-62792695D02*
X113538334Y-62800609D01*
X113448973Y-62786971D02*
X113494014Y-62792695D01*
X113403267Y-62783496D02*
X113448973Y-62786971D01*
X113356953Y-62782325D02*
X113403267Y-62783496D01*
X80016941Y-62782325D02*
X113356953Y-62782325D01*
X79970627Y-62783496D02*
X80016941Y-62782325D01*
X79924921Y-62786971D02*
X79970627Y-62783496D01*
X79879880Y-62792695D02*
X79924921Y-62786971D01*
X79835559Y-62800610D02*
X79879880Y-62792695D01*
X79792017Y-62810659D02*
X79835559Y-62800610D01*
X79749308Y-62822787D02*
X79792017Y-62810659D01*
X79707491Y-62836936D02*
X79749308Y-62822787D01*
X79666620Y-62853051D02*
X79707491Y-62836936D01*
X79626754Y-62871074D02*
X79666620Y-62853051D01*
X79587947Y-62890950D02*
X79626754Y-62871074D01*
X79550258Y-62912621D02*
X79587947Y-62890950D01*
X79513742Y-62936031D02*
X79550258Y-62912621D01*
X79478456Y-62961123D02*
X79513742Y-62936031D01*
X79444457Y-62987841D02*
X79478456Y-62961123D01*
X79411801Y-63016128D02*
X79444457Y-62987841D01*
X79380545Y-63045929D02*
X79411801Y-63016128D01*
X79350745Y-63077185D02*
X79380545Y-63045929D01*
X79322457Y-63109841D02*
X79350745Y-63077185D01*
X79295739Y-63143840D02*
X79322457Y-63109841D01*
X79270647Y-63179126D02*
X79295739Y-63143840D01*
X79247237Y-63215642D02*
X79270647Y-63179126D01*
X79225566Y-63253331D02*
X79247237Y-63215642D01*
X79205691Y-63292138D02*
X79225566Y-63253331D01*
X79187667Y-63332004D02*
X79205691Y-63292138D01*
X79171553Y-63372875D02*
X79187667Y-63332004D01*
X79157403Y-63414692D02*
X79171553Y-63372875D01*
X79145275Y-63457401D02*
X79157403Y-63414692D01*
X79135226Y-63500943D02*
X79145275Y-63457401D01*
X79127311Y-63545264D02*
X79135226Y-63500943D01*
X79121588Y-63590305D02*
X79127311Y-63545264D01*
X79118112Y-63636011D02*
X79121588Y-63590305D01*
X79116941Y-63682325D02*
X79118112Y-63636011D01*
X79116941Y-66788354D02*
X79116941Y-63682325D01*
X79118112Y-66834668D02*
X79116941Y-66788354D01*
X79121588Y-66880374D02*
X79118112Y-66834668D01*
X79127311Y-66925415D02*
X79121588Y-66880374D01*
X79135226Y-66969736D02*
X79127311Y-66925415D01*
X79145275Y-67013278D02*
X79135226Y-66969736D01*
X79157403Y-67055987D02*
X79145275Y-67013278D01*
X79171553Y-67097805D02*
X79157403Y-67055987D01*
X79187667Y-67138675D02*
X79171553Y-67097805D01*
X79205691Y-67178542D02*
X79187667Y-67138675D01*
X79225566Y-67217348D02*
X79205691Y-67178542D01*
X79247237Y-67255037D02*
X79225566Y-67217348D01*
X79270647Y-67291553D02*
X79247237Y-67255037D01*
X79295739Y-67326839D02*
X79270647Y-67291553D01*
X79322457Y-67360838D02*
X79295739Y-67326839D01*
X79350745Y-67393494D02*
X79322457Y-67360838D01*
X79380545Y-67424751D02*
X79350745Y-67393494D01*
X79411801Y-67454551D02*
X79380545Y-67424751D01*
X79444457Y-67482838D02*
X79411801Y-67454551D01*
X79478456Y-67509556D02*
X79444457Y-67482838D01*
X79513742Y-67534649D02*
X79478456Y-67509556D01*
X79550258Y-67558058D02*
X79513742Y-67534649D01*
X79587947Y-67579729D02*
X79550258Y-67558058D01*
X79626754Y-67599605D02*
X79587947Y-67579729D01*
X79666620Y-67617628D02*
X79626754Y-67599605D01*
X79707491Y-67633743D02*
X79666620Y-67617628D01*
X79749308Y-67647892D02*
X79707491Y-67633743D01*
X79792017Y-67660020D02*
X79749308Y-67647892D01*
X79835559Y-67670070D02*
X79792017Y-67660020D01*
X79879880Y-67677984D02*
X79835559Y-67670070D01*
X79924921Y-67683708D02*
X79879880Y-67677984D01*
X79970627Y-67687183D02*
X79924921Y-67683708D01*
X80016941Y-67688354D02*
X79970627Y-67687183D01*
X94698990Y-67688354D02*
X80016941Y-67688354D01*
X94750538Y-67689952D02*
X94698990Y-67688354D01*
X94801526Y-67694652D02*
X94750538Y-67689952D01*
X94851802Y-67702314D02*
X94801526Y-67694652D01*
X94901215Y-67712798D02*
X94851802Y-67702314D01*
X94949614Y-67725962D02*
X94901215Y-67712798D01*
X94996847Y-67741667D02*
X94949614Y-67725962D01*
X95042762Y-67759771D02*
X94996847Y-67741667D01*
X95087208Y-67780136D02*
X95042762Y-67759771D01*
X95130034Y-67802619D02*
X95087208Y-67780136D01*
X95171088Y-67827082D02*
X95130034Y-67802619D01*
X95210218Y-67853382D02*
X95171088Y-67827082D01*
X95247274Y-67881381D02*
X95210218Y-67853382D01*
X95282102Y-67910936D02*
X95247274Y-67881381D01*
X95314553Y-67941909D02*
X95282102Y-67910936D01*
X95344474Y-67974159D02*
X95314553Y-67941909D01*
X95371715Y-68007544D02*
X95344474Y-67974159D01*
X95396122Y-68041926D02*
X95371715Y-68007544D01*
X95417546Y-68077162D02*
X95396122Y-68041926D01*
X95435834Y-68113114D02*
X95417546Y-68077162D01*
X95450835Y-68149639D02*
X95435834Y-68113114D01*
X95462397Y-68186599D02*
X95450835Y-68149639D01*
X95470370Y-68223852D02*
X95462397Y-68186599D01*
X95474601Y-68261259D02*
X95470370Y-68223852D01*
X95474938Y-68298678D02*
X95474601Y-68261259D01*
X95471232Y-68335969D02*
X95474938Y-68298678D01*
X95463329Y-68372992D02*
X95471232Y-68335969D01*
X95451078Y-68409606D02*
X95463329Y-68372992D01*
X95434329Y-68445672D02*
X95451078Y-68409606D01*
X95412929Y-68481047D02*
X95434329Y-68445672D01*
X95386726Y-68515593D02*
X95412929Y-68481047D01*
X95355571Y-68549168D02*
X95386726Y-68515593D01*
X95319310Y-68581633D02*
X95355571Y-68549168D01*
X95291534Y-68603426D02*
X95319310Y-68581633D01*
X95262435Y-68624286D02*
X95291534Y-68603426D01*
X95231984Y-68644148D02*
X95262435Y-68624286D01*
X95200148Y-68662946D02*
X95231984Y-68644148D01*
X95166898Y-68680614D02*
X95200148Y-68662946D01*
X95132203Y-68697089D02*
X95166898Y-68680614D01*
X95096032Y-68712304D02*
X95132203Y-68697089D01*
X95058353Y-68726194D02*
X95096032Y-68712304D01*
X95019137Y-68738694D02*
X95058353Y-68726194D01*
X94978353Y-68749740D02*
X95019137Y-68738694D01*
X94935969Y-68759265D02*
X94978353Y-68749740D01*
X94891956Y-68767204D02*
X94935969Y-68759265D01*
X94846282Y-68773493D02*
X94891956Y-68767204D01*
X94798917Y-68778065D02*
X94846282Y-68773493D01*
X94749830Y-68780857D02*
X94798917Y-68778065D01*
X94698990Y-68781802D02*
X94749830Y-68780857D01*
X77877800Y-68781800D02*
X94698990Y-68781802D01*
X77800611Y-68783751D02*
X77877800Y-68781800D01*
X77724434Y-68789544D02*
X77800611Y-68783751D01*
X77649365Y-68799083D02*
X77724434Y-68789544D01*
X77575498Y-68812274D02*
X77649365Y-68799083D01*
X77502927Y-68829024D02*
X77575498Y-68812274D01*
X77431746Y-68849237D02*
X77502927Y-68829024D01*
X77362050Y-68872819D02*
X77431746Y-68849237D01*
X77293933Y-68899677D02*
X77362050Y-68872819D01*
X77227488Y-68929716D02*
X77293933Y-68899677D01*
X77162811Y-68962842D02*
X77227488Y-68929716D01*
X77099996Y-68998960D02*
X77162811Y-68962842D01*
X77039136Y-69037976D02*
X77099996Y-68998960D01*
X76980326Y-69079797D02*
X77039136Y-69037976D01*
X76923661Y-69124327D02*
X76980326Y-69079797D01*
X76869234Y-69171472D02*
X76923661Y-69124327D01*
X76817140Y-69221139D02*
X76869234Y-69171472D01*
X76767473Y-69273233D02*
X76817140Y-69221139D01*
X76720327Y-69327660D02*
X76767473Y-69273233D01*
X76675797Y-69384326D02*
X76720327Y-69327660D01*
X76633977Y-69443135D02*
X76675797Y-69384326D01*
X76594960Y-69503995D02*
X76633977Y-69443135D01*
X76558842Y-69566811D02*
X76594960Y-69503995D01*
X76525717Y-69631488D02*
X76558842Y-69566811D01*
X76495678Y-69697932D02*
X76525717Y-69631488D01*
X76468820Y-69766049D02*
X76495678Y-69697932D01*
X76445237Y-69835746D02*
X76468820Y-69766049D01*
X76425024Y-69906926D02*
X76445237Y-69835746D01*
X76408275Y-69979497D02*
X76425024Y-69906926D01*
X76395084Y-70053364D02*
X76408275Y-69979497D01*
X76385545Y-70128433D02*
X76395084Y-70053364D01*
X76379752Y-70204610D02*
X76385545Y-70128433D01*
X76377800Y-70281800D02*
X76379752Y-70204610D01*
X76377801Y-124431797D02*
X76377800Y-70281800D01*
X76379753Y-124508987D02*
X76377801Y-124431797D01*
X76385546Y-124585164D02*
X76379753Y-124508987D01*
X76395085Y-124660233D02*
X76385546Y-124585164D01*
X76408276Y-124734101D02*
X76395085Y-124660233D01*
X76425025Y-124806672D02*
X76408276Y-124734101D01*
X76445238Y-124877853D02*
X76425025Y-124806672D01*
X76468821Y-124947549D02*
X76445238Y-124877853D01*
X76495679Y-125015666D02*
X76468821Y-124947549D01*
X76525718Y-125082111D02*
X76495679Y-125015666D01*
X76558843Y-125146788D02*
X76525718Y-125082111D01*
X76594961Y-125209603D02*
X76558843Y-125146788D01*
X76633978Y-125270463D02*
X76594961Y-125209603D01*
X76675798Y-125329273D02*
X76633978Y-125270463D01*
X76720328Y-125385938D02*
X76675798Y-125329273D01*
X76767474Y-125440365D02*
X76720328Y-125385938D01*
X76817141Y-125492459D02*
X76767474Y-125440365D01*
X76869235Y-125542126D02*
X76817141Y-125492459D01*
X76923662Y-125589271D02*
X76869235Y-125542126D01*
X76980327Y-125633801D02*
X76923662Y-125589271D01*
X77039137Y-125675622D02*
X76980327Y-125633801D01*
X77099997Y-125714638D02*
X77039137Y-125675622D01*
X77162812Y-125750756D02*
X77099997Y-125714638D01*
X77227489Y-125783882D02*
X77162812Y-125750756D01*
X77293934Y-125813920D02*
X77227489Y-125783882D01*
X77362051Y-125840778D02*
X77293934Y-125813920D01*
X77431747Y-125864361D02*
X77362051Y-125840778D01*
X77502928Y-125884574D02*
X77431747Y-125864361D01*
X77575499Y-125901323D02*
X77502928Y-125884574D01*
X77649366Y-125914514D02*
X77575499Y-125901323D01*
X77724435Y-125924053D02*
X77649366Y-125914514D01*
X77800612Y-125929846D02*
X77724435Y-125924053D01*
X77877801Y-125931797D02*
X77800612Y-125929846D01*
X94698990Y-125931797D02*
X77877801Y-125931797D01*
X94749811Y-125932742D02*
X94698990Y-125931797D01*
X94798880Y-125935531D02*
X94749811Y-125932742D01*
X94846228Y-125940100D02*
X94798880Y-125935531D01*
X94891887Y-125946383D02*
X94846228Y-125940100D01*
X94935885Y-125954317D02*
X94891887Y-125946383D01*
X94978256Y-125963834D02*
X94935885Y-125954317D01*
X95019028Y-125974871D02*
X94978256Y-125963834D01*
X95058233Y-125987362D02*
X95019028Y-125974871D01*
X95095902Y-126001242D02*
X95058233Y-125987362D01*
X95132065Y-126016446D02*
X95095902Y-126001242D01*
X95166752Y-126032909D02*
X95132065Y-126016446D01*
X95199996Y-126050566D02*
X95166752Y-126032909D01*
X95231826Y-126069351D02*
X95199996Y-126050566D01*
X95262272Y-126089199D02*
X95231826Y-126069351D01*
X95291367Y-126110045D02*
X95262272Y-126089199D01*
X95319140Y-126131825D02*
X95291367Y-126110045D01*
X95355417Y-126164286D02*
X95319140Y-126131825D01*
X95386587Y-126197859D02*
X95355417Y-126164286D01*
X95412803Y-126232404D02*
X95386587Y-126197859D01*
X95434216Y-126267780D02*
X95412803Y-126232404D01*
X95450977Y-126303846D02*
X95434216Y-126267780D01*
X95463239Y-126340462D02*
X95450977Y-126303846D01*
X95471152Y-126377488D02*
X95463239Y-126340462D01*
X95474868Y-126414783D02*
X95471152Y-126377488D01*
X95474538Y-126452207D02*
X95474868Y-126414783D01*
X95470315Y-126489618D02*
X95474538Y-126452207D01*
X95462350Y-126526877D02*
X95470315Y-126489618D01*
X95450794Y-126563843D02*
X95462350Y-126526877D01*
X95435798Y-126600375D02*
X95450794Y-126563843D01*
X95417515Y-126636334D02*
X95435798Y-126600375D01*
X95396096Y-126671578D02*
X95417515Y-126636334D01*
X95371693Y-126705966D02*
X95396096Y-126671578D01*
X95344456Y-126739360D02*
X95371693Y-126705966D01*
X95314538Y-126771617D02*
X95344456Y-126739360D01*
X95282090Y-126802597D02*
X95314538Y-126771617D01*
X95247263Y-126832161D02*
X95282090Y-126802597D01*
X95210210Y-126860166D02*
X95247263Y-126832161D01*
X95171081Y-126886474D02*
X95210210Y-126860166D01*
X95130029Y-126910943D02*
X95171081Y-126886474D01*
X95087204Y-126933433D02*
X95130029Y-126910943D01*
X95042759Y-126953803D02*
X95087204Y-126933433D01*
X94996844Y-126971913D02*
X95042759Y-126953803D01*
X94949612Y-126987623D02*
X94996844Y-126971913D01*
X94901213Y-127000791D02*
X94949612Y-126987623D01*
X94851801Y-127011278D02*
X94901213Y-127000791D01*
X94801525Y-127018942D02*
X94851801Y-127011278D01*
X94750538Y-127023644D02*
X94801525Y-127018942D01*
X94698990Y-127025242D02*
X94750538Y-127023644D01*
X80016942Y-127025242D02*
X94698990Y-127025242D01*
X79970628Y-127026413D02*
X80016942Y-127025242D01*
X79924922Y-127029889D02*
X79970628Y-127026413D01*
X79879880Y-127035612D02*
X79924922Y-127029889D01*
X79835560Y-127043527D02*
X79879880Y-127035612D01*
X79792018Y-127053577D02*
X79835560Y-127043527D01*
X79749309Y-127065705D02*
X79792018Y-127053577D01*
X79707491Y-127079854D02*
X79749309Y-127065705D01*
X79666621Y-127095969D02*
X79707491Y-127079854D01*
X79626754Y-127113993D02*
X79666621Y-127095969D01*
X79587948Y-127133868D02*
X79626754Y-127113993D01*
X79550259Y-127155539D02*
X79587948Y-127133868D01*
X79513743Y-127178949D02*
X79550259Y-127155539D01*
X79478457Y-127204041D02*
X79513743Y-127178949D01*
X79444458Y-127230759D02*
X79478457Y-127204041D01*
X79411802Y-127259047D02*
X79444458Y-127230759D01*
X79380546Y-127288847D02*
X79411802Y-127259047D01*
X79350746Y-127320104D02*
X79380546Y-127288847D01*
X79322458Y-127352760D02*
X79350746Y-127320104D01*
X79295740Y-127386759D02*
X79322458Y-127352760D01*
X79270648Y-127422045D02*
X79295740Y-127386759D01*
X79247238Y-127458561D02*
X79270648Y-127422045D01*
X79225567Y-127496251D02*
X79247238Y-127458561D01*
X79205692Y-127535057D02*
X79225567Y-127496251D01*
X79187668Y-127574923D02*
X79205692Y-127535057D01*
X79171554Y-127615794D02*
X79187668Y-127574923D01*
X79157404Y-127657612D02*
X79171554Y-127615794D01*
X79145276Y-127700320D02*
X79157404Y-127657612D01*
X79135227Y-127743863D02*
X79145276Y-127700320D01*
X79127312Y-127788183D02*
X79135227Y-127743863D01*
X79121588Y-127833224D02*
X79127312Y-127788183D01*
X79118113Y-127878930D02*
X79121588Y-127833224D01*
X79116942Y-127925244D02*
X79118113Y-127878930D01*
X79116942Y-131031254D02*
X79116942Y-127925244D01*
X79118113Y-131077568D02*
X79116942Y-131031254D01*
X79121588Y-131123274D02*
X79118113Y-131077568D01*
X79127312Y-131168315D02*
X79121588Y-131123274D01*
X79135227Y-131212635D02*
X79127312Y-131168315D01*
X79145276Y-131256178D02*
X79135227Y-131212635D01*
X79157404Y-131298886D02*
X79145276Y-131256178D01*
X79171554Y-131340704D02*
X79157404Y-131298886D01*
X79187668Y-131381575D02*
X79171554Y-131340704D01*
X79205692Y-131421441D02*
X79187668Y-131381575D01*
X79225567Y-131460247D02*
X79205692Y-131421441D01*
X79247238Y-131497937D02*
X79225567Y-131460247D01*
X79270648Y-131534453D02*
X79247238Y-131497937D01*
X79295740Y-131569739D02*
X79270648Y-131534453D01*
X79322458Y-131603738D02*
X79295740Y-131569739D01*
X79350746Y-131636394D02*
X79322458Y-131603738D01*
X79380546Y-131667651D02*
X79350746Y-131636394D01*
X79411802Y-131697451D02*
X79380546Y-131667651D01*
X79444458Y-131725738D02*
X79411802Y-131697451D01*
X79478457Y-131752457D02*
X79444458Y-131725738D01*
X79513743Y-131777549D02*
X79478457Y-131752457D01*
X79550259Y-131800959D02*
X79513743Y-131777549D01*
X79587948Y-131822630D02*
X79550259Y-131800959D01*
X79626754Y-131842505D02*
X79587948Y-131822630D01*
X79666621Y-131860529D02*
X79626754Y-131842505D01*
X79707491Y-131876644D02*
X79666621Y-131860529D01*
X79749309Y-131890793D02*
X79707491Y-131876644D01*
X79792018Y-131902921D02*
X79749309Y-131890793D01*
X79835560Y-131912971D02*
X79792018Y-131902921D01*
X79879880Y-131920886D02*
X79835560Y-131912971D01*
X79924922Y-131926609D02*
X79879880Y-131920886D01*
X79970628Y-131930085D02*
X79924922Y-131926609D01*
X80016942Y-131931256D02*
X79970628Y-131930085D01*
X113356953Y-131931256D02*
X80016942Y-131931256D01*
X113403267Y-131930085D02*
X113356953Y-131931256D01*
X113448973Y-131926609D02*
X113403267Y-131930085D01*
X113494015Y-131920886D02*
X113448973Y-131926609D01*
X113538335Y-131912971D02*
X113494015Y-131920886D01*
X113581878Y-131902921D02*
X113538335Y-131912971D01*
X113624587Y-131890793D02*
X113581878Y-131902921D01*
X113666405Y-131876644D02*
X113624587Y-131890793D01*
X113707275Y-131860529D02*
X113666405Y-131876644D01*
X113747142Y-131842505D02*
X113707275Y-131860529D01*
X113785948Y-131822630D02*
X113747142Y-131842505D01*
X113823637Y-131800959D02*
X113785948Y-131822630D01*
X113860153Y-131777549D02*
X113823637Y-131800959D01*
X113895439Y-131752457D02*
X113860153Y-131777549D01*
X113929438Y-131725738D02*
X113895439Y-131752457D01*
X113962095Y-131697451D02*
X113929438Y-131725738D01*
X113993351Y-131667651D02*
X113962095Y-131697451D01*
X114023151Y-131636394D02*
X113993351Y-131667651D01*
X114051439Y-131603738D02*
X114023151Y-131636394D01*
X114078157Y-131569739D02*
X114051439Y-131603738D01*
X114103249Y-131534453D02*
X114078157Y-131569739D01*
X114126659Y-131497937D02*
X114103249Y-131534453D01*
X114148330Y-131460247D02*
X114126659Y-131497937D01*
X114168205Y-131421441D02*
X114148330Y-131460247D01*
X114186228Y-131381575D02*
X114168205Y-131421441D01*
X114202343Y-131340704D02*
X114186228Y-131381575D01*
X114216492Y-131298886D02*
X114202343Y-131340704D01*
X114228620Y-131256178D02*
X114216492Y-131298886D01*
X114238670Y-131212635D02*
X114228620Y-131256178D01*
X114246585Y-131168315D02*
X114238670Y-131212635D01*
X114252308Y-131123274D02*
X114246585Y-131168315D01*
X114255784Y-131077568D02*
X114252308Y-131123274D01*
X114256955Y-131031254D02*
X114255784Y-131077568D01*
X114256955Y-127925244D02*
X114256955Y-131031254D01*
X114255784Y-127878930D02*
X114256955Y-127925244D01*
X114252308Y-127833224D02*
X114255784Y-127878930D01*
X114246585Y-127788183D02*
X114252308Y-127833224D01*
X114238670Y-127743863D02*
X114246585Y-127788183D01*
X114228620Y-127700320D02*
X114238670Y-127743863D01*
X114216492Y-127657612D02*
X114228620Y-127700320D01*
X114202343Y-127615794D02*
X114216492Y-127657612D01*
X114186228Y-127574923D02*
X114202343Y-127615794D01*
X114168204Y-127535057D02*
X114186228Y-127574923D01*
X114148329Y-127496251D02*
X114168204Y-127535057D01*
X114126658Y-127458561D02*
X114148329Y-127496251D01*
X114103248Y-127422045D02*
X114126658Y-127458561D01*
X114078156Y-127386759D02*
X114103248Y-127422045D01*
X114051437Y-127352760D02*
X114078156Y-127386759D01*
X114023150Y-127320104D02*
X114051437Y-127352760D01*
X113993350Y-127288847D02*
X114023150Y-127320104D01*
X113962093Y-127259047D02*
X113993350Y-127288847D01*
X113929437Y-127230759D02*
X113962093Y-127259047D01*
X113895437Y-127204041D02*
X113929437Y-127230759D01*
X113860152Y-127178949D02*
X113895437Y-127204041D01*
X113823636Y-127155539D02*
X113860152Y-127178949D01*
X113785946Y-127133868D02*
X113823636Y-127155539D01*
X113747140Y-127113993D02*
X113785946Y-127133868D01*
X113707273Y-127095969D02*
X113747140Y-127113993D01*
X113666403Y-127079854D02*
X113707273Y-127095969D01*
X113624585Y-127065705D02*
X113666403Y-127079854D01*
X113581877Y-127053577D02*
X113624585Y-127065705D01*
X113538334Y-127043527D02*
X113581877Y-127053577D01*
X113494014Y-127035612D02*
X113538334Y-127043527D01*
X113448973Y-127029889D02*
X113494014Y-127035612D01*
X113403267Y-127026413D02*
X113448973Y-127029889D01*
X113356953Y-127025242D02*
X113403267Y-127026413D01*
X98674904Y-127025242D02*
X113356953Y-127025242D01*
X98623357Y-127023644D02*
X98674904Y-127025242D01*
X98572369Y-127018944D02*
X98623357Y-127023644D01*
X98522093Y-127011282D02*
X98572369Y-127018944D01*
X98472679Y-127000799D02*
X98522093Y-127011282D01*
X98424281Y-126987635D02*
X98472679Y-127000799D01*
X98377048Y-126971930D02*
X98424281Y-126987635D01*
X98331132Y-126953825D02*
X98377048Y-126971930D01*
X98286686Y-126933461D02*
X98331132Y-126953825D01*
X98243860Y-126910977D02*
X98286686Y-126933461D01*
X98202807Y-126886515D02*
X98243860Y-126910977D01*
X98163676Y-126860215D02*
X98202807Y-126886515D01*
X98126621Y-126832216D02*
X98163676Y-126860215D01*
X98091792Y-126802660D02*
X98126621Y-126832216D01*
X98059341Y-126771687D02*
X98091792Y-126802660D01*
X98029420Y-126739438D02*
X98059341Y-126771687D01*
X98002180Y-126706052D02*
X98029420Y-126739438D01*
X97977772Y-126671671D02*
X98002180Y-126706052D01*
X97956349Y-126636434D02*
X97977772Y-126671671D01*
X97938061Y-126600483D02*
X97956349Y-126636434D01*
X97923060Y-126563957D02*
X97938061Y-126600483D01*
X97911497Y-126526997D02*
X97923060Y-126563957D01*
X97903525Y-126489744D02*
X97911497Y-126526997D01*
X97899294Y-126452338D02*
X97903525Y-126489744D01*
X97898956Y-126414918D02*
X97899294Y-126452338D01*
X97902663Y-126377627D02*
X97898956Y-126414918D01*
X97910566Y-126340604D02*
X97902663Y-126377627D01*
X97922816Y-126303990D02*
X97910566Y-126340604D01*
X97939566Y-126267924D02*
X97922816Y-126303990D01*
X97960966Y-126232548D02*
X97939566Y-126267924D01*
X97987168Y-126198002D02*
X97960966Y-126232548D01*
X98018324Y-126164427D02*
X97987168Y-126198002D01*
X98054585Y-126131962D02*
X98018324Y-126164427D01*
X98082361Y-126110167D02*
X98054585Y-126131962D01*
X98111459Y-126089306D02*
X98082361Y-126110167D01*
X98141911Y-126069443D02*
X98111459Y-126089306D01*
X98173746Y-126050645D02*
X98141911Y-126069443D01*
X98206996Y-126032976D02*
X98173746Y-126050645D01*
X98241692Y-126016501D02*
X98206996Y-126032976D01*
X98277863Y-126001286D02*
X98241692Y-126016501D01*
X98315541Y-125987396D02*
X98277863Y-126001286D01*
X98354757Y-125974895D02*
X98315541Y-125987396D01*
X98395542Y-125963850D02*
X98354757Y-125974895D01*
X98437925Y-125954326D02*
X98395542Y-125963850D01*
X98481938Y-125946387D02*
X98437925Y-125954326D01*
X98527612Y-125940098D02*
X98481938Y-125946387D01*
X98574977Y-125935526D02*
X98527612Y-125940098D01*
X98624064Y-125932735D02*
X98574977Y-125935526D01*
X98674904Y-125931790D02*
X98624064Y-125932735D01*
X150590989Y-125931790D02*
X98674904Y-125931790D01*
X150641809Y-125932734D02*
X150590989Y-125931790D01*
X150690877Y-125935523D02*
X150641809Y-125932734D01*
X150738225Y-125940092D02*
X150690877Y-125935523D01*
X150783883Y-125946376D02*
X150738225Y-125940092D01*
X150827882Y-125954309D02*
X150783883Y-125946376D01*
X150870252Y-125963827D02*
X150827882Y-125954309D01*
X150911024Y-125974864D02*
X150870252Y-125963827D01*
X150950229Y-125987355D02*
X150911024Y-125974864D01*
X150987898Y-126001235D02*
X150950229Y-125987355D01*
X151024061Y-126016439D02*
X150987898Y-126001235D01*
X151058749Y-126032902D02*
X151024061Y-126016439D01*
X151091992Y-126050558D02*
X151058749Y-126032902D01*
X151123822Y-126069343D02*
X151091992Y-126050558D01*
X151154269Y-126089191D02*
X151123822Y-126069343D01*
X151183363Y-126110038D02*
X151154269Y-126089191D01*
X151211136Y-126131817D02*
X151183363Y-126110038D01*
X151247413Y-126164278D02*
X151211136Y-126131817D01*
X151278584Y-126197851D02*
X151247413Y-126164278D01*
X151304800Y-126232396D02*
X151278584Y-126197851D01*
X151326213Y-126267772D02*
X151304800Y-126232396D01*
X151342975Y-126303838D02*
X151326213Y-126267772D01*
X151355237Y-126340455D02*
X151342975Y-126303838D01*
X151363150Y-126377481D02*
X151355237Y-126340455D01*
X151366866Y-126414776D02*
X151363150Y-126377481D01*
X151366537Y-126452199D02*
X151366866Y-126414776D01*
X151362314Y-126489611D02*
X151366537Y-126452199D01*
X151354348Y-126526869D02*
X151362314Y-126489611D01*
X151342792Y-126563835D02*
X151354348Y-126526869D01*
X151327797Y-126600368D02*
X151342792Y-126563835D01*
X151309514Y-126636326D02*
X151327797Y-126600368D01*
X151288095Y-126671570D02*
X151309514Y-126636326D01*
X151263691Y-126705959D02*
X151288095Y-126671570D01*
X151236455Y-126739352D02*
X151263691Y-126705959D01*
X151206537Y-126771609D02*
X151236455Y-126739352D01*
X151174088Y-126802590D02*
X151206537Y-126771609D01*
X151139262Y-126832153D02*
X151174088Y-126802590D01*
X151102208Y-126860159D02*
X151139262Y-126832153D01*
X151063080Y-126886466D02*
X151102208Y-126860159D01*
X151022027Y-126910936D02*
X151063080Y-126886466D01*
X150979202Y-126933425D02*
X151022027Y-126910936D01*
X150934757Y-126953796D02*
X150979202Y-126933425D01*
X150888842Y-126971906D02*
X150934757Y-126953796D01*
X150841610Y-126987615D02*
X150888842Y-126971906D01*
X150793212Y-127000784D02*
X150841610Y-126987615D01*
X150743799Y-127011270D02*
X150793212Y-127000784D01*
X150693523Y-127018934D02*
X150743799Y-127011270D01*
X150642536Y-127023636D02*
X150693523Y-127018934D01*
X150590989Y-127025235D02*
X150642536Y-127023636D01*
X135908944Y-127025235D02*
X150590989Y-127025235D01*
X135862630Y-127026406D02*
X135908944Y-127025235D01*
X135816924Y-127029881D02*
X135862630Y-127026406D01*
X135771883Y-127035605D02*
X135816924Y-127029881D01*
X135727563Y-127043520D02*
X135771883Y-127035605D01*
X135684020Y-127053569D02*
X135727563Y-127043520D01*
X135641311Y-127065697D02*
X135684020Y-127053569D01*
X135599494Y-127079847D02*
X135641311Y-127065697D01*
X135558623Y-127095961D02*
X135599494Y-127079847D01*
X135518757Y-127113985D02*
X135558623Y-127095961D01*
X135479950Y-127133860D02*
X135518757Y-127113985D01*
X135442261Y-127155531D02*
X135479950Y-127133860D01*
X135405745Y-127178941D02*
X135442261Y-127155531D01*
X135370459Y-127204034D02*
X135405745Y-127178941D01*
X135336460Y-127230752D02*
X135370459Y-127204034D01*
X135303804Y-127259039D02*
X135336460Y-127230752D01*
X135272547Y-127288840D02*
X135303804Y-127259039D01*
X135242747Y-127320096D02*
X135272547Y-127288840D01*
X135214459Y-127352752D02*
X135242747Y-127320096D01*
X135187741Y-127386752D02*
X135214459Y-127352752D01*
X135162649Y-127422038D02*
X135187741Y-127386752D01*
X135139239Y-127458554D02*
X135162649Y-127422038D01*
X135117568Y-127496243D02*
X135139239Y-127458554D01*
X135097692Y-127535049D02*
X135117568Y-127496243D01*
X135079669Y-127574916D02*
X135097692Y-127535049D01*
X135063554Y-127615786D02*
X135079669Y-127574916D01*
X135049405Y-127657604D02*
X135063554Y-127615786D01*
X135037277Y-127700312D02*
X135049405Y-127657604D01*
X135027227Y-127743855D02*
X135037277Y-127700312D01*
X135019312Y-127788175D02*
X135027227Y-127743855D01*
X135013589Y-127833217D02*
X135019312Y-127788175D01*
X135010113Y-127878922D02*
X135013589Y-127833217D01*
X135008942Y-127925236D02*
X135010113Y-127878922D01*
X135008942Y-131031247D02*
X135008942Y-127925236D01*
X135010113Y-131077560D02*
X135008942Y-131031247D01*
X135013589Y-131123266D02*
X135010113Y-131077560D01*
X135019312Y-131168307D02*
X135013589Y-131123266D01*
X135027227Y-131212628D02*
X135019312Y-131168307D01*
X135037277Y-131256170D02*
X135027227Y-131212628D01*
X135049405Y-131298879D02*
X135037277Y-131256170D01*
X135063554Y-131340696D02*
X135049405Y-131298879D01*
X135079669Y-131381567D02*
X135063554Y-131340696D01*
X135097692Y-131421434D02*
X135079669Y-131381567D01*
X135117568Y-131460240D02*
X135097692Y-131421434D01*
X135139239Y-131497929D02*
X135117568Y-131460240D01*
X135162649Y-131534445D02*
X135139239Y-131497929D01*
X135187741Y-131569731D02*
X135162649Y-131534445D01*
X135214459Y-131603730D02*
X135187741Y-131569731D01*
X135242747Y-131636386D02*
X135214459Y-131603730D01*
X135272547Y-131667643D02*
X135242747Y-131636386D01*
X135303804Y-131697443D02*
X135272547Y-131667643D01*
X135336460Y-131725731D02*
X135303804Y-131697443D01*
X135370459Y-131752449D02*
X135336460Y-131725731D01*
X135405745Y-131777541D02*
X135370459Y-131752449D01*
X135442261Y-131800951D02*
X135405745Y-131777541D01*
X135479950Y-131822622D02*
X135442261Y-131800951D01*
X135518757Y-131842498D02*
X135479950Y-131822622D01*
X135558623Y-131860521D02*
X135518757Y-131842498D01*
X135599494Y-131876636D02*
X135558623Y-131860521D01*
X135641311Y-131890786D02*
X135599494Y-131876636D01*
X135684020Y-131902914D02*
X135641311Y-131890786D01*
X135727563Y-131912963D02*
X135684020Y-131902914D01*
X135771883Y-131920878D02*
X135727563Y-131912963D01*
X135816924Y-131926601D02*
X135771883Y-131920878D01*
X135862630Y-131930077D02*
X135816924Y-131926601D01*
X135908944Y-131931248D02*
X135862630Y-131930077D01*
X169248948Y-131931248D02*
X135908944Y-131931248D01*
X169295261Y-131930077D02*
X169248948Y-131931248D01*
X169340967Y-131926601D02*
X169295261Y-131930077D01*
X169386008Y-131920878D02*
X169340967Y-131926601D01*
X169430329Y-131912963D02*
X169386008Y-131920878D01*
X169473871Y-131902914D02*
X169430329Y-131912963D01*
X169516580Y-131890786D02*
X169473871Y-131902914D01*
X169558397Y-131876636D02*
X169516580Y-131890786D01*
X169599268Y-131860521D02*
X169558397Y-131876636D01*
X169639135Y-131842498D02*
X169599268Y-131860521D01*
X169677941Y-131822622D02*
X169639135Y-131842498D01*
X169715630Y-131800951D02*
X169677941Y-131822622D01*
X169752146Y-131777541D02*
X169715630Y-131800951D01*
X169787432Y-131752449D02*
X169752146Y-131777541D01*
X169821431Y-131725731D02*
X169787432Y-131752449D01*
X169854087Y-131697443D02*
X169821431Y-131725731D01*
X169885344Y-131667643D02*
X169854087Y-131697443D01*
X169915144Y-131636386D02*
X169885344Y-131667643D01*
X169943432Y-131603730D02*
X169915144Y-131636386D01*
X169970150Y-131569731D02*
X169943432Y-131603730D01*
X169995242Y-131534445D02*
X169970150Y-131569731D01*
X170018652Y-131497929D02*
X169995242Y-131534445D01*
X170040323Y-131460240D02*
X170018652Y-131497929D01*
X170060199Y-131421434D02*
X170040323Y-131460240D01*
X170078222Y-131381567D02*
X170060199Y-131421434D01*
X170094337Y-131340696D02*
X170078222Y-131381567D01*
X170108487Y-131298879D02*
X170094337Y-131340696D01*
X170120615Y-131256170D02*
X170108487Y-131298879D01*
X170130664Y-131212628D02*
X170120615Y-131256170D01*
X170138579Y-131168307D02*
X170130664Y-131212628D01*
X170144302Y-131123266D02*
X170138579Y-131168307D01*
X170147778Y-131077560D02*
X170144302Y-131123266D01*
X170148949Y-131031247D02*
X170147778Y-131077560D01*
X170148949Y-127925236D02*
X170148949Y-131031247D01*
X170147778Y-127878922D02*
X170148949Y-127925236D01*
X170144302Y-127833217D02*
X170147778Y-127878922D01*
X170138579Y-127788175D02*
X170144302Y-127833217D01*
X170130664Y-127743855D02*
X170138579Y-127788175D01*
X170120614Y-127700312D02*
X170130664Y-127743855D01*
X170108486Y-127657604D02*
X170120614Y-127700312D01*
X170094336Y-127615786D02*
X170108486Y-127657604D01*
X170078221Y-127574916D02*
X170094336Y-127615786D01*
X170060198Y-127535049D02*
X170078221Y-127574916D01*
X170040322Y-127496243D02*
X170060198Y-127535049D01*
X170018651Y-127458554D02*
X170040322Y-127496243D01*
X169995240Y-127422038D02*
X170018651Y-127458554D01*
X169970148Y-127386752D02*
X169995240Y-127422038D01*
X169943429Y-127352752D02*
X169970148Y-127386752D01*
X169915142Y-127320096D02*
X169943429Y-127352752D01*
X169885341Y-127288840D02*
X169915142Y-127320096D01*
X169854084Y-127259039D02*
X169885341Y-127288840D01*
X169821428Y-127230752D02*
X169854084Y-127259039D01*
X169787429Y-127204034D02*
X169821428Y-127230752D01*
X169752143Y-127178941D02*
X169787429Y-127204034D01*
X169715627Y-127155531D02*
X169752143Y-127178941D01*
X169677937Y-127133860D02*
X169715627Y-127155531D01*
X169639131Y-127113985D02*
X169677937Y-127133860D01*
X169599265Y-127095961D02*
X169639131Y-127113985D01*
X169558394Y-127079847D02*
X169599265Y-127095961D01*
X169516577Y-127065697D02*
X169558394Y-127079847D01*
X169473869Y-127053569D02*
X169516577Y-127065697D01*
X169430327Y-127043520D02*
X169473869Y-127053569D01*
X169386007Y-127035605D02*
X169430327Y-127043520D01*
X169340966Y-127029881D02*
X169386007Y-127035605D01*
X169295261Y-127026406D02*
X169340966Y-127029881D01*
X169248948Y-127025235D02*
X169295261Y-127026406D01*
X154566895Y-127025235D02*
X169248948Y-127025235D01*
X154515348Y-127023637D02*
X154566895Y-127025235D01*
X154464361Y-127018937D02*
X154515348Y-127023637D01*
X154414085Y-127011275D02*
X154464361Y-127018937D01*
X154364672Y-127000791D02*
X154414085Y-127011275D01*
X154316273Y-126987627D02*
X154364672Y-127000791D01*
X154269041Y-126971922D02*
X154316273Y-126987627D01*
X154223126Y-126953818D02*
X154269041Y-126971922D01*
X154178680Y-126933453D02*
X154223126Y-126953818D01*
X154135854Y-126910970D02*
X154178680Y-126933453D01*
X154094800Y-126886508D02*
X154135854Y-126910970D01*
X154055670Y-126860207D02*
X154094800Y-126886508D01*
X154018615Y-126832208D02*
X154055670Y-126860207D01*
X153983786Y-126802653D02*
X154018615Y-126832208D01*
X153951335Y-126771680D02*
X153983786Y-126802653D01*
X153921414Y-126739430D02*
X153951335Y-126771680D01*
X153894174Y-126706045D02*
X153921414Y-126739430D01*
X153869766Y-126671663D02*
X153894174Y-126706045D01*
X153848343Y-126636427D02*
X153869766Y-126671663D01*
X153830055Y-126600475D02*
X153848343Y-126636427D01*
X153815054Y-126563949D02*
X153830055Y-126600475D01*
X153803491Y-126526990D02*
X153815054Y-126563949D01*
X153795519Y-126489736D02*
X153803491Y-126526990D01*
X153791288Y-126452330D02*
X153795519Y-126489736D01*
X153790950Y-126414911D02*
X153791288Y-126452330D01*
X153794657Y-126377620D02*
X153790950Y-126414911D01*
X153802560Y-126340596D02*
X153794657Y-126377620D01*
X153814810Y-126303982D02*
X153802560Y-126340596D01*
X153831560Y-126267917D02*
X153814810Y-126303982D01*
X153852960Y-126232541D02*
X153831560Y-126267917D01*
X153879162Y-126197995D02*
X153852960Y-126232541D01*
X153910318Y-126164419D02*
X153879162Y-126197995D01*
X153946579Y-126131955D02*
X153910318Y-126164419D01*
X153974354Y-126110160D02*
X153946579Y-126131955D01*
X154003452Y-126089298D02*
X153974354Y-126110160D01*
X154033903Y-126069436D02*
X154003452Y-126089298D01*
X154065738Y-126050637D02*
X154033903Y-126069436D01*
X154098988Y-126032968D02*
X154065738Y-126050637D01*
X154133683Y-126016493D02*
X154098988Y-126032968D01*
X154169855Y-126001278D02*
X154133683Y-126016493D01*
X154207533Y-125987388D02*
X154169855Y-126001278D01*
X154246749Y-125974888D02*
X154207533Y-125987388D01*
X154287534Y-125963843D02*
X154246749Y-125974888D01*
X154329917Y-125954318D02*
X154287534Y-125963843D01*
X154373930Y-125946379D02*
X154329917Y-125954318D01*
X154419604Y-125940091D02*
X154373930Y-125946379D01*
X154466969Y-125935518D02*
X154419604Y-125940091D01*
X154516056Y-125932727D02*
X154466969Y-125935518D01*
X154566895Y-125931782D02*
X154516056Y-125932727D01*
X206510972Y-125931767D02*
X154566895Y-125931782D01*
X206561793Y-125932711D02*
X206510972Y-125931767D01*
X206610862Y-125935500D02*
X206561793Y-125932711D01*
X206658211Y-125940069D02*
X206610862Y-125935500D01*
X206703869Y-125946353D02*
X206658211Y-125940069D01*
X206747868Y-125954286D02*
X206703869Y-125946353D01*
X206790238Y-125963804D02*
X206747868Y-125954286D01*
X206831010Y-125974841D02*
X206790238Y-125963804D01*
X206870215Y-125987332D02*
X206831010Y-125974841D01*
X206907883Y-126001212D02*
X206870215Y-125987332D01*
X206944046Y-126016416D02*
X206907883Y-126001212D01*
X206978733Y-126032879D02*
X206944046Y-126016416D01*
X207011976Y-126050535D02*
X206978733Y-126032879D01*
X207043805Y-126069320D02*
X207011976Y-126050535D01*
X207074252Y-126089168D02*
X207043805Y-126069320D01*
X207103346Y-126110015D02*
X207074252Y-126089168D01*
X207131119Y-126131794D02*
X207103346Y-126110015D01*
X207167396Y-126164255D02*
X207131119Y-126131794D01*
X207198566Y-126197829D02*
X207167396Y-126164255D01*
X207224781Y-126232373D02*
X207198566Y-126197829D01*
X207246194Y-126267749D02*
X207224781Y-126232373D01*
X207262955Y-126303815D02*
X207246194Y-126267749D01*
X207275216Y-126340432D02*
X207262955Y-126303815D01*
X207283129Y-126377458D02*
X207275216Y-126340432D01*
X207286844Y-126414753D02*
X207283129Y-126377458D01*
X207286515Y-126452176D02*
X207286844Y-126414753D01*
X207282292Y-126489588D02*
X207286515Y-126452176D01*
X207274326Y-126526847D02*
X207282292Y-126489588D01*
X207262770Y-126563813D02*
X207274326Y-126526847D01*
X207247774Y-126600345D02*
X207262770Y-126563813D01*
X207229491Y-126636303D02*
X207247774Y-126600345D01*
X207208072Y-126671547D02*
X207229491Y-126636303D01*
X207183669Y-126705936D02*
X207208072Y-126671547D01*
X207156432Y-126739329D02*
X207183669Y-126705936D01*
X207126514Y-126771586D02*
X207156432Y-126739329D01*
X207094066Y-126802567D02*
X207126514Y-126771586D01*
X207059239Y-126832130D02*
X207094066Y-126802567D01*
X207022186Y-126860136D02*
X207059239Y-126832130D01*
X206983058Y-126886444D02*
X207022186Y-126860136D01*
X206942006Y-126910913D02*
X206983058Y-126886444D01*
X206899181Y-126933403D02*
X206942006Y-126910913D01*
X206854736Y-126953773D02*
X206899181Y-126933403D01*
X206808822Y-126971883D02*
X206854736Y-126953773D01*
X206761590Y-126987592D02*
X206808822Y-126971883D01*
X206713192Y-127000761D02*
X206761590Y-126987592D01*
X206663780Y-127011247D02*
X206713192Y-127000761D01*
X206613505Y-127018912D02*
X206663780Y-127011247D01*
X206562518Y-127023613D02*
X206613505Y-127018912D01*
X206510972Y-127025212D02*
X206562518Y-127023613D01*
X191828927Y-127025212D02*
X206510972Y-127025212D01*
X191782613Y-127026383D02*
X191828927Y-127025212D01*
X191736907Y-127029858D02*
X191782613Y-127026383D01*
X191691866Y-127035582D02*
X191736907Y-127029858D01*
X191647545Y-127043497D02*
X191691866Y-127035582D01*
X191604003Y-127053546D02*
X191647545Y-127043497D01*
X191561294Y-127065674D02*
X191604003Y-127053546D01*
X191519477Y-127079824D02*
X191561294Y-127065674D01*
X191478606Y-127095939D02*
X191519477Y-127079824D01*
X191438740Y-127113962D02*
X191478606Y-127095939D01*
X191399933Y-127133837D02*
X191438740Y-127113962D01*
X191362244Y-127155508D02*
X191399933Y-127133837D01*
X191325728Y-127178918D02*
X191362244Y-127155508D01*
X191290442Y-127204011D02*
X191325728Y-127178918D01*
X191256443Y-127230729D02*
X191290442Y-127204011D01*
X191223787Y-127259017D02*
X191256443Y-127230729D01*
X191192530Y-127288817D02*
X191223787Y-127259017D01*
X191162730Y-127320073D02*
X191192530Y-127288817D01*
X191134442Y-127352730D02*
X191162730Y-127320073D01*
X191107724Y-127386729D02*
X191134442Y-127352730D01*
X191082632Y-127422015D02*
X191107724Y-127386729D01*
X191059222Y-127458531D02*
X191082632Y-127422015D01*
X191037551Y-127496220D02*
X191059222Y-127458531D01*
X191017675Y-127535026D02*
X191037551Y-127496220D01*
X190999652Y-127574893D02*
X191017675Y-127535026D01*
X190983537Y-127615763D02*
X190999652Y-127574893D01*
X190969387Y-127657581D02*
X190983537Y-127615763D01*
X190957260Y-127700290D02*
X190969387Y-127657581D01*
X190947210Y-127743832D02*
X190957260Y-127700290D01*
X190939295Y-127788152D02*
X190947210Y-127743832D01*
X190933572Y-127833194D02*
X190939295Y-127788152D01*
X190930096Y-127878899D02*
X190933572Y-127833194D01*
X190928925Y-127925213D02*
X190930096Y-127878899D01*
X190928925Y-131031224D02*
X190928925Y-127925213D01*
X190930096Y-131077537D02*
X190928925Y-131031224D01*
X190933572Y-131123243D02*
X190930096Y-131077537D01*
X190939295Y-131168285D02*
X190933572Y-131123243D01*
X190947210Y-131212605D02*
X190939295Y-131168285D01*
X190957260Y-131256147D02*
X190947210Y-131212605D01*
X190969388Y-131298856D02*
X190957260Y-131256147D01*
X190983538Y-131340674D02*
X190969388Y-131298856D01*
X190999653Y-131381544D02*
X190983538Y-131340674D01*
X191017677Y-131421411D02*
X190999653Y-131381544D01*
X191037552Y-131460217D02*
X191017677Y-131421411D01*
X191059224Y-131497906D02*
X191037552Y-131460217D01*
X191082634Y-131534422D02*
X191059224Y-131497906D01*
X191107726Y-131569708D02*
X191082634Y-131534422D01*
X191134445Y-131603707D02*
X191107726Y-131569708D01*
X191162732Y-131636364D02*
X191134445Y-131603707D01*
X191192533Y-131667620D02*
X191162732Y-131636364D01*
X191223790Y-131697420D02*
X191192533Y-131667620D01*
X191256446Y-131725708D02*
X191223790Y-131697420D01*
X191290445Y-131752426D02*
X191256446Y-131725708D01*
X191325731Y-131777519D02*
X191290445Y-131752426D01*
X191362247Y-131800928D02*
X191325731Y-131777519D01*
X191399937Y-131822599D02*
X191362247Y-131800928D01*
X191438743Y-131842475D02*
X191399937Y-131822599D01*
X191478609Y-131860498D02*
X191438743Y-131842475D01*
X191519480Y-131876613D02*
X191478609Y-131860498D01*
X191561297Y-131890763D02*
X191519480Y-131876613D01*
X191604005Y-131902891D02*
X191561297Y-131890763D01*
X191647548Y-131912940D02*
X191604005Y-131902891D01*
X191691867Y-131920855D02*
X191647548Y-131912940D01*
X191736908Y-131926579D02*
X191691867Y-131920855D01*
X191782613Y-131930054D02*
X191736908Y-131926579D01*
X191828927Y-131931225D02*
X191782613Y-131930054D01*
X225168946Y-131931225D02*
X191828927Y-131931225D01*
X225215258Y-131930054D02*
X225168946Y-131931225D01*
X225260963Y-131926579D02*
X225215258Y-131930054D01*
X225306003Y-131920855D02*
X225260963Y-131926579D01*
X225350322Y-131912940D02*
X225306003Y-131920855D01*
X225393864Y-131902891D02*
X225350322Y-131912940D01*
X225436572Y-131890763D02*
X225393864Y-131902891D01*
X225478389Y-131876613D02*
X225436572Y-131890763D01*
X225519258Y-131860498D02*
X225478389Y-131876613D01*
X225559125Y-131842475D02*
X225519258Y-131860498D01*
X225597930Y-131822599D02*
X225559125Y-131842475D01*
X225635620Y-131800928D02*
X225597930Y-131822599D01*
X225672135Y-131777519D02*
X225635620Y-131800928D01*
X225707421Y-131752426D02*
X225672135Y-131777519D01*
X225741420Y-131725708D02*
X225707421Y-131752426D01*
X225774076Y-131697420D02*
X225741420Y-131725708D01*
X225805333Y-131667620D02*
X225774076Y-131697420D01*
X225835133Y-131636364D02*
X225805333Y-131667620D01*
X225863421Y-131603707D02*
X225835133Y-131636364D01*
X225890139Y-131569708D02*
X225863421Y-131603707D01*
X225915231Y-131534422D02*
X225890139Y-131569708D01*
X225938641Y-131497906D02*
X225915231Y-131534422D01*
X225960313Y-131460217D02*
X225938641Y-131497906D01*
X225980188Y-131421411D02*
X225960313Y-131460217D01*
X225998212Y-131381544D02*
X225980188Y-131421411D01*
X226014327Y-131340674D02*
X225998212Y-131381544D01*
X226028477Y-131298856D02*
X226014327Y-131340674D01*
X226040605Y-131256147D02*
X226028477Y-131298856D01*
X226050654Y-131212605D02*
X226040605Y-131256147D01*
X226058569Y-131168285D02*
X226050654Y-131212605D01*
X226064293Y-131123243D02*
X226058569Y-131168285D01*
X226067769Y-131077537D02*
X226064293Y-131123243D01*
X226068940Y-131031224D02*
X226067769Y-131077537D01*
X226068940Y-127925213D02*
X226068940Y-131031224D01*
X226067769Y-127878899D02*
X226068940Y-127925213D01*
X226064293Y-127833194D02*
X226067769Y-127878899D01*
X226058570Y-127788152D02*
X226064293Y-127833194D01*
X226050655Y-127743832D02*
X226058570Y-127788152D01*
X226040606Y-127700290D02*
X226050655Y-127743832D01*
X226028478Y-127657581D02*
X226040606Y-127700290D01*
X226014329Y-127615763D02*
X226028478Y-127657581D01*
X225998214Y-127574893D02*
X226014329Y-127615763D01*
X225980191Y-127535026D02*
X225998214Y-127574893D01*
X225960316Y-127496220D02*
X225980191Y-127535026D01*
X225938645Y-127458531D02*
X225960316Y-127496220D01*
X225915235Y-127422015D02*
X225938645Y-127458531D01*
X225890143Y-127386729D02*
X225915235Y-127422015D01*
X225863425Y-127352730D02*
X225890143Y-127386729D01*
X225835138Y-127320073D02*
X225863425Y-127352730D01*
X225805338Y-127288817D02*
X225835138Y-127320073D01*
X225774082Y-127259017D02*
X225805338Y-127288817D01*
X225741426Y-127230729D02*
X225774082Y-127259017D01*
X225707427Y-127204011D02*
X225741426Y-127230729D01*
X225672142Y-127178918D02*
X225707427Y-127204011D01*
X225635626Y-127155508D02*
X225672142Y-127178918D01*
X225597937Y-127133837D02*
X225635626Y-127155508D01*
X225559131Y-127113962D02*
X225597937Y-127133837D01*
X225519265Y-127095939D02*
X225559131Y-127113962D01*
X225478395Y-127079824D02*
X225519265Y-127095939D01*
X225436577Y-127065674D02*
X225478395Y-127079824D01*
X225393869Y-127053546D02*
X225436577Y-127065674D01*
X225350327Y-127043497D02*
X225393869Y-127053546D01*
X225306006Y-127035582D02*
X225350327Y-127043497D01*
X225260965Y-127029858D02*
X225306006Y-127035582D01*
X225215260Y-127026383D02*
X225260965Y-127029858D01*
X225168946Y-127025212D02*
X225215260Y-127026383D01*
X210486893Y-127025212D02*
X225168946Y-127025212D01*
X154830796Y-123417179D02*
X140830796Y-123417179D01*
X154830796Y-109417179D02*
X154830796Y-123417179D01*
X140830796Y-109417179D02*
X154830796Y-109417179D01*
X140830796Y-123417179D02*
X140830796Y-109417179D01*
X226267792Y-71317181D02*
X226267792Y-85317181D01*
X212267792Y-71317181D02*
X226267792Y-71317181D01*
X212267792Y-85317181D02*
X212267792Y-71317181D01*
X226267792Y-85317181D02*
X212267792Y-85317181D01*
X78917801Y-104367180D02*
X78917801Y-90367180D01*
X92917801Y-104367180D02*
X78917801Y-104367180D01*
X92917801Y-90367180D02*
X92917801Y-104367180D01*
X78917801Y-90367180D02*
X92917801Y-90367180D01*
X155117798Y-71317181D02*
X169117798Y-71317181D01*
X155117798Y-85317181D02*
X155117798Y-71317181D01*
X169117798Y-85317181D02*
X155117798Y-85317181D01*
X169117798Y-71317181D02*
X169117798Y-85317181D01*
X212267792Y-90367180D02*
X226267792Y-90367180D01*
X212267792Y-104367180D02*
X212267792Y-90367180D01*
X226267792Y-104367180D02*
X212267792Y-104367180D01*
X226267792Y-90367180D02*
X226267792Y-104367180D01*
X174167794Y-85317181D02*
X174167794Y-71317181D01*
X188167794Y-85317181D02*
X174167794Y-85317181D01*
X188167794Y-71317181D02*
X188167794Y-85317181D01*
X174167794Y-71317181D02*
X188167794Y-71317181D01*
X97967797Y-85317181D02*
X97967797Y-71317181D01*
X111967797Y-85317181D02*
X97967797Y-85317181D01*
X111967797Y-71317181D02*
X111967797Y-85317181D01*
X97967797Y-71317181D02*
X111967797Y-71317181D01*
X174167794Y-104367180D02*
X174167794Y-90367180D01*
X188167794Y-104367180D02*
X174167794Y-104367180D01*
X188167794Y-90367180D02*
X188167794Y-104367180D01*
X174167794Y-90367180D02*
X188167794Y-90367180D01*
X92917794Y-85317181D02*
X78917794Y-85317181D01*
X92917794Y-71317181D02*
X92917794Y-85317181D01*
X78917794Y-71317181D02*
X92917794Y-71317181D01*
X78917794Y-85317181D02*
X78917794Y-71317181D01*
X155117798Y-104367180D02*
X155117791Y-90367180D01*
X169117791Y-104367180D02*
X155117798Y-104367180D01*
X169117791Y-90367180D02*
X169117791Y-104367180D01*
X155117791Y-90367180D02*
X169117791Y-90367180D01*
X150067795Y-85317181D02*
X136067795Y-85317181D01*
X150067795Y-71317181D02*
X150067795Y-85317181D01*
X136067795Y-71317181D02*
X150067795Y-71317181D01*
X136067795Y-85317181D02*
X136067795Y-71317181D01*
X150067795Y-104367180D02*
X136067795Y-104367180D01*
X150067795Y-90367180D02*
X150067795Y-104367180D01*
X136067795Y-90367180D02*
X150067795Y-90367180D01*
X136067795Y-104367180D02*
X136067795Y-90367180D01*
X193217789Y-85317181D02*
X193217789Y-71317181D01*
X207217789Y-85317181D02*
X193217789Y-85317181D01*
X207217789Y-71317181D02*
X207217789Y-85317181D01*
X193217789Y-71317181D02*
X207217789Y-71317181D01*
X78917794Y-123417179D02*
X78917794Y-109417179D01*
X92917794Y-123417179D02*
X78917794Y-123417179D01*
X92917794Y-109417179D02*
X92917794Y-123417179D01*
X78917794Y-109417179D02*
X92917794Y-109417179D01*
X198986786Y-107417179D02*
X198986786Y-122417179D01*
X191986786Y-107417179D02*
X198986786Y-107417179D01*
X191986786Y-122417179D02*
X191986786Y-107417179D01*
X198986786Y-122417179D02*
X191986786Y-122417179D01*
X108435791Y-107417179D02*
X108435791Y-122417179D01*
X101435791Y-107417179D02*
X108435791Y-107417179D01*
X101435791Y-122417179D02*
X101435791Y-107417179D01*
X108435791Y-122417179D02*
X101435791Y-122417179D01*
X111967793Y-90367180D02*
X111967793Y-104367180D01*
X97967793Y-90367180D02*
X111967793Y-90367180D01*
X97967793Y-104367180D02*
X97967793Y-90367180D01*
X111967793Y-104367180D02*
X97967793Y-104367180D01*
X117017792Y-90367180D02*
X131017792Y-90367180D01*
X117017792Y-104367180D02*
X117017792Y-90367180D01*
X131017792Y-104367180D02*
X117017792Y-104367180D01*
X131017792Y-90367180D02*
X131017792Y-104367180D01*
X132311791Y-107417179D02*
X132311791Y-122417179D01*
X125311791Y-107417179D02*
X132311791Y-107417179D01*
X125311791Y-122417179D02*
X125311791Y-107417179D01*
X132311791Y-122417179D02*
X125311791Y-122417179D01*
X207217789Y-90367180D02*
X207217789Y-104367180D01*
X193217789Y-90367180D02*
X207217789Y-90367180D01*
X193217789Y-104367180D02*
X193217789Y-90367180D01*
X207217789Y-104367180D02*
X193217789Y-104367180D01*
X212267792Y-123417179D02*
X212267792Y-109417179D01*
X226267792Y-123417179D02*
X212267792Y-123417179D01*
X226267792Y-109417179D02*
X226267792Y-123417179D01*
X212267792Y-109417179D02*
X226267792Y-109417179D01*
X176548790Y-109417179D02*
X190548790Y-109417179D01*
X176548790Y-123417179D02*
X176548790Y-109417179D01*
X190548790Y-123417179D02*
X176548790Y-123417179D01*
X190548790Y-109417179D02*
X190548790Y-123417179D01*
X117017792Y-85317181D02*
X117017792Y-71317181D01*
X131017792Y-85317181D02*
X117017792Y-85317181D01*
X131017792Y-71317181D02*
X131017792Y-85317181D01*
X117017792Y-71317181D02*
X131017792Y-71317181D01*
X123873791Y-109417179D02*
X123873791Y-123417179D01*
X109873791Y-109417179D02*
X123873791Y-109417179D01*
X109873791Y-123417179D02*
X109873791Y-109417179D01*
X123873791Y-123417179D02*
X109873791Y-123417179D01*
X175110795Y-122417179D02*
X168110795Y-122417179D01*
X175110795Y-107417179D02*
X175110795Y-122417179D01*
X168110795Y-107417179D02*
X175110795Y-107417179D01*
X168110795Y-122417179D02*
X168110795Y-107417179D01*
M02*
