%TF.GenerationSoftware,KiCad,Pcbnew,7.0.8-dirty*%
%TF.CreationDate,2023-11-22T20:27:44+09:00*%
%TF.ProjectId,typing-check-board,74797069-6e67-42d6-9368-65636b2d626f,rev?*%
%TF.SameCoordinates,Original*%
%TF.FileFunction,Profile,NP*%
%FSLAX46Y46*%
G04 Gerber Fmt 4.6, Leading zero omitted, Abs format (unit mm)*
G04 Created by KiCad (PCBNEW 7.0.8-dirty) date 2023-11-22 20:27:44*
%MOMM*%
%LPD*%
G01*
G04 APERTURE LIST*
%TA.AperFunction,Profile*%
%ADD10C,0.100000*%
%TD*%
G04 APERTURE END LIST*
D10*
X167466690Y-77470159D02*
X167267395Y-77470159D01*
X90178520Y-77470159D02*
X89978420Y-77470159D01*
X199642502Y-134620000D02*
X199841812Y-134620000D01*
X218616470Y-134620000D02*
X218815765Y-134620000D01*
X210231323Y-134620000D02*
X210430923Y-134620000D01*
X71110111Y-99151868D02*
X71110111Y-99351865D01*
X213826645Y-134620000D02*
X214026245Y-134620000D01*
X107164604Y-134620000D02*
X107364799Y-134620000D01*
X84786911Y-77470159D02*
X84587711Y-77470159D01*
X162675598Y-77470159D02*
X162475197Y-77470159D01*
X204041122Y-134620000D02*
X204241531Y-134620000D01*
X84601807Y-134620000D02*
X84800606Y-134620000D01*
X223510116Y-131121411D02*
X223510116Y-130921910D01*
X81006409Y-134620000D02*
X81206608Y-134620000D01*
X223510116Y-121329999D02*
X223510116Y-121131101D01*
X95183098Y-134620000D02*
X95382198Y-134620000D01*
X192847473Y-77470159D02*
X192648178Y-77470159D01*
X97573616Y-77470159D02*
X97374718Y-77470159D01*
X189851883Y-77470159D02*
X189652679Y-77470159D01*
X116769897Y-134620000D02*
X116969700Y-134620000D01*
X72809505Y-134620000D02*
X73009106Y-134620000D01*
X153114097Y-134620000D02*
X153314598Y-134620000D01*
X223510116Y-111939389D02*
X223510116Y-111739087D01*
X123356541Y-134620000D02*
X123556900Y-134620000D01*
X71110111Y-121527097D02*
X71110111Y-121727300D01*
X163871399Y-77470159D02*
X163671600Y-77470159D01*
X127326355Y-77470159D02*
X127125755Y-77470159D01*
X126925735Y-77470159D02*
X126726318Y-77470159D01*
X71110111Y-80170148D02*
X71110111Y-80370145D01*
X223510116Y-82767110D02*
X223510116Y-82567113D01*
X131347725Y-134620000D02*
X131546913Y-134620000D01*
X97180603Y-134620000D02*
X97380901Y-134620000D01*
X183651581Y-77470159D02*
X183452881Y-77470159D01*
X223510116Y-91362981D02*
X223510116Y-91162984D01*
X158679794Y-77470159D02*
X158480301Y-77470159D01*
X221212479Y-134620000D02*
X221411972Y-134620000D01*
X102368614Y-77470159D02*
X102168613Y-77470159D01*
X157107200Y-134620000D02*
X157306801Y-134620000D01*
X223510116Y-130324712D02*
X223510116Y-130124814D01*
X96581600Y-134620000D02*
X96781002Y-134620000D01*
X79396709Y-77470159D02*
X79197510Y-77470159D01*
X223510116Y-84766080D02*
X223510116Y-84567083D01*
X137313484Y-77470159D02*
X137114296Y-77470159D01*
X216820755Y-134620000D02*
X217020859Y-134620000D01*
X223510116Y-91961972D02*
X223510116Y-91761975D01*
X111150310Y-77470159D02*
X110950710Y-77470159D01*
X140133804Y-134620000D02*
X140333107Y-134620000D01*
X152290298Y-77470159D02*
X152090599Y-77470159D01*
X100374801Y-134620000D02*
X100574802Y-134620000D01*
X161101799Y-134620000D02*
X161302399Y-134620000D01*
X107965599Y-134620000D02*
X108166000Y-134620000D01*
X164897903Y-134620000D02*
X165097107Y-134620000D01*
X176880699Y-134620000D02*
X177079399Y-134620000D01*
X218417160Y-134620000D02*
X218616470Y-134620000D01*
X156882294Y-77470159D02*
X156683296Y-77470159D01*
X192448776Y-77470159D02*
X192249176Y-77470159D01*
X209633926Y-134620000D02*
X209833420Y-134620000D01*
X144499504Y-77470159D02*
X144299606Y-77470159D01*
X71110111Y-82967107D02*
X71110111Y-83166104D01*
X156708099Y-134620000D02*
X156907097Y-134620000D01*
X223510116Y-121929303D02*
X223510116Y-121729901D01*
X116570099Y-134620000D02*
X116769897Y-134620000D01*
X166670296Y-77470159D02*
X166469696Y-77470159D01*
X93979717Y-77470159D02*
X93779316Y-77470159D01*
X223510116Y-99149869D02*
X223510116Y-98950872D01*
X126354370Y-134620000D02*
X126554420Y-134620000D01*
X222584701Y-77584165D02*
X222398605Y-77521161D01*
X71110111Y-106146268D02*
X71110111Y-106346570D01*
X116343807Y-77470159D02*
X116143608Y-77470159D01*
X110770000Y-134620000D02*
X110968700Y-134620000D01*
X140333107Y-134620000D02*
X140532204Y-134620000D01*
X71110111Y-115136495D02*
X71110111Y-115335797D01*
X84389011Y-77470159D02*
X84189411Y-77470159D01*
X137738006Y-134620000D02*
X137937027Y-134620000D01*
X121334217Y-77470159D02*
X121134556Y-77470159D01*
X71110111Y-98551877D02*
X71110111Y-98750875D01*
X197845505Y-134620000D02*
X198045105Y-134620000D01*
X217220260Y-134620000D02*
X217420669Y-134620000D01*
X120935585Y-77470159D02*
X120736076Y-77470159D01*
X135340423Y-134620000D02*
X135540695Y-134620000D01*
X96575218Y-77470159D02*
X96375816Y-77470159D01*
X140706802Y-77470159D02*
X140508102Y-77470159D01*
X220612900Y-77470159D02*
X220412613Y-77470159D01*
X115569900Y-134620000D02*
X115770100Y-134620000D01*
X150918098Y-134620000D02*
X151118103Y-134620000D01*
X120561928Y-134620000D02*
X120762031Y-134620000D01*
X223510177Y-133119992D02*
X223510116Y-132919797D01*
X223510116Y-93360952D02*
X223510116Y-93159955D01*
X132745163Y-134620000D02*
X132944733Y-134620000D01*
X223510116Y-103346807D02*
X223510116Y-103145810D01*
X71110111Y-85765065D02*
X71110111Y-85965062D01*
X100175003Y-134620000D02*
X100374801Y-134620000D01*
X223510116Y-101148839D02*
X223510116Y-100948842D01*
X85186210Y-77470159D02*
X84986412Y-77470159D01*
X71110111Y-87364041D02*
X71110111Y-87564038D01*
X94578316Y-77470159D02*
X94378715Y-77470159D01*
X221810776Y-134620000D02*
X222010177Y-134620000D01*
X194049408Y-134620000D02*
X194249008Y-134620000D01*
X136316002Y-77470159D02*
X136116066Y-77470159D01*
X218613388Y-77470159D02*
X218413406Y-77470159D01*
X71122711Y-78775167D02*
X71110111Y-78970166D01*
X137912231Y-77470159D02*
X137713234Y-77470159D01*
X179075897Y-134620000D02*
X179275192Y-134620000D01*
X119361099Y-134620000D02*
X119559799Y-134620000D01*
X71549003Y-134180097D02*
X71696003Y-134309301D01*
X130148224Y-134620000D02*
X130348656Y-134620000D01*
X223510116Y-90763990D02*
X223510116Y-90562993D01*
X223510116Y-89164014D02*
X223510116Y-88964017D01*
X171464294Y-77470159D02*
X171263794Y-77470159D01*
X119736816Y-77470159D02*
X119537907Y-77470159D01*
X223510116Y-95957914D02*
X223510116Y-95756917D01*
X107358810Y-77470159D02*
X107158310Y-77470159D01*
X94384399Y-134620000D02*
X94583999Y-134620000D01*
X71110111Y-105746473D02*
X71110111Y-105946271D01*
X195448318Y-134620000D02*
X195647415Y-134620000D01*
X104563309Y-77470159D02*
X104363708Y-77470159D01*
X83804306Y-134620000D02*
X84003605Y-134620000D01*
X160277397Y-77470159D02*
X160077797Y-77470159D01*
X110968700Y-134620000D02*
X111167400Y-134620000D01*
X71110111Y-118529500D02*
X71110111Y-118729596D01*
X194249008Y-134620000D02*
X194448807Y-134620000D01*
X71110111Y-128525594D02*
X71110111Y-128724500D01*
X125353660Y-134620000D02*
X125552551Y-134620000D01*
X136116066Y-77470159D02*
X135916603Y-77470159D01*
X90391312Y-134620000D02*
X90591110Y-134620000D01*
X223510116Y-87765035D02*
X223510116Y-87565038D01*
X148495804Y-77470159D02*
X148295402Y-77470159D01*
X223510116Y-93959943D02*
X223510116Y-93759946D01*
X144328003Y-134620000D02*
X144528000Y-134620000D01*
X109952614Y-77470159D02*
X109752609Y-77470159D01*
X108566902Y-134620000D02*
X108767403Y-134620000D01*
X101369713Y-77470159D02*
X101169617Y-77470159D01*
X165496605Y-134620000D02*
X165696899Y-134620000D01*
X77607105Y-134620000D02*
X77806305Y-134620000D01*
X223510116Y-111739087D02*
X223510116Y-111539289D01*
X186654678Y-77470159D02*
X186454285Y-77470159D01*
X119337208Y-77470159D02*
X119137306Y-77470159D01*
X76006901Y-134620000D02*
X76206901Y-134620000D01*
X215412186Y-77470159D02*
X215212479Y-77470159D01*
X71110111Y-86564054D02*
X71110111Y-86764051D01*
X71110111Y-114339299D02*
X71110111Y-114538495D01*
X210616684Y-77470159D02*
X210417786Y-77470159D01*
X72809612Y-77470159D02*
X72610111Y-77470159D01*
X199437179Y-77470159D02*
X199238083Y-77470159D01*
X71110111Y-125123593D02*
X71110111Y-125323796D01*
X74607113Y-77470159D02*
X74406612Y-77470159D01*
X179250595Y-77470159D02*
X179050400Y-77470159D01*
X135940483Y-134620000D02*
X136140007Y-134620000D01*
X196047012Y-134620000D02*
X196247604Y-134620000D01*
X108755211Y-77470159D02*
X108555206Y-77470159D01*
X71110111Y-105946271D02*
X71110111Y-106146268D01*
X86982815Y-77470159D02*
X86783314Y-77470159D01*
X168666496Y-77470159D02*
X168466095Y-77470159D01*
X134517113Y-77470159D02*
X134316994Y-77470159D01*
X113546608Y-77470159D02*
X113346908Y-77470159D01*
X97780201Y-134620000D02*
X97979301Y-134620000D01*
X165868996Y-77470159D02*
X165669197Y-77470159D01*
X223510116Y-120932004D02*
X223510116Y-120732602D01*
X111962299Y-134620000D02*
X112162102Y-134620000D01*
X190056999Y-134620000D02*
X190256599Y-134620000D01*
X223510116Y-119733609D02*
X223510116Y-119533506D01*
X71110111Y-129124196D02*
X71110111Y-129323293D01*
X71110111Y-106545873D02*
X71110111Y-106746572D01*
X115144409Y-77470159D02*
X114944511Y-77470159D01*
X170263397Y-77470159D02*
X170063690Y-77470159D01*
X223510116Y-87965032D02*
X223510116Y-87765035D01*
X104163410Y-77470159D02*
X103964409Y-77470159D01*
X223510116Y-129324109D02*
X223510116Y-129123510D01*
X89978420Y-77470159D02*
X89778519Y-77470159D01*
X71110111Y-90759992D02*
X71110111Y-90958989D01*
X223510116Y-122129903D02*
X223510116Y-121929303D01*
X98173515Y-77470159D02*
X97973015Y-77470159D01*
X94185200Y-134620000D02*
X94384399Y-134620000D01*
X99775902Y-134620000D02*
X99975403Y-134620000D01*
X151717300Y-134620000D02*
X151917404Y-134620000D01*
X210018478Y-77470159D02*
X209819687Y-77470159D01*
X89379619Y-77470159D02*
X89180618Y-77470159D01*
X185852875Y-77470159D02*
X185652374Y-77470159D01*
X105561012Y-77470159D02*
X105361008Y-77470159D01*
X73807506Y-134620000D02*
X74007408Y-134620000D01*
X71110111Y-125323796D02*
X71110111Y-125524396D01*
X82392513Y-77470159D02*
X82193111Y-77470159D01*
X71110111Y-125924199D02*
X71110111Y-126124593D01*
X223510116Y-79570157D02*
X223510116Y-79369161D01*
X166695404Y-134620000D02*
X166895004Y-134620000D01*
X190855606Y-134620000D02*
X191055694Y-134620000D01*
X223510116Y-108341901D02*
X223510116Y-108142202D01*
X106964500Y-134620000D02*
X107164604Y-134620000D01*
X71110111Y-121727300D02*
X71110111Y-121926793D01*
X85998607Y-134620000D02*
X86199009Y-134620000D01*
X185066795Y-134620000D02*
X185266800Y-134620000D01*
X81993412Y-77470159D02*
X81793312Y-77470159D01*
X71110111Y-127523198D02*
X71110111Y-127723600D01*
X99377701Y-134620000D02*
X99576702Y-134620000D01*
X121734325Y-77470159D02*
X121534546Y-77470159D01*
X71110111Y-123925397D02*
X71110111Y-124125394D01*
X106758510Y-77470159D02*
X106559311Y-77470159D01*
X98372715Y-77470159D02*
X98173515Y-77470159D01*
X208235824Y-134620000D02*
X208435043Y-134620000D01*
X197046707Y-134620000D02*
X197245605Y-134620000D01*
X206838837Y-134620000D02*
X207038528Y-134620000D01*
X176453392Y-77470159D02*
X176254089Y-77470159D01*
X176254089Y-77470159D02*
X176054993Y-77470159D01*
X223510116Y-104743787D02*
X223510116Y-104544789D01*
X71110111Y-96553907D02*
X71110111Y-96753904D01*
X83404205Y-134620000D02*
X83604404Y-134620000D01*
X71110111Y-120927098D02*
X71110111Y-121126195D01*
X103571503Y-134620000D02*
X103772003Y-134620000D01*
X179851486Y-77470159D02*
X179651192Y-77470159D01*
X145499603Y-77470159D02*
X145299507Y-77470159D01*
X71110111Y-107146070D02*
X71110111Y-107346067D01*
X115169399Y-134620000D02*
X115369701Y-134620000D01*
X97374718Y-77470159D02*
X97174618Y-77470159D01*
X71160709Y-133507703D02*
X71223808Y-133693700D01*
X223459473Y-133508489D02*
X223497665Y-133315091D01*
X223510116Y-87166043D02*
X223510116Y-86967046D01*
X193845276Y-77470159D02*
X193644882Y-77470159D01*
X161675598Y-77470159D02*
X161476196Y-77470159D01*
X71110111Y-91157987D02*
X71110111Y-91357984D01*
X210815994Y-77470159D02*
X210616684Y-77470159D01*
X103166115Y-77470159D02*
X102966213Y-77470159D01*
X193250503Y-134620000D02*
X193450607Y-134620000D01*
X223510116Y-115535794D02*
X223510116Y-115335797D01*
X199841812Y-134620000D02*
X200042007Y-134620000D01*
X71110111Y-131920095D02*
X71110111Y-132120397D01*
X136714226Y-77470159D02*
X136514885Y-77470159D01*
X104762413Y-77470159D02*
X104563309Y-77470159D01*
X212015686Y-77470159D02*
X211815689Y-77470159D01*
X150120804Y-134620000D02*
X150320701Y-134620000D01*
X88980118Y-77470159D02*
X88780117Y-77470159D01*
X126726318Y-77470159D02*
X126527489Y-77470159D01*
X177677994Y-134620000D02*
X177878197Y-134620000D01*
X112162102Y-134620000D02*
X112361801Y-134620000D01*
X125128506Y-77470159D02*
X124929214Y-77470159D01*
X94179516Y-77470159D02*
X93979717Y-77470159D01*
X214813385Y-77470159D02*
X214612778Y-77470159D01*
X223510116Y-89763005D02*
X223510116Y-89564008D01*
X149494400Y-77470159D02*
X149294006Y-77470159D01*
X223510116Y-104344793D02*
X223510116Y-104145795D01*
X160502899Y-134620000D02*
X160702103Y-134620000D01*
X177450790Y-77470159D02*
X177251190Y-77470159D01*
X89793209Y-134620000D02*
X89993210Y-134620000D01*
X220213760Y-134620000D02*
X220413971Y-134620000D01*
X71110111Y-83967092D02*
X71110111Y-84168088D01*
X71110111Y-99551862D02*
X71110111Y-99750859D01*
X105760311Y-77470159D02*
X105561012Y-77470159D01*
X149294006Y-77470159D02*
X149093902Y-77470159D01*
X71110111Y-107944265D02*
X71110111Y-108144666D01*
X126127586Y-77470159D02*
X125927875Y-77470159D01*
X104967598Y-134620000D02*
X105166900Y-134620000D01*
X71110111Y-81367131D02*
X71110111Y-81567128D01*
X122333958Y-77470159D02*
X122133407Y-77470159D01*
X210830826Y-134620000D02*
X211029526Y-134620000D01*
X223510116Y-103745801D02*
X223510116Y-103545804D01*
X71110111Y-121926793D02*
X71110111Y-122126798D01*
X81593212Y-77470159D02*
X81393211Y-77470159D01*
X160103203Y-134620000D02*
X160303299Y-134620000D01*
X223510116Y-131720205D02*
X223510116Y-131521207D01*
X173884201Y-134620000D02*
X174084305Y-134620000D01*
X71110111Y-95753919D02*
X71110111Y-95953916D01*
X208821091Y-77470159D02*
X208621689Y-77470159D01*
X71110111Y-104747785D02*
X71110111Y-104946782D01*
X202230972Y-77470159D02*
X202031677Y-77470159D01*
X194644882Y-77470159D02*
X194445267Y-77470159D01*
X216620651Y-134620000D02*
X216820755Y-134620000D01*
X193444275Y-77470159D02*
X193245468Y-77470159D01*
X152090599Y-77470159D02*
X151891296Y-77470159D01*
X152316299Y-134620000D02*
X152515098Y-134620000D01*
X151118103Y-134620000D02*
X151317703Y-134620000D01*
X198038681Y-77470159D02*
X197839279Y-77470159D01*
X195647415Y-134620000D02*
X195847916Y-134620000D01*
X139333603Y-134620000D02*
X139534088Y-134620000D01*
X71110111Y-85965062D02*
X71110111Y-86164060D01*
X93986301Y-134620000D02*
X94185200Y-134620000D01*
X223510116Y-106143689D02*
X223510116Y-105943586D01*
X106764503Y-134620000D02*
X106964500Y-134620000D01*
X194448807Y-134620000D02*
X194648697Y-134620000D01*
X223510116Y-80771138D02*
X223510116Y-80570142D01*
X208036941Y-134620000D02*
X208235824Y-134620000D01*
X118166900Y-134620000D02*
X118366199Y-134620000D01*
X125927875Y-77470159D02*
X125728775Y-77470159D01*
X208834427Y-134620000D02*
X209034332Y-134620000D01*
X107158310Y-77470159D02*
X106958809Y-77470159D01*
X71110111Y-103348806D02*
X71110111Y-103548803D01*
X130321770Y-77470159D02*
X130122360Y-77470159D01*
X223510116Y-113338895D02*
X223510116Y-113139096D01*
X196840072Y-77470159D02*
X196640976Y-77470159D01*
X109353508Y-77470159D02*
X109154411Y-77470159D01*
X138910835Y-77470159D02*
X138711166Y-77470159D01*
X168891502Y-134620000D02*
X169091301Y-134620000D01*
X148722702Y-134620000D02*
X148921905Y-134620000D01*
X209034332Y-134620000D02*
X209234238Y-134620000D01*
X223510116Y-117732892D02*
X223510116Y-117533193D01*
X174058395Y-77470159D02*
X173858291Y-77470159D01*
X90579220Y-77470159D02*
X90378818Y-77470159D01*
X94778416Y-77470159D02*
X94578316Y-77470159D01*
X71110111Y-108343869D02*
X71110111Y-108544171D01*
X93579414Y-77470159D02*
X93380115Y-77470159D01*
X188061005Y-134620000D02*
X188261001Y-134620000D01*
X87183216Y-77470159D02*
X86982815Y-77470159D01*
X178050194Y-77470159D02*
X177850296Y-77470159D01*
X124157131Y-134620000D02*
X124356930Y-134620000D01*
X219412704Y-77470159D02*
X219212906Y-77470159D01*
X209420791Y-77470159D02*
X209220795Y-77470159D01*
X71110111Y-106746572D02*
X71110111Y-106946271D01*
X162701004Y-134620000D02*
X162900406Y-134620000D01*
X151917404Y-134620000D02*
X152117004Y-134620000D01*
X161302399Y-134620000D02*
X161502502Y-134620000D01*
X137513138Y-77470159D02*
X137313484Y-77470159D01*
X164098602Y-134620000D02*
X164298508Y-134620000D01*
X156108398Y-134620000D02*
X156308700Y-134620000D01*
X81193512Y-77470159D02*
X80994312Y-77470159D01*
X149693298Y-77470159D02*
X149494400Y-77470159D01*
X71110111Y-86964048D02*
X71110111Y-87164045D01*
X118565300Y-134620000D02*
X118764397Y-134620000D01*
X142503303Y-77470159D02*
X142304001Y-77470159D01*
X92389305Y-134620000D02*
X92588604Y-134620000D01*
X115369701Y-134620000D02*
X115569900Y-134620000D01*
X148894203Y-77470159D02*
X148694900Y-77470159D01*
X77407505Y-134620000D02*
X77607105Y-134620000D01*
X217819473Y-134620000D02*
X218018463Y-134620000D01*
X175082397Y-134620000D02*
X175283096Y-134620000D01*
X101972099Y-134620000D02*
X102171501Y-134620000D01*
X71110111Y-109142980D02*
X71110111Y-109343183D01*
X223510116Y-86967046D02*
X223510116Y-86766050D01*
X137538711Y-134620000D02*
X137738006Y-134620000D01*
X89393207Y-134620000D02*
X89593807Y-134620000D01*
X223510116Y-123528707D02*
X223510116Y-123328603D01*
X142702904Y-77470159D02*
X142503303Y-77470159D01*
X88580616Y-77470159D02*
X88381615Y-77470159D01*
X223510116Y-119133199D02*
X223510116Y-118932996D01*
X223510116Y-110739598D02*
X223510116Y-110540197D01*
X209619888Y-77470159D02*
X209420791Y-77470159D01*
X213626053Y-134620000D02*
X213826645Y-134620000D01*
X148123001Y-134620000D02*
X148323303Y-134620000D01*
X117939110Y-77470159D02*
X117739609Y-77470159D01*
X159703003Y-134620000D02*
X159902603Y-134620000D01*
X207637527Y-134620000D02*
X207836929Y-134620000D01*
X169864197Y-77470159D02*
X169664894Y-77470159D01*
X223510116Y-100549848D02*
X223510116Y-100350850D01*
X87781513Y-77470159D02*
X87581814Y-77470159D01*
X157505997Y-134620000D02*
X157706299Y-134620000D01*
X127552101Y-134620000D02*
X127751114Y-134620000D01*
X131546913Y-134620000D02*
X131745895Y-134620000D01*
X114969101Y-134620000D02*
X115169399Y-134620000D01*
X96181801Y-134620000D02*
X96382500Y-134620000D01*
X71110111Y-86365056D02*
X71110111Y-86564054D01*
X88595306Y-134620000D02*
X88795105Y-134620000D01*
X163073395Y-77470159D02*
X162874397Y-77470159D01*
X149520500Y-134620000D02*
X149719902Y-134620000D01*
X125552551Y-134620000D02*
X125753250Y-134620000D01*
X117739609Y-77470159D02*
X117540909Y-77470159D01*
X223510116Y-105743383D02*
X223510116Y-105544080D01*
X204029190Y-77470159D02*
X203828689Y-77470159D01*
X223510116Y-124326711D02*
X223510116Y-124126508D01*
X220412613Y-77470159D02*
X220212906Y-77470159D01*
X71110111Y-129523000D02*
X71110111Y-129722295D01*
X71110111Y-114140294D02*
X71110111Y-114339299D01*
X155909103Y-134620000D02*
X156108398Y-134620000D01*
X189657699Y-134620000D02*
X189857895Y-134620000D01*
X165669197Y-77470159D02*
X165469498Y-77470159D01*
X83390411Y-77470159D02*
X83191112Y-77470159D01*
X166495209Y-134620000D02*
X166695404Y-134620000D01*
X179874801Y-134620000D02*
X180075302Y-134620000D01*
X91581722Y-77470159D02*
X91381321Y-77470159D01*
X158879593Y-77470159D02*
X158679794Y-77470159D01*
X181656387Y-77470159D02*
X181455688Y-77470159D01*
X71110111Y-117531194D02*
X71110111Y-117730298D01*
X71110111Y-119130094D02*
X71110111Y-119330297D01*
X121361660Y-134620000D02*
X121561302Y-134620000D01*
X219813492Y-77470159D02*
X219613205Y-77470159D01*
X155684898Y-77470159D02*
X155485596Y-77470159D01*
X214214096Y-77470159D02*
X214013382Y-77470159D01*
X99172016Y-77470159D02*
X98972916Y-77470159D01*
X71110111Y-90359998D02*
X71110111Y-90559995D01*
X146524902Y-134620000D02*
X146724609Y-134620000D01*
X213813797Y-77470159D02*
X213613891Y-77470159D01*
X71696003Y-134309301D02*
X71859505Y-134418897D01*
X223510116Y-82966108D02*
X223510116Y-82767110D01*
X221411972Y-134620000D02*
X221611465Y-134620000D01*
X214625046Y-134620000D02*
X214824447Y-134620000D01*
X220812805Y-77470159D02*
X220612900Y-77470159D01*
X165097107Y-134620000D02*
X165297104Y-134620000D01*
X128350983Y-134620000D02*
X128551224Y-134620000D01*
X152515098Y-134620000D02*
X152715202Y-134620000D01*
X139534088Y-134620000D02*
X139734306Y-134620000D01*
X105366302Y-134620000D02*
X105565800Y-134620000D01*
X223510116Y-91761975D02*
X223510116Y-91561978D01*
X120361721Y-134620000D02*
X120561928Y-134620000D01*
X207022873Y-77470159D02*
X206822983Y-77470159D01*
X71110111Y-99950856D02*
X71110111Y-100150853D01*
X136339264Y-134620000D02*
X136538277Y-134620000D01*
X223510116Y-82368116D02*
X223510116Y-82167119D01*
X143302605Y-77470159D02*
X143103409Y-77470159D01*
X71110111Y-98152883D02*
X71110111Y-98352880D01*
X200440811Y-134620000D02*
X200640610Y-134620000D01*
X71110111Y-113338994D02*
X71110111Y-113538900D01*
X223510116Y-132520101D02*
X223510116Y-132320203D01*
X172886001Y-134620000D02*
X173085701Y-134620000D01*
X223199570Y-134034085D02*
X223309173Y-133870687D01*
X138711166Y-77470159D02*
X138511947Y-77470159D01*
X196242081Y-77470159D02*
X196042282Y-77470159D01*
X154088104Y-77470159D02*
X153889297Y-77470159D01*
X167894005Y-134620000D02*
X168092804Y-134620000D01*
X74406612Y-77470159D02*
X74206413Y-77470159D01*
X220212906Y-77470159D02*
X220012710Y-77470159D01*
X108767403Y-134620000D02*
X108967903Y-134620000D01*
X141105705Y-77470159D02*
X140906006Y-77470159D01*
X138311584Y-77470159D02*
X138111687Y-77470159D01*
X178476700Y-134620000D02*
X178676102Y-134620000D01*
X212427139Y-134620000D02*
X212626938Y-134620000D01*
X84003605Y-134620000D02*
X84202503Y-134620000D01*
X117169399Y-134620000D02*
X117369099Y-134620000D01*
X154911102Y-134620000D02*
X155111000Y-134620000D01*
X223510116Y-88165029D02*
X223510116Y-87965032D01*
X223510116Y-84367086D02*
X223510116Y-84166089D01*
X216813995Y-77470159D02*
X216614303Y-77470159D01*
X223510116Y-85766065D02*
X223510116Y-85566068D01*
X73808212Y-77470159D02*
X73607914Y-77470159D01*
X217619263Y-134620000D02*
X217819473Y-134620000D01*
X223510116Y-114936696D02*
X223510116Y-114737798D01*
X110171802Y-134620000D02*
X110371502Y-134620000D01*
X223510116Y-108541204D02*
X223510116Y-108341901D01*
X215013290Y-77470159D02*
X214813385Y-77470159D01*
X76800907Y-77470159D02*
X76601807Y-77470159D01*
X156308700Y-134620000D02*
X156508598Y-134620000D01*
X134342903Y-134620000D02*
X134542518Y-134620000D01*
X223510116Y-88964017D02*
X223510116Y-88763021D01*
X199038681Y-77470159D02*
X198838882Y-77470159D01*
X187661499Y-134620000D02*
X187861801Y-134620000D01*
X99576702Y-134620000D02*
X99775902Y-134620000D01*
X150320701Y-134620000D02*
X150520202Y-134620000D01*
X202631882Y-77470159D02*
X202431686Y-77470159D01*
X144926903Y-134620000D02*
X145125900Y-134620000D01*
X206224182Y-77470159D02*
X206024979Y-77470159D01*
X223510116Y-82167119D02*
X223510116Y-81966123D01*
X190456802Y-134620000D02*
X190655899Y-134620000D01*
X181455688Y-77470159D02*
X181255096Y-77470159D01*
X223510116Y-113937093D02*
X223510116Y-113737195D01*
X138336113Y-134620000D02*
X138536163Y-134620000D01*
X202438522Y-134620000D02*
X202638321Y-134620000D01*
X183254181Y-77470159D02*
X183055389Y-77470159D01*
X222397873Y-134569394D02*
X222583969Y-134506292D01*
X88780117Y-77470159D02*
X88580616Y-77470159D01*
X171288803Y-134620000D02*
X171487602Y-134620000D01*
X138935448Y-134620000D02*
X139134666Y-134620000D01*
X223510116Y-127522702D02*
X223510116Y-127323606D01*
X86798408Y-134620000D02*
X86998707Y-134620000D01*
X209833420Y-134620000D02*
X210032516Y-134620000D01*
X133117805Y-77470159D02*
X132918236Y-77470159D01*
X216022552Y-134620000D02*
X216222351Y-134620000D01*
X71110111Y-79770154D02*
X71110111Y-79970151D01*
X146297005Y-77470159D02*
X146097107Y-77470159D01*
X128524483Y-77470159D02*
X128324509Y-77470159D01*
X121933536Y-77470159D02*
X121734325Y-77470159D01*
X202431686Y-77470159D02*
X202230972Y-77470159D01*
X102767414Y-77470159D02*
X102568214Y-77470159D01*
X140308105Y-77470159D02*
X140108604Y-77470159D01*
X104962608Y-77470159D02*
X104762413Y-77470159D01*
X85386112Y-77470159D02*
X85186210Y-77470159D01*
X223497665Y-133315091D02*
X223510177Y-133119992D01*
X216013199Y-77470159D02*
X215812698Y-77470159D01*
X71110111Y-80768140D02*
X71110111Y-80969136D01*
X114146610Y-77470159D02*
X113946510Y-77470159D01*
X153889297Y-77470159D02*
X153689102Y-77470159D01*
X122955398Y-134620000D02*
X123156040Y-134620000D01*
X175259193Y-77470159D02*
X175060493Y-77470159D01*
X200435074Y-77470159D02*
X200235870Y-77470159D01*
X223510116Y-130723012D02*
X223510116Y-130523709D01*
X77007702Y-134620000D02*
X77207603Y-134620000D01*
X128324509Y-77470159D02*
X128125091Y-77470159D01*
X133144089Y-134620000D02*
X133343208Y-134620000D01*
X223510116Y-128524106D02*
X223510116Y-128323606D01*
X71110111Y-113139493D02*
X71110111Y-113338994D01*
X71110111Y-126524694D02*
X71110111Y-126723798D01*
X181255096Y-77470159D02*
X181054489Y-77470159D01*
X223510116Y-103145810D02*
X223510116Y-102946813D01*
X191048782Y-77470159D02*
X190848282Y-77470159D01*
X223510116Y-92161969D02*
X223510116Y-91961972D01*
X222922867Y-134310491D02*
X223070373Y-134181188D01*
X96382500Y-134620000D02*
X96581600Y-134620000D01*
X201034271Y-77470159D02*
X200834274Y-77470159D01*
X140532204Y-134620000D02*
X140730903Y-134620000D01*
X71859505Y-134418897D02*
X72035606Y-134505994D01*
X170663093Y-77470159D02*
X170463196Y-77470159D01*
X113164501Y-134620000D02*
X113365204Y-134620000D01*
X219614059Y-134620000D02*
X219812759Y-134620000D01*
X205427078Y-77470159D02*
X205227081Y-77470159D01*
X76601807Y-77470159D02*
X76402908Y-77470159D01*
X140730903Y-134620000D02*
X140931206Y-134620000D01*
X96375816Y-77470159D02*
X96175316Y-77470159D01*
X71110111Y-94755933D02*
X71110111Y-94955930D01*
X71110111Y-108544171D02*
X71110111Y-108743474D01*
X138111687Y-77470159D02*
X137912231Y-77470159D01*
X211828934Y-134620000D02*
X212029129Y-134620000D01*
X192851303Y-134620000D02*
X193050705Y-134620000D01*
X71110111Y-99351865D02*
X71110111Y-99551862D01*
X131521034Y-77470159D02*
X131321243Y-77470159D01*
X223510116Y-80370145D02*
X223510116Y-80170148D01*
X112348312Y-77470159D02*
X112149513Y-77470159D01*
X90591110Y-134620000D02*
X90791511Y-134620000D01*
X179675796Y-134620000D02*
X179874801Y-134620000D01*
X94784000Y-134620000D02*
X94984299Y-134620000D01*
X223510116Y-86566053D02*
X223510116Y-86365056D01*
X91982021Y-77470159D02*
X91781921Y-77470159D01*
X71110111Y-80969136D02*
X71110111Y-81168134D01*
X71110111Y-102750814D02*
X71110111Y-102949811D01*
X140906006Y-77470159D02*
X140706802Y-77470159D01*
X223510116Y-96953900D02*
X223510116Y-96753904D01*
X82005306Y-134620000D02*
X82204204Y-134620000D01*
X160877601Y-77470159D02*
X160677299Y-77470159D01*
X71110111Y-96953900D02*
X71110111Y-97152898D01*
X149719902Y-134620000D02*
X149920601Y-134620000D01*
X111750412Y-77470159D02*
X111550209Y-77470159D01*
X223510116Y-131920003D02*
X223510116Y-131720205D01*
X175682098Y-134620000D02*
X175881805Y-134620000D01*
X148295402Y-77470159D02*
X148095398Y-77470159D01*
X172486900Y-134620000D02*
X172686798Y-134620000D01*
X75807602Y-134620000D02*
X76006901Y-134620000D01*
X200036270Y-77470159D02*
X199836273Y-77470159D01*
X135139908Y-134620000D02*
X135340423Y-134620000D01*
X223510116Y-113537892D02*
X223510116Y-113338895D01*
X85586014Y-77470159D02*
X85386112Y-77470159D01*
X220812179Y-134620000D02*
X221012466Y-134620000D01*
X188261001Y-134620000D02*
X188459900Y-134620000D01*
X120336696Y-77470159D02*
X120136837Y-77470159D01*
X181273392Y-134620000D02*
X181472290Y-134620000D01*
X71110111Y-113939595D02*
X71110111Y-114140294D01*
X78406505Y-134620000D02*
X78607105Y-134620000D01*
X123156040Y-134620000D02*
X123356541Y-134620000D01*
X71110111Y-102349820D02*
X71110111Y-102549817D01*
X223510116Y-114737798D02*
X223510116Y-114537694D01*
X71110111Y-88561025D02*
X71110111Y-88762021D01*
X211815689Y-77470159D02*
X211616089Y-77470159D01*
X79008007Y-134620000D02*
X79208107Y-134620000D01*
X139309921Y-77470159D02*
X139110954Y-77470159D01*
X176054993Y-77470159D02*
X175855896Y-77470159D01*
X223510116Y-99350866D02*
X223510116Y-99149869D01*
X223510116Y-126924009D02*
X223510116Y-126724912D01*
X149892700Y-77470159D02*
X149693298Y-77470159D01*
X171664894Y-77470159D02*
X171464294Y-77470159D01*
X106564499Y-134620000D02*
X106764503Y-134620000D01*
X171688301Y-134620000D02*
X171888306Y-134620000D01*
X119936466Y-77470159D02*
X119736816Y-77470159D01*
X160303299Y-134620000D02*
X160502899Y-134620000D01*
X95576916Y-77470159D02*
X95377716Y-77470159D01*
X74006813Y-77470159D02*
X73808212Y-77470159D01*
X71110111Y-110342099D02*
X71110111Y-110541394D01*
X184667694Y-134620000D02*
X184867691Y-134620000D01*
X147696304Y-77470159D02*
X147497299Y-77470159D01*
X80806507Y-134620000D02*
X81006409Y-134620000D01*
X214013382Y-77470159D02*
X213813797Y-77470159D01*
X218815765Y-134620000D02*
X219015365Y-134620000D01*
X223510116Y-102347821D02*
X223510116Y-102147824D01*
X146324905Y-134620000D02*
X146524902Y-134620000D01*
X223510116Y-98350881D02*
X223510116Y-98150884D01*
X71110111Y-119728795D02*
X71110111Y-119928495D01*
X71110111Y-81168134D02*
X71110111Y-81367131D01*
X206024979Y-77470159D02*
X205825180Y-77470159D01*
X223510116Y-83965093D02*
X223510116Y-83765096D01*
X97380901Y-134620000D02*
X97581402Y-134620000D01*
X198237686Y-77470159D02*
X198038681Y-77470159D01*
X71110111Y-110141599D02*
X71110111Y-110342099D01*
X149120705Y-134620000D02*
X149320801Y-134620000D01*
X111949509Y-77470159D02*
X111750412Y-77470159D01*
X76203209Y-77470159D02*
X76003910Y-77470159D01*
X217812195Y-77470159D02*
X217612503Y-77470159D01*
X158082001Y-77470159D02*
X157881393Y-77470159D01*
X162900406Y-134620000D02*
X163099304Y-134620000D01*
X223510116Y-118732793D02*
X223510116Y-118532689D01*
X212815491Y-77470159D02*
X212614990Y-77470159D01*
X141705406Y-77470159D02*
X141506203Y-77470159D01*
X106958809Y-77470159D02*
X106758510Y-77470159D01*
X71110111Y-133120000D02*
X71122810Y-133315702D01*
X212029129Y-134620000D02*
X212227829Y-134620000D01*
X71110111Y-128924993D02*
X71110111Y-129124196D01*
X137139328Y-134620000D02*
X137339157Y-134620000D01*
X71110111Y-89760007D02*
X71110111Y-89960004D01*
X112963901Y-134620000D02*
X113164501Y-134620000D01*
X85799106Y-134620000D02*
X85998607Y-134620000D01*
X164298508Y-134620000D02*
X164497909Y-134620000D01*
X149920601Y-134620000D02*
X150120804Y-134620000D01*
X223510116Y-93159955D02*
X223510116Y-92959958D01*
X153689102Y-77470159D02*
X153489105Y-77470159D01*
X182470795Y-134620000D02*
X182670692Y-134620000D01*
X144127701Y-134620000D02*
X144328003Y-134620000D01*
X103964409Y-77470159D02*
X103764709Y-77470159D01*
X71110111Y-108943776D02*
X71110111Y-109142980D01*
X223510116Y-124526113D02*
X223510116Y-124326711D01*
X167865997Y-77470159D02*
X167666290Y-77470159D01*
X118339107Y-77470159D02*
X118139309Y-77470159D01*
X162874397Y-77470159D02*
X162675598Y-77470159D01*
X176081901Y-134620000D02*
X176281204Y-134620000D01*
X223510116Y-85167073D02*
X223510116Y-84967076D01*
X147096901Y-77470159D02*
X146897201Y-77470159D01*
X189453384Y-77470159D02*
X189253982Y-77470159D01*
X223510116Y-98950872D02*
X223510116Y-98750875D01*
X223510116Y-95756917D02*
X223510116Y-95556920D01*
X223510116Y-130921910D02*
X223510116Y-130723012D01*
X97979301Y-134620000D02*
X98178604Y-134620000D01*
X71110111Y-112739598D02*
X71110111Y-112940297D01*
X160702103Y-134620000D02*
X160902199Y-134620000D01*
X162101105Y-134620000D02*
X162300705Y-134620000D01*
X80406105Y-134620000D02*
X80606907Y-134620000D01*
X123957199Y-134620000D02*
X124157131Y-134620000D01*
X190448776Y-77470159D02*
X190249878Y-77470159D01*
X139909408Y-77470159D02*
X139709205Y-77470159D01*
X154312202Y-134620000D02*
X154511703Y-134620000D01*
X199836273Y-77470159D02*
X199635971Y-77470159D01*
X190647568Y-77470159D02*
X190448776Y-77470159D01*
X181672493Y-134620000D02*
X181871796Y-134620000D01*
X71110111Y-115535199D02*
X71110111Y-115734395D01*
X183055389Y-77470159D02*
X182856689Y-77470159D01*
X71110111Y-125524396D02*
X71110111Y-125725095D01*
X214412979Y-77470159D02*
X214214096Y-77470159D01*
X71110111Y-107346067D02*
X71110111Y-107544965D01*
X185465896Y-134620000D02*
X185666000Y-134620000D01*
X206238724Y-134620000D02*
X206438827Y-134620000D01*
X223510116Y-92360967D02*
X223510116Y-92161969D01*
X205439743Y-134620000D02*
X205640243Y-134620000D01*
X71110111Y-87164045D02*
X71110111Y-87364041D01*
X223510116Y-132919797D02*
X223510116Y-132719999D01*
X211216080Y-77470159D02*
X211015884Y-77470159D01*
X223510116Y-83565099D02*
X223510116Y-83366101D01*
X166269295Y-77470159D02*
X166069092Y-77470159D01*
X142903007Y-77470159D02*
X142702904Y-77470159D01*
X152890999Y-77470159D02*
X152690498Y-77470159D01*
X211229935Y-134620000D02*
X211429230Y-134620000D01*
X217212799Y-77470159D02*
X217013199Y-77470159D01*
X194045486Y-77470159D02*
X193845276Y-77470159D01*
X148523208Y-134620000D02*
X148722702Y-134620000D01*
X187255478Y-77470159D02*
X187055282Y-77470159D01*
X221211593Y-77470159D02*
X221011902Y-77470159D01*
X71110111Y-129923093D02*
X71110111Y-130123899D01*
X158904198Y-134620000D02*
X159104202Y-134620000D01*
X71110111Y-123525899D02*
X71110111Y-123725499D01*
X88396107Y-134620000D02*
X88595306Y-134620000D01*
X182057785Y-77470159D02*
X181857086Y-77470159D01*
X71110111Y-120328099D02*
X71110111Y-120527898D01*
X76407402Y-134620000D02*
X76607902Y-134620000D01*
X83604404Y-134620000D02*
X83804306Y-134620000D01*
X143901001Y-77470159D02*
X143702202Y-77470159D01*
X82791313Y-77470159D02*
X82591114Y-77470159D01*
X188659599Y-134620000D02*
X188860000Y-134620000D01*
X145897606Y-77470159D02*
X145698402Y-77470159D01*
X159679298Y-77470159D02*
X159480400Y-77470159D01*
X168866997Y-77470159D02*
X168666496Y-77470159D01*
X73208805Y-134620000D02*
X73408707Y-134620000D01*
X145099808Y-77470159D02*
X144900406Y-77470159D01*
X96974617Y-77470159D02*
X96774818Y-77470159D01*
X170689895Y-134620000D02*
X170889297Y-134620000D01*
X186253876Y-77470159D02*
X186053375Y-77470159D01*
X199442810Y-134620000D02*
X199642502Y-134620000D01*
X170463196Y-77470159D02*
X170263397Y-77470159D01*
X71110111Y-114538495D02*
X71110111Y-114737699D01*
X124756069Y-134620000D02*
X124955421Y-134620000D01*
X156084099Y-77470159D02*
X155884399Y-77470159D01*
X223510116Y-84166089D02*
X223510116Y-83965093D01*
X72610111Y-77470159D02*
X72414409Y-77483159D01*
X223510116Y-120133603D02*
X223510116Y-119933606D01*
X144528000Y-134620000D02*
X144727600Y-134620000D01*
X71110111Y-121126195D02*
X71110111Y-121326299D01*
X201240219Y-134620000D02*
X201440018Y-134620000D01*
X72222511Y-77521161D02*
X72036411Y-77584165D01*
X223510116Y-107143094D02*
X223510116Y-106943395D01*
X158480301Y-77470159D02*
X158280998Y-77470159D01*
X219015365Y-134620000D02*
X219215072Y-134620000D01*
X205640243Y-134620000D02*
X205840225Y-134620000D01*
X97973015Y-77470159D02*
X97774017Y-77470159D01*
X209234238Y-134620000D02*
X209434128Y-134620000D01*
X100969314Y-77470159D02*
X100770214Y-77470159D01*
X125528946Y-77470159D02*
X125328415Y-77470159D01*
X71110111Y-120727597D02*
X71110111Y-120927098D01*
X165469498Y-77470159D02*
X165269997Y-77470159D01*
X74807613Y-77470159D02*
X74607113Y-77470159D01*
X116942306Y-77470159D02*
X116742107Y-77470159D01*
X147523407Y-134620000D02*
X147723106Y-134620000D01*
X119559799Y-134620000D02*
X119760448Y-134620000D01*
X71110111Y-123725499D02*
X71110111Y-123925397D01*
X104768402Y-134620000D02*
X104967598Y-134620000D01*
X223510116Y-90162999D02*
X223510116Y-89963002D01*
X206039734Y-134620000D02*
X206238724Y-134620000D01*
X71110111Y-119330297D02*
X71110111Y-119529393D01*
X192652099Y-134620000D02*
X192851303Y-134620000D01*
X154287102Y-77470159D02*
X154088104Y-77470159D01*
X221611099Y-77470159D02*
X221411392Y-77470159D01*
X212614990Y-77470159D02*
X212416092Y-77470159D01*
X209021393Y-77470159D02*
X208821091Y-77470159D01*
X223510116Y-81966123D02*
X223510116Y-81767125D01*
X155485596Y-77470159D02*
X155286697Y-77470159D01*
X71110111Y-88962018D02*
X71110111Y-89162015D01*
X71110111Y-130123899D02*
X71110111Y-130323194D01*
X91390510Y-134620000D02*
X91589310Y-134620000D01*
X212215790Y-77470159D02*
X212015686Y-77470159D01*
X71110111Y-100550847D02*
X71110111Y-100749845D01*
X223510116Y-116935193D02*
X223510116Y-116736196D01*
X71110111Y-101549832D02*
X71110111Y-101749829D01*
X108954307Y-77470159D02*
X108755211Y-77470159D01*
X131120567Y-77470159D02*
X130920418Y-77470159D01*
X203030990Y-77470159D02*
X202831680Y-77470159D01*
X71110111Y-91556981D02*
X71110111Y-91756978D01*
X166295807Y-134620000D02*
X166495209Y-134620000D01*
X71223808Y-133693700D02*
X71310306Y-133869001D01*
X223510116Y-103945798D02*
X223510116Y-103745801D01*
X144727600Y-134620000D02*
X144926903Y-134620000D01*
X126754303Y-134620000D02*
X126954002Y-134620000D01*
X223510116Y-112538198D02*
X223510116Y-112338994D01*
X166469696Y-77470159D02*
X166269295Y-77470159D01*
X129722351Y-77470159D02*
X129523178Y-77470159D01*
X104363708Y-77470159D02*
X104163410Y-77470159D01*
X193245468Y-77470159D02*
X193046585Y-77470159D01*
X206638336Y-134620000D02*
X206838837Y-134620000D01*
X156484497Y-77470159D02*
X156284195Y-77470159D01*
X117540909Y-77470159D02*
X117340607Y-77470159D01*
X76003910Y-77470159D02*
X75804611Y-77470159D01*
X145925407Y-134620000D02*
X146124405Y-134620000D01*
X221411392Y-77470159D02*
X221211593Y-77470159D01*
X86398609Y-134620000D02*
X86598907Y-134620000D01*
X87581814Y-77470159D02*
X87382915Y-77470159D01*
X84986412Y-77470159D02*
X84786911Y-77470159D01*
X127949951Y-134620000D02*
X128150558Y-134620000D01*
X121760830Y-134620000D02*
X121960239Y-134620000D01*
X95382198Y-134620000D02*
X95581600Y-134620000D01*
X141729301Y-134620000D02*
X141929802Y-134620000D01*
X122756630Y-134620000D02*
X122955398Y-134620000D01*
X165070694Y-77470159D02*
X164871597Y-77470159D01*
X71110111Y-94156942D02*
X71110111Y-94356939D01*
X193450607Y-134620000D02*
X193651001Y-134620000D01*
X223510116Y-128323606D02*
X223510116Y-128123006D01*
X71110111Y-83566098D02*
X71110111Y-83767095D01*
X158703697Y-134620000D02*
X158904198Y-134620000D01*
X71110111Y-90958989D02*
X71110111Y-91157987D01*
X73407913Y-77470159D02*
X73208412Y-77470159D01*
X111167400Y-134620000D02*
X111366100Y-134620000D01*
X215223556Y-134620000D02*
X215422851Y-134620000D01*
X75607601Y-134620000D02*
X75807602Y-134620000D01*
X79596908Y-77470159D02*
X79396709Y-77470159D01*
X77207603Y-134620000D02*
X77407505Y-134620000D01*
X223510116Y-81568128D02*
X223510116Y-81369130D01*
X90191910Y-134620000D02*
X90391312Y-134620000D01*
X79607006Y-134620000D02*
X79806908Y-134620000D01*
X213014389Y-77470159D02*
X212815491Y-77470159D01*
X127352913Y-134620000D02*
X127552101Y-134620000D01*
X158504196Y-134620000D02*
X158703697Y-134620000D01*
X137937027Y-134620000D02*
X138135788Y-134620000D01*
X77799610Y-77470159D02*
X77599510Y-77470159D01*
X179275192Y-134620000D02*
X179475891Y-134620000D01*
X71110111Y-127924398D02*
X71110111Y-128124898D01*
X79795910Y-77470159D02*
X79596908Y-77470159D01*
X129947586Y-134620000D02*
X130148224Y-134620000D01*
X124328544Y-77470159D02*
X124129146Y-77470159D01*
X143927101Y-134620000D02*
X144127701Y-134620000D01*
X223510116Y-88763021D02*
X223510116Y-88564023D01*
X148095398Y-77470159D02*
X147895706Y-77470159D01*
X155709503Y-134620000D02*
X155909103Y-134620000D01*
X223510116Y-90963987D02*
X223510116Y-90763990D01*
X71110111Y-126922994D02*
X71110111Y-127123098D01*
X136140007Y-134620000D02*
X136339264Y-134620000D01*
X223510116Y-122330106D02*
X223510116Y-122129903D01*
X156508598Y-134620000D02*
X156708099Y-134620000D01*
X211429230Y-134620000D02*
X211629730Y-134620000D01*
X102966213Y-77470159D02*
X102767414Y-77470159D01*
X80793712Y-77470159D02*
X80594112Y-77470159D01*
X123930385Y-77470159D02*
X123730965Y-77470159D01*
X207221969Y-77470159D02*
X207022873Y-77470159D01*
X120962021Y-134620000D02*
X121161888Y-134620000D01*
X71110111Y-80569142D02*
X71110111Y-80768140D01*
X207437134Y-134620000D02*
X207637527Y-134620000D01*
X135740715Y-134620000D02*
X135940483Y-134620000D01*
X81206608Y-134620000D02*
X81405407Y-134620000D01*
X147497299Y-77470159D02*
X147296905Y-77470159D01*
X203840622Y-134620000D02*
X204041122Y-134620000D01*
X71110111Y-101350835D02*
X71110111Y-101549832D01*
X118764397Y-134620000D02*
X118963398Y-134620000D01*
X117141109Y-77470159D02*
X116942306Y-77470159D01*
X223510116Y-129924314D02*
X223510116Y-129723813D01*
X113946510Y-77470159D02*
X113747208Y-77470159D01*
X125154610Y-134620000D02*
X125353660Y-134620000D01*
X223510116Y-126524312D02*
X223510116Y-126324910D01*
X84402405Y-134620000D02*
X84601807Y-134620000D01*
X84587711Y-77470159D02*
X84389011Y-77470159D01*
X223510116Y-81169133D02*
X223510116Y-80970136D01*
X93779316Y-77470159D02*
X93579414Y-77470159D01*
X187261505Y-134620000D02*
X187462005Y-134620000D01*
X223510116Y-102946813D02*
X223510116Y-102746816D01*
X71110111Y-113739194D02*
X71110111Y-113939595D01*
X166095802Y-134620000D02*
X166295807Y-134620000D01*
X223510116Y-91162984D02*
X223510116Y-90963987D01*
X121960239Y-134620000D02*
X122159519Y-134620000D01*
X223510116Y-85566068D02*
X223510116Y-85366071D01*
X71110111Y-88163030D02*
X71110111Y-88362027D01*
X223510116Y-129123510D02*
X223510116Y-128924306D01*
X203429977Y-77470159D02*
X203229782Y-77470159D01*
X197645706Y-134620000D02*
X197845505Y-134620000D01*
X71110111Y-111539800D02*
X71110111Y-111739293D01*
X127751114Y-134620000D02*
X127949951Y-134620000D01*
X90779720Y-77470159D02*
X90579220Y-77470159D01*
X141929802Y-134620000D02*
X142130104Y-134620000D01*
X177251190Y-77470159D02*
X177051590Y-77470159D01*
X181857086Y-77470159D02*
X181656387Y-77470159D01*
X71110111Y-88362027D02*
X71110111Y-88561025D01*
X74607605Y-134620000D02*
X74806805Y-134620000D01*
X139110954Y-77470159D02*
X138910835Y-77470159D01*
X223510116Y-132320203D02*
X223510116Y-132120504D01*
X162475197Y-77470159D02*
X162274902Y-77470159D01*
X199242599Y-134620000D02*
X199442810Y-134620000D01*
X208435043Y-134620000D02*
X208634628Y-134620000D01*
X223510116Y-93759946D02*
X223510116Y-93560949D01*
X171063393Y-77470159D02*
X170863190Y-77470159D01*
X103371101Y-134620000D02*
X103571503Y-134620000D01*
X127725242Y-77470159D02*
X127526192Y-77470159D01*
X82804504Y-134620000D02*
X83004204Y-134620000D01*
X102570801Y-134620000D02*
X102770599Y-134620000D01*
X174458893Y-77470159D02*
X174258591Y-77470159D01*
X177878197Y-134620000D02*
X178077698Y-134620000D01*
X149093902Y-77470159D02*
X148894203Y-77470159D01*
X108156208Y-77470159D02*
X107957207Y-77470159D01*
X197038879Y-77470159D02*
X196840072Y-77470159D01*
X160477203Y-77470159D02*
X160277397Y-77470159D01*
X184649185Y-77470159D02*
X184448486Y-77470159D01*
X214026245Y-134620000D02*
X214226639Y-134620000D01*
X109752609Y-77470159D02*
X109553512Y-77470159D01*
X203439529Y-134620000D02*
X203640030Y-134620000D01*
X71110111Y-86764051D02*
X71110111Y-86964048D01*
X107558510Y-77470159D02*
X107358810Y-77470159D01*
X101769012Y-77470159D02*
X101569515Y-77470159D01*
X191849579Y-77470159D02*
X191649582Y-77470159D01*
X131745895Y-134620000D02*
X131944656Y-134620000D01*
X87982014Y-77470159D02*
X87781513Y-77470159D01*
X110371502Y-134620000D02*
X110571201Y-134620000D01*
X106559311Y-77470159D02*
X106359310Y-77470159D01*
X201831879Y-77470159D02*
X201631668Y-77470159D01*
X204228989Y-77470159D02*
X204029190Y-77470159D01*
X175457992Y-77470159D02*
X175259193Y-77470159D01*
X222583969Y-134506292D02*
X222759277Y-134419789D01*
X95781299Y-134620000D02*
X95981399Y-134620000D01*
X71110111Y-92356969D02*
X71110111Y-92556966D01*
X71110111Y-86164060D02*
X71110111Y-86365056D01*
X208621689Y-77470159D02*
X208421280Y-77470159D01*
X169691101Y-134620000D02*
X169891098Y-134620000D01*
X89778519Y-77470159D02*
X89578918Y-77470159D01*
X152490204Y-77470159D02*
X152290298Y-77470159D01*
X115544411Y-77470159D02*
X115345108Y-77470159D01*
X71110111Y-92556966D02*
X71110111Y-92756963D01*
X147922409Y-134620000D02*
X148123001Y-134620000D01*
X71110111Y-101150838D02*
X71110111Y-101350835D01*
X124929214Y-77470159D02*
X124729225Y-77470159D01*
X71110111Y-128124898D02*
X71110111Y-128324796D01*
X137713234Y-77470159D02*
X137513138Y-77470159D01*
X137339157Y-134620000D02*
X137538711Y-134620000D01*
X71110111Y-122726598D02*
X71110111Y-122925794D01*
X102171501Y-134620000D02*
X102371101Y-134620000D01*
X71110111Y-99750859D02*
X71110111Y-99950856D01*
X223510116Y-108940908D02*
X223510116Y-108741307D01*
X213426834Y-134620000D02*
X213626053Y-134620000D01*
X71110111Y-102549817D02*
X71110111Y-102750814D01*
X169266594Y-77470159D02*
X169067695Y-77470159D01*
X128150558Y-134620000D02*
X128350983Y-134620000D01*
X223510116Y-94159940D02*
X223510116Y-93959943D01*
X196846298Y-134620000D02*
X197046707Y-134620000D01*
X217420669Y-134620000D02*
X217619263Y-134620000D01*
X223510116Y-110939595D02*
X223510116Y-110739598D01*
X167666290Y-77470159D02*
X167466690Y-77470159D01*
X182670692Y-134620000D02*
X182869797Y-134620000D01*
X203229782Y-77470159D02*
X203030990Y-77470159D01*
X223510116Y-105544080D02*
X223510116Y-105343381D01*
X142304001Y-77470159D02*
X142105202Y-77470159D01*
X146724609Y-134620000D02*
X146924003Y-134620000D01*
X182458191Y-77470159D02*
X182258484Y-77470159D01*
X75007103Y-134620000D02*
X75207603Y-134620000D01*
X180051895Y-77470159D02*
X179851486Y-77470159D01*
X71110111Y-108743474D02*
X71110111Y-108943776D01*
X103772003Y-134620000D02*
X103972702Y-134620000D01*
X71110111Y-93957944D02*
X71110111Y-94156942D01*
X91381321Y-77470159D02*
X91180820Y-77470159D01*
X212416092Y-77470159D02*
X212215790Y-77470159D01*
X126554420Y-134620000D02*
X126754303Y-134620000D01*
X157906097Y-134620000D02*
X158105400Y-134620000D01*
X71110111Y-96753904D02*
X71110111Y-96953900D01*
X223510116Y-80570142D02*
X223510116Y-80370145D01*
X169067695Y-77470159D02*
X168866997Y-77470159D01*
X71122810Y-133315702D02*
X71160709Y-133507703D01*
X71110111Y-106346570D02*
X71110111Y-106545873D01*
X93386402Y-134620000D02*
X93586002Y-134620000D01*
X71110111Y-119928495D02*
X71110111Y-120128293D01*
X155111000Y-134620000D02*
X155310402Y-134620000D01*
X71110111Y-100350850D02*
X71110111Y-100550847D01*
X195842178Y-77470159D02*
X195641876Y-77470159D01*
X157480995Y-77470159D02*
X157281097Y-77470159D01*
X150892403Y-77470159D02*
X150693207Y-77470159D01*
X182869797Y-134620000D02*
X183070091Y-134620000D01*
X151291702Y-77470159D02*
X151091904Y-77470159D01*
X122557720Y-134620000D02*
X122756630Y-134620000D01*
X71110111Y-104147794D02*
X71110111Y-104347791D01*
X209819687Y-77470159D02*
X209619888Y-77470159D01*
X223510116Y-123728109D02*
X223510116Y-123528707D01*
X155286697Y-77470159D02*
X155086197Y-77470159D01*
X165896606Y-134620000D02*
X166095802Y-134620000D01*
X71110111Y-107745168D02*
X71110111Y-107944265D01*
X124356930Y-134620000D02*
X124556572Y-134620000D01*
X71110111Y-115734395D02*
X71110111Y-115933499D01*
X71110111Y-132920598D02*
X71110111Y-133120000D01*
X71110111Y-101749829D02*
X71110111Y-101950826D01*
X141131203Y-134620000D02*
X141330803Y-134620000D01*
X98578003Y-134620000D02*
X98778103Y-134620000D01*
X192648178Y-77470159D02*
X192448776Y-77470159D01*
X71110111Y-103548803D02*
X71110111Y-103747800D01*
X179651192Y-77470159D02*
X179450897Y-77470159D01*
X223510116Y-87366040D02*
X223510116Y-87166043D01*
X223459610Y-78583165D02*
X223396499Y-78396169D01*
X133742653Y-134620000D02*
X133942978Y-134620000D01*
X204627090Y-77470159D02*
X204428284Y-77470159D01*
X188655182Y-77470159D02*
X188455475Y-77470159D01*
X117967598Y-134620000D02*
X118166900Y-134620000D01*
X71110111Y-84966077D02*
X71110111Y-85166074D01*
X223070373Y-134181188D02*
X223199570Y-134034085D01*
X223510116Y-106743291D02*
X223510116Y-106544088D01*
X185865097Y-134620000D02*
X186065094Y-134620000D01*
X110950710Y-77470159D02*
X110750110Y-77470159D01*
X71110111Y-126124593D02*
X71110111Y-126324300D01*
X207821884Y-77470159D02*
X207621475Y-77470159D01*
X223510116Y-107342397D02*
X223510116Y-107143094D01*
X187861801Y-134620000D02*
X188061005Y-134620000D01*
X198445007Y-134620000D02*
X198643906Y-134620000D01*
X71110111Y-107544965D02*
X71110111Y-107745168D01*
X142928001Y-134620000D02*
X143128403Y-134620000D01*
X174283600Y-134620000D02*
X174483505Y-134620000D01*
X125753250Y-134620000D02*
X125953781Y-134620000D01*
X89593807Y-134620000D02*
X89793209Y-134620000D01*
X215422851Y-134620000D02*
X215622360Y-134620000D01*
X143727905Y-134620000D02*
X143927101Y-134620000D01*
X89180618Y-77470159D02*
X88980118Y-77470159D01*
X136738891Y-134620000D02*
X136939247Y-134620000D01*
X161078201Y-77470159D02*
X160877601Y-77470159D01*
X71110111Y-98352880D02*
X71110111Y-98551877D01*
X72036411Y-77584165D02*
X71861111Y-77670163D01*
X210032516Y-134620000D02*
X210231323Y-134620000D01*
X100171516Y-77470159D02*
X99971615Y-77470159D01*
X114768799Y-134620000D02*
X114969101Y-134620000D01*
X173085701Y-134620000D02*
X173286102Y-134620000D01*
X106359310Y-77470159D02*
X106160309Y-77470159D01*
X93180317Y-77470159D02*
X92980118Y-77470159D01*
X158105400Y-134620000D02*
X158304298Y-134620000D01*
X154511703Y-134620000D02*
X154710800Y-134620000D01*
X71110111Y-113538900D02*
X71110111Y-113739194D01*
X103764709Y-77470159D02*
X103564613Y-77470159D01*
X223510116Y-114337995D02*
X223510116Y-114137296D01*
X169664894Y-77470159D02*
X169465698Y-77470159D01*
X73208412Y-77470159D02*
X73008812Y-77470159D01*
X223510116Y-100748845D02*
X223510116Y-100549848D01*
X223510116Y-115335797D02*
X223510116Y-115136098D01*
X187061798Y-134620000D02*
X187261505Y-134620000D01*
X207038528Y-134620000D02*
X207237442Y-134620000D01*
X167694603Y-134620000D02*
X167894005Y-134620000D01*
X174483505Y-134620000D02*
X174683807Y-134620000D01*
X223510116Y-79970151D02*
X223510116Y-79770154D01*
X76607902Y-134620000D02*
X76808102Y-134620000D01*
X223510116Y-122529905D02*
X223510116Y-122330106D01*
X200640610Y-134620000D02*
X200841019Y-134620000D01*
X123556900Y-134620000D02*
X123757118Y-134620000D01*
X193050705Y-134620000D02*
X193250503Y-134620000D01*
X196446808Y-134620000D02*
X196647308Y-134620000D01*
X141905105Y-77470159D02*
X141705406Y-77470159D01*
X223510116Y-86166059D02*
X223510116Y-85966062D01*
X171487602Y-134620000D02*
X171688301Y-134620000D01*
X71110111Y-87763036D02*
X71110111Y-87964032D01*
X223510116Y-127323606D02*
X223510116Y-127124005D01*
X71110111Y-78970166D02*
X71110111Y-79170163D01*
X95377716Y-77470159D02*
X95177517Y-77470159D01*
X169491806Y-134620000D02*
X169691101Y-134620000D01*
X223510116Y-88564023D02*
X223510116Y-88365026D01*
X98378204Y-134620000D02*
X98578003Y-134620000D01*
X170491104Y-134620000D02*
X170689895Y-134620000D01*
X223510116Y-124926511D02*
X223510116Y-124726110D01*
X112562500Y-134620000D02*
X112763199Y-134620000D01*
X76206901Y-134620000D02*
X76407402Y-134620000D01*
X223510116Y-122928106D02*
X223510116Y-122729207D01*
X71110111Y-119529393D02*
X71110111Y-119728795D01*
X75006313Y-77470159D02*
X74807613Y-77470159D01*
X187655777Y-77470159D02*
X187455673Y-77470159D01*
X89578918Y-77470159D02*
X89379619Y-77470159D01*
X172686798Y-134620000D02*
X172886001Y-134620000D01*
X223510116Y-126324910D02*
X223510116Y-126125409D01*
X133518486Y-77470159D02*
X133317894Y-77470159D01*
X191649582Y-77470159D02*
X191449478Y-77470159D01*
X186663101Y-134620000D02*
X186863006Y-134620000D01*
X160902199Y-134620000D02*
X161101799Y-134620000D01*
X128125091Y-77470159D02*
X127924888Y-77470159D01*
X153514603Y-134620000D02*
X153714203Y-134620000D01*
X175855896Y-77470159D02*
X175656891Y-77470159D01*
X71110111Y-92956960D02*
X71110111Y-93156957D01*
X223510116Y-99949857D02*
X223510116Y-99750859D01*
X194245468Y-77470159D02*
X194045486Y-77470159D01*
X71110111Y-97751889D02*
X71110111Y-97952886D01*
X140931206Y-134620000D02*
X141131203Y-134620000D01*
X71110111Y-110741498D02*
X71110111Y-110941198D01*
X223510116Y-117134290D02*
X223510116Y-116935193D01*
X73009106Y-134620000D02*
X73208805Y-134620000D01*
X223510116Y-83765096D02*
X223510116Y-83565099D01*
X192049484Y-77470159D02*
X191849579Y-77470159D01*
X71110111Y-122526197D02*
X71110111Y-122726598D01*
X82404503Y-134620000D02*
X82604603Y-134620000D01*
X78206104Y-134620000D02*
X78406505Y-134620000D01*
X223309173Y-133870687D02*
X223396271Y-133694486D01*
X202039810Y-134620000D02*
X202239029Y-134620000D01*
X120536037Y-77470159D02*
X120336696Y-77470159D01*
X71110111Y-103148809D02*
X71110111Y-103348806D01*
X194848801Y-134620000D02*
X195049011Y-134620000D01*
X161702103Y-134620000D02*
X161901100Y-134620000D01*
X137114296Y-77470159D02*
X136914024Y-77470159D01*
X122932026Y-77470159D02*
X122732017Y-77470159D01*
X75206013Y-77470159D02*
X75006313Y-77470159D01*
X71110111Y-97152898D02*
X71110111Y-97351895D01*
X93786003Y-134620000D02*
X93986301Y-134620000D01*
X223510116Y-100150853D02*
X223510116Y-99949857D01*
X213214889Y-77470159D02*
X213014389Y-77470159D01*
X223510116Y-115936795D02*
X223510116Y-115736097D01*
X190256599Y-134620000D02*
X190456802Y-134620000D01*
X222924301Y-77781163D02*
X222760788Y-77671163D01*
X71110111Y-130721494D02*
X71110111Y-130920896D01*
X201440018Y-134620000D02*
X201640213Y-134620000D01*
X175483002Y-134620000D02*
X175682098Y-134620000D01*
X71110111Y-128724500D02*
X71110111Y-128924993D01*
X201040909Y-134620000D02*
X201240219Y-134620000D01*
X187462005Y-134620000D02*
X187661499Y-134620000D01*
X222205307Y-77483159D02*
X222010101Y-77470159D01*
X157706299Y-134620000D02*
X157906097Y-134620000D01*
X101176002Y-134620000D02*
X101374801Y-134620000D01*
X87797310Y-134620000D02*
X87996208Y-134620000D01*
X114167400Y-134620000D02*
X114367901Y-134620000D01*
X180075302Y-134620000D02*
X180274902Y-134620000D01*
X188255676Y-77470159D02*
X188055778Y-77470159D01*
X223510116Y-116535993D02*
X223510116Y-116335996D01*
X126954002Y-134620000D02*
X127153541Y-134620000D01*
X210430923Y-134620000D02*
X210631225Y-134620000D01*
X167293899Y-134620000D02*
X167494507Y-134620000D01*
X168265900Y-77470159D02*
X168065895Y-77470159D01*
X215212479Y-77470159D02*
X215013290Y-77470159D01*
X191254700Y-134620000D02*
X191454208Y-134620000D01*
X223510116Y-124726110D02*
X223510116Y-124526113D01*
X167094101Y-134620000D02*
X167293899Y-134620000D01*
X127924888Y-77470159D02*
X127725242Y-77470159D01*
X113766403Y-134620000D02*
X113966900Y-134620000D01*
X223510116Y-112338994D02*
X223510116Y-112138890D01*
X101169617Y-77470159D02*
X100969314Y-77470159D01*
X195847916Y-134620000D02*
X196047012Y-134620000D01*
X71110111Y-101950826D02*
X71110111Y-102150823D01*
X118139309Y-77470159D02*
X117939110Y-77470159D01*
X136939247Y-134620000D02*
X137139328Y-134620000D01*
X170091705Y-134620000D02*
X170291801Y-134620000D01*
X132145119Y-134620000D02*
X132345352Y-134620000D01*
X71110111Y-124325193D02*
X71110111Y-124524793D01*
X223510116Y-121729901D02*
X223510116Y-121530103D01*
X139134666Y-134620000D02*
X139333603Y-134620000D01*
X172859497Y-77470159D02*
X172660095Y-77470159D01*
X146697906Y-77470159D02*
X146497299Y-77470159D01*
X130748901Y-134620000D02*
X130948715Y-134620000D01*
X106364601Y-134620000D02*
X106564499Y-134620000D01*
X169891098Y-134620000D02*
X170091705Y-134620000D01*
X111550209Y-77470159D02*
X111350811Y-77470159D01*
X71110111Y-132519994D02*
X71110111Y-132720693D01*
X198244507Y-134620000D02*
X198445007Y-134620000D01*
X136514885Y-77470159D02*
X136316002Y-77470159D01*
X211616089Y-77470159D02*
X211416687Y-77470159D01*
X83590710Y-77470159D02*
X83390411Y-77470159D01*
X191852905Y-134620000D02*
X192052109Y-134620000D01*
X124556572Y-134620000D02*
X124756069Y-134620000D01*
X123530895Y-77470159D02*
X123331474Y-77470159D01*
X71110111Y-87964032D02*
X71110111Y-88163030D01*
X105960708Y-77470159D02*
X105760311Y-77470159D01*
X71110111Y-127323796D02*
X71110111Y-127523198D01*
X218812698Y-77470159D02*
X218613388Y-77470159D01*
X109553512Y-77470159D02*
X109353508Y-77470159D01*
X71110111Y-114937093D02*
X71110111Y-115136495D01*
X173258591Y-77470159D02*
X173058990Y-77470159D01*
X73608406Y-134620000D02*
X73807506Y-134620000D01*
X91788608Y-134620000D02*
X91988308Y-134620000D01*
X223510116Y-113139096D02*
X223510116Y-112938298D01*
X195247909Y-134620000D02*
X195448318Y-134620000D01*
X98573215Y-77470159D02*
X98372715Y-77470159D01*
X145698402Y-77470159D02*
X145499603Y-77470159D01*
X116143608Y-77470159D02*
X115944206Y-77470159D01*
X107957207Y-77470159D02*
X107757309Y-77470159D01*
X223510116Y-111340192D02*
X223510116Y-111140195D01*
X164071396Y-77470159D02*
X163871399Y-77470159D01*
X71110111Y-83366101D02*
X71110111Y-83566098D01*
X223510116Y-95157926D02*
X223510116Y-94958928D01*
X134741882Y-134620000D02*
X134941017Y-134620000D01*
X174683807Y-134620000D02*
X174883499Y-134620000D01*
X223510116Y-125926007D02*
X223510116Y-125725309D01*
X88381615Y-77470159D02*
X88181515Y-77470159D01*
X116170200Y-134620000D02*
X116370201Y-134620000D01*
X155509300Y-134620000D02*
X155709503Y-134620000D01*
X71110111Y-126723798D02*
X71110111Y-126922994D01*
X134717735Y-77470159D02*
X134517113Y-77470159D01*
X223510116Y-97750890D02*
X223510116Y-97551892D01*
X223510116Y-95356923D02*
X223510116Y-95157926D01*
X206624084Y-77470159D02*
X206424484Y-77470159D01*
X183669494Y-134620000D02*
X183870193Y-134620000D01*
X71110111Y-90161000D02*
X71110111Y-90359998D01*
X150719299Y-134620000D02*
X150918098Y-134620000D01*
X94378715Y-77470159D02*
X94179516Y-77470159D01*
X125728775Y-77470159D02*
X125528946Y-77470159D01*
X143128403Y-134620000D02*
X143328606Y-134620000D01*
X152715202Y-134620000D02*
X152914902Y-134620000D01*
X71110111Y-93757947D02*
X71110111Y-93957944D01*
X173458389Y-77470159D02*
X173258591Y-77470159D01*
X82990612Y-77470159D02*
X82791313Y-77470159D01*
X184049087Y-77470159D02*
X183850281Y-77470159D01*
X71110111Y-105146779D02*
X71110111Y-105346677D01*
X152914902Y-134620000D02*
X153114097Y-134620000D01*
X144100105Y-77470159D02*
X143901001Y-77470159D01*
X85985714Y-77470159D02*
X85785915Y-77470159D01*
X178077698Y-134620000D02*
X178276497Y-134620000D01*
X124729225Y-77470159D02*
X124528564Y-77470159D01*
X223510116Y-105943586D02*
X223510116Y-105743383D01*
X71110111Y-96152913D02*
X71110111Y-96353910D01*
X96781002Y-134620000D02*
X96980701Y-134620000D01*
X184069992Y-134620000D02*
X184268791Y-134620000D01*
X116969700Y-134620000D02*
X117169399Y-134620000D01*
X219414368Y-134620000D02*
X219614059Y-134620000D01*
X170889297Y-134620000D02*
X171089401Y-134620000D01*
X71861111Y-77670163D02*
X71697510Y-77780164D01*
X129748688Y-134620000D02*
X129947586Y-134620000D01*
X86185314Y-77470159D02*
X85985714Y-77470159D01*
X186065094Y-134620000D02*
X186264198Y-134620000D01*
X176281204Y-134620000D02*
X176481003Y-134620000D01*
X223510116Y-115736097D02*
X223510116Y-115535794D01*
X223510116Y-92959958D02*
X223510116Y-92759961D01*
X71110111Y-89560010D02*
X71110111Y-89760007D01*
X71110111Y-124524793D02*
X71110111Y-124723798D01*
X87198109Y-134620000D02*
X87398308Y-134620000D01*
X223510116Y-101948827D02*
X223510116Y-101747831D01*
X158304298Y-134620000D02*
X158504196Y-134620000D01*
X117768200Y-134620000D02*
X117967598Y-134620000D01*
X80393711Y-77470159D02*
X80194610Y-77470159D01*
X205041427Y-134620000D02*
X205240738Y-134620000D01*
X100574802Y-134620000D02*
X100775001Y-134620000D01*
X82591114Y-77470159D02*
X82392513Y-77470159D01*
X100975403Y-134620000D02*
X101176002Y-134620000D01*
X223510116Y-97351895D02*
X223510116Y-97152898D01*
X208021377Y-77470159D02*
X207821884Y-77470159D01*
X183070091Y-134620000D02*
X183269493Y-134620000D01*
X82204204Y-134620000D02*
X82404503Y-134620000D01*
X214824447Y-134620000D02*
X215023453Y-134620000D01*
X71110111Y-118729596D02*
X71110111Y-118930295D01*
X71110111Y-118930295D02*
X71110111Y-119130094D01*
X71110111Y-83767095D02*
X71110111Y-83967092D01*
X71110111Y-97952886D02*
X71110111Y-98152883D01*
X223510116Y-81369130D02*
X223510116Y-81169133D01*
X130720802Y-77470159D02*
X130521728Y-77470159D01*
X195242569Y-77470159D02*
X195043579Y-77470159D01*
X71110111Y-97351895D02*
X71110111Y-97551892D01*
X178875900Y-134620000D02*
X179075897Y-134620000D01*
X223510116Y-120333402D02*
X223510116Y-120133603D01*
X71110111Y-115335797D02*
X71110111Y-115535199D01*
X71110111Y-132120397D02*
X71110111Y-132320493D01*
X125953781Y-134620000D02*
X126154159Y-134620000D01*
X114345409Y-77470159D02*
X114146610Y-77470159D01*
X223510116Y-96554906D02*
X223510116Y-96355909D01*
X71110111Y-82166120D02*
X71110111Y-82366117D01*
X139734306Y-134620000D02*
X139934204Y-134620000D01*
X71110111Y-80370145D02*
X71110111Y-80569142D01*
X92779419Y-77470159D02*
X92580520Y-77470159D01*
X182072296Y-134620000D02*
X182271988Y-134620000D01*
X113565803Y-134620000D02*
X113766403Y-134620000D01*
X143328606Y-134620000D02*
X143528404Y-134620000D01*
X193644882Y-77470159D02*
X193444275Y-77470159D01*
X196042282Y-77470159D02*
X195842178Y-77470159D01*
X145299507Y-77470159D02*
X145099808Y-77470159D01*
X71110111Y-81965123D02*
X71110111Y-82166120D01*
X181073700Y-134620000D02*
X181273392Y-134620000D01*
X163699905Y-134620000D02*
X163899505Y-134620000D01*
X81393211Y-77470159D02*
X81193512Y-77470159D01*
X222759277Y-134419789D02*
X222922867Y-134310491D01*
X110571201Y-134620000D02*
X110770000Y-134620000D01*
X176681198Y-134620000D02*
X176880699Y-134620000D01*
X207422180Y-77470159D02*
X207221969Y-77470159D01*
X155086197Y-77470159D02*
X154886001Y-77470159D01*
X182271988Y-134620000D02*
X182470795Y-134620000D01*
X117340607Y-77470159D02*
X117141109Y-77470159D01*
X223510116Y-109740102D02*
X223510116Y-109540204D01*
X102970703Y-134620000D02*
X103170799Y-134620000D01*
X221611465Y-134620000D02*
X221810776Y-134620000D01*
X78398010Y-77470159D02*
X78199409Y-77470159D01*
X131148323Y-134620000D02*
X131347725Y-134620000D01*
X223510116Y-127922506D02*
X223510116Y-127722402D01*
X71110111Y-104347791D02*
X71110111Y-104546788D01*
X192052109Y-134620000D02*
X192251694Y-134620000D01*
X108356109Y-77470159D02*
X108156208Y-77470159D01*
X124955421Y-134620000D02*
X125154610Y-134620000D01*
X71110111Y-116932294D02*
X71110111Y-117131299D01*
X216414200Y-77470159D02*
X216213791Y-77470159D01*
X131321243Y-77470159D02*
X131120567Y-77470159D01*
X71110111Y-124723798D02*
X71110111Y-124924100D01*
X223510116Y-96355909D02*
X223510116Y-96156911D01*
X223071304Y-77910161D02*
X222924301Y-77781163D01*
X139934204Y-134620000D02*
X140133804Y-134620000D01*
X76402908Y-77470159D02*
X76203209Y-77470159D01*
X71311210Y-78220166D02*
X71224110Y-78396169D01*
X153913399Y-134620000D02*
X154112198Y-134620000D01*
X71110111Y-122925794D02*
X71110111Y-123125898D01*
X182856689Y-77470159D02*
X182657989Y-77470159D01*
X134941017Y-134620000D02*
X135139908Y-134620000D01*
X205227081Y-77470159D02*
X205026474Y-77470159D01*
X223510116Y-102746816D02*
X223510116Y-102547818D01*
X109369102Y-134620000D02*
X109569702Y-134620000D01*
X71110111Y-116532994D02*
X71110111Y-116732793D01*
X123757118Y-134620000D02*
X123957199Y-134620000D01*
X142330002Y-134620000D02*
X142529602Y-134620000D01*
X192251694Y-134620000D02*
X192451706Y-134620000D01*
X223510116Y-126125409D02*
X223510116Y-125926007D01*
X223510116Y-128924306D02*
X223510116Y-128724408D01*
X201631668Y-77470159D02*
X201432968Y-77470159D01*
X182258484Y-77470159D02*
X182057785Y-77470159D01*
X218012405Y-77470159D02*
X217812195Y-77470159D01*
X97174618Y-77470159D02*
X96974617Y-77470159D01*
X150092300Y-77470159D02*
X149892700Y-77470159D01*
X194844375Y-77470159D02*
X194644882Y-77470159D01*
X169465698Y-77470159D02*
X169266594Y-77470159D01*
X168292404Y-134620000D02*
X168492706Y-134620000D01*
X71110111Y-117930394D02*
X71110111Y-118129796D01*
X223309997Y-78221166D02*
X223200699Y-78058164D01*
X223510116Y-104544789D02*
X223510116Y-104344793D01*
X112947811Y-77470159D02*
X112748512Y-77470159D01*
X170291801Y-134620000D02*
X170491104Y-134620000D01*
X210417786Y-77470159D02*
X210217880Y-77470159D01*
X207836929Y-134620000D02*
X208036941Y-134620000D01*
X222010101Y-77470159D02*
X221810806Y-77470159D01*
X71110111Y-109542081D02*
X71110111Y-109742078D01*
X164698204Y-134620000D02*
X164897903Y-134620000D01*
X71310306Y-133869001D02*
X71419605Y-134032598D01*
X223510116Y-80970136D02*
X223510116Y-80771138D01*
X223510116Y-113737195D02*
X223510116Y-113537892D01*
X124528564Y-77470159D02*
X124328544Y-77470159D01*
X79995312Y-77470159D02*
X79795910Y-77470159D01*
X223510116Y-128123006D02*
X223510116Y-127922506D01*
X223510116Y-94958928D02*
X223510116Y-94758931D01*
X105166900Y-134620000D02*
X105366302Y-134620000D01*
X178276497Y-134620000D02*
X178476700Y-134620000D01*
X168466095Y-77470159D02*
X168265900Y-77470159D01*
X71110111Y-88762021D02*
X71110111Y-88962018D01*
X115970199Y-134620000D02*
X116170200Y-134620000D01*
X157681099Y-77470159D02*
X157480995Y-77470159D01*
X180452789Y-77470159D02*
X180252395Y-77470159D01*
X193046585Y-77470159D02*
X192847473Y-77470159D01*
X86199009Y-134620000D02*
X86398609Y-134620000D01*
X115744408Y-77470159D02*
X115544411Y-77470159D01*
X96980701Y-134620000D02*
X97180603Y-134620000D01*
X183870193Y-134620000D02*
X184069992Y-134620000D01*
X71110111Y-108144666D02*
X71110111Y-108343869D01*
X139709205Y-77470159D02*
X139509323Y-77470159D01*
X223510116Y-125326009D02*
X223510116Y-125126012D01*
X101569515Y-77470159D02*
X101369713Y-77470159D01*
X91781921Y-77470159D02*
X91581722Y-77470159D01*
X71110111Y-87564038D02*
X71110111Y-87763036D01*
X72035606Y-134505994D02*
X72221706Y-134569196D01*
X185251175Y-77470159D02*
X185050476Y-77470159D01*
X223510116Y-125725309D02*
X223510116Y-125526212D01*
X223510116Y-97152898D02*
X223510116Y-96953900D01*
X219012695Y-77470159D02*
X218812698Y-77470159D01*
X219215072Y-134620000D02*
X219414368Y-134620000D01*
X71110111Y-95553922D02*
X71110111Y-95753919D01*
X173058990Y-77470159D02*
X172859497Y-77470159D01*
X206424484Y-77470159D02*
X206224182Y-77470159D01*
X71110111Y-104546788D02*
X71110111Y-104747785D01*
X73607914Y-77470159D02*
X73407913Y-77470159D01*
X113148010Y-77470159D02*
X112947811Y-77470159D01*
X142529602Y-134620000D02*
X142729004Y-134620000D01*
X145526405Y-134620000D02*
X145726105Y-134620000D01*
X122159519Y-134620000D02*
X122358681Y-134620000D01*
X95581600Y-134620000D02*
X95781299Y-134620000D01*
X197439682Y-77470159D02*
X197239380Y-77470159D01*
X190249878Y-77470159D02*
X190050979Y-77470159D01*
X92580520Y-77470159D02*
X92381321Y-77470159D01*
X209220795Y-77470159D02*
X209021393Y-77470159D01*
X75407402Y-134620000D02*
X75607601Y-134620000D01*
X222398605Y-77521161D02*
X222205307Y-77483159D01*
X180873093Y-134620000D02*
X181073700Y-134620000D01*
X111366100Y-134620000D02*
X111564899Y-134620000D01*
X95177517Y-77470159D02*
X94977817Y-77470159D01*
X78607105Y-134620000D02*
X78807606Y-134620000D01*
X223510116Y-94359937D02*
X223510116Y-94159940D01*
X222010177Y-134620000D02*
X222205978Y-134607297D01*
X181054489Y-77470159D02*
X180853897Y-77470159D01*
X195641876Y-77470159D02*
X195441376Y-77470159D01*
X223510116Y-90362996D02*
X223510116Y-90162999D01*
X71110111Y-125725095D02*
X71110111Y-125924199D01*
X177479202Y-134620000D02*
X177677994Y-134620000D01*
X150520202Y-134620000D02*
X150719299Y-134620000D01*
X147895706Y-77470159D02*
X147696304Y-77470159D01*
X97581402Y-134620000D02*
X97780201Y-134620000D01*
X156284195Y-77470159D02*
X156084099Y-77470159D01*
X183850281Y-77470159D02*
X183651581Y-77470159D01*
X122133407Y-77470159D02*
X121933536Y-77470159D01*
X93380115Y-77470159D02*
X93180317Y-77470159D01*
X112748512Y-77470159D02*
X112548012Y-77470159D01*
X153714203Y-134620000D02*
X153913399Y-134620000D01*
X185451782Y-77470159D02*
X185251175Y-77470159D01*
X167267395Y-77470159D02*
X167068191Y-77470159D01*
X154710800Y-134620000D02*
X154911102Y-134620000D01*
X80194610Y-77470159D02*
X79995312Y-77470159D01*
X223510116Y-86766050D02*
X223510116Y-86566053D01*
X101772800Y-134620000D02*
X101972099Y-134620000D01*
X223510116Y-109339704D02*
X223510116Y-109139905D01*
X196647308Y-134620000D02*
X196846298Y-134620000D01*
X108366402Y-134620000D02*
X108566902Y-134620000D01*
X164472099Y-77470159D02*
X164271599Y-77470159D01*
X130122360Y-77470159D02*
X129922081Y-77470159D01*
X128551224Y-134620000D02*
X128751274Y-134620000D01*
X223510116Y-120732602D02*
X223510116Y-120533101D01*
X173658295Y-77470159D02*
X173458389Y-77470159D01*
X99372413Y-77470159D02*
X99172016Y-77470159D01*
X201233780Y-77470159D02*
X201034271Y-77470159D01*
X151516899Y-134620000D02*
X151717300Y-134620000D01*
X148921905Y-134620000D02*
X149120705Y-134620000D01*
X93187301Y-134620000D02*
X93386402Y-134620000D01*
X72414409Y-77483159D02*
X72222511Y-77521161D01*
X71110111Y-79970151D02*
X71110111Y-80170148D01*
X71110111Y-94955930D02*
X71110111Y-95154927D01*
X223510116Y-105343381D02*
X223510116Y-105143781D01*
X223510116Y-121530103D02*
X223510116Y-121329999D01*
X71110111Y-132720693D02*
X71110111Y-132920598D01*
X200834274Y-77470159D02*
X200633972Y-77470159D01*
X204241531Y-134620000D02*
X204441727Y-134620000D01*
X99971615Y-77470159D02*
X99771515Y-77470159D01*
X200241623Y-134620000D02*
X200440811Y-134620000D01*
X83789509Y-77470159D02*
X83590710Y-77470159D01*
X120736076Y-77470159D02*
X120536037Y-77470159D01*
X166869194Y-77470159D02*
X166670296Y-77470159D01*
X211015884Y-77470159D02*
X210815994Y-77470159D01*
X180274902Y-134620000D02*
X180473694Y-134620000D01*
X204428284Y-77470159D02*
X204228989Y-77470159D01*
X71110111Y-106946271D02*
X71110111Y-107146070D01*
X163299003Y-134620000D02*
X163499702Y-134620000D01*
X71110111Y-95953916D02*
X71110111Y-96152913D01*
X111350811Y-77470159D02*
X111150310Y-77470159D01*
X179475891Y-134620000D02*
X179675796Y-134620000D01*
X174883499Y-134620000D02*
X175082397Y-134620000D01*
X133542099Y-134620000D02*
X133742653Y-134620000D01*
X91589310Y-134620000D02*
X91788608Y-134620000D01*
X129523178Y-77470159D02*
X129323158Y-77470159D01*
X104569298Y-134620000D02*
X104768402Y-134620000D01*
X71110111Y-124125394D02*
X71110111Y-124325193D01*
X223510116Y-91561978D02*
X223510116Y-91362981D01*
X71110111Y-100150853D02*
X71110111Y-100350850D01*
X175881805Y-134620000D02*
X176081901Y-134620000D01*
X114545009Y-77470159D02*
X114345409Y-77470159D01*
X223510116Y-120533101D02*
X223510116Y-120333402D01*
X113966900Y-134620000D02*
X114167400Y-134620000D01*
X85399505Y-134620000D02*
X85598907Y-134620000D01*
X86783314Y-77470159D02*
X86583412Y-77470159D01*
X135516067Y-77470159D02*
X135316513Y-77470159D01*
X118963398Y-134620000D02*
X119162300Y-134620000D01*
X138536163Y-134620000D02*
X138735947Y-134620000D01*
X176481003Y-134620000D02*
X176681198Y-134620000D01*
X165696899Y-134620000D02*
X165896606Y-134620000D01*
X114944511Y-77470159D02*
X114745411Y-77470159D01*
X223510116Y-110340200D02*
X223510116Y-110139402D01*
X223510116Y-123927007D02*
X223510116Y-123728109D01*
X71110111Y-97551892D02*
X71110111Y-97751889D01*
X71110111Y-112339498D02*
X71110111Y-112539296D01*
X175060493Y-77470159D02*
X174859794Y-77470159D01*
X223510116Y-103545804D02*
X223510116Y-103346807D01*
X114367901Y-134620000D02*
X114568397Y-134620000D01*
X71110111Y-109742078D02*
X71110111Y-109941899D01*
X71110111Y-112940297D02*
X71110111Y-113139493D01*
X71110111Y-82366117D02*
X71110111Y-82567113D01*
X138735947Y-134620000D02*
X138935448Y-134620000D01*
X147723106Y-134620000D02*
X147922409Y-134620000D01*
X128951141Y-134620000D02*
X129150810Y-134620000D01*
X220013260Y-134620000D02*
X220213760Y-134620000D01*
X168492706Y-134620000D02*
X168692398Y-134620000D01*
X71110111Y-114737699D02*
X71110111Y-114937093D01*
X193850113Y-134620000D02*
X194049408Y-134620000D01*
X147323402Y-134620000D02*
X147523407Y-134620000D01*
X209434128Y-134620000D02*
X209633926Y-134620000D01*
X223510116Y-110139402D02*
X223510116Y-109939405D01*
X223510116Y-90562993D02*
X223510116Y-90362996D01*
X177051590Y-77470159D02*
X176852096Y-77470159D01*
X71110111Y-98750875D02*
X71110111Y-98950872D01*
X192451706Y-134620000D02*
X192652099Y-134620000D01*
X158280998Y-77470159D02*
X158082001Y-77470159D01*
X215622360Y-134620000D02*
X215821945Y-134620000D01*
X105565800Y-134620000D02*
X105765400Y-134620000D01*
X220413971Y-134620000D02*
X220613571Y-134620000D01*
X79407806Y-134620000D02*
X79607006Y-134620000D01*
X142729004Y-134620000D02*
X142928001Y-134620000D01*
X84202503Y-134620000D02*
X84402405Y-134620000D01*
X141506203Y-77470159D02*
X141305702Y-77470159D01*
X211029526Y-134620000D02*
X211229935Y-134620000D01*
X133343208Y-134620000D02*
X133542099Y-134620000D01*
X113747208Y-77470159D02*
X113546608Y-77470159D01*
X206822983Y-77470159D02*
X206624084Y-77470159D01*
X178850197Y-77470159D02*
X178650101Y-77470159D01*
X180673797Y-134620000D02*
X180873093Y-134620000D01*
X189059296Y-134620000D02*
X189259300Y-134620000D01*
X115944206Y-77470159D02*
X115744408Y-77470159D01*
X223510116Y-81767125D02*
X223510116Y-81568128D01*
X185652374Y-77470159D02*
X185451782Y-77470159D01*
X223510116Y-118132589D02*
X223510116Y-117932691D01*
X74207706Y-134620000D02*
X74407406Y-134620000D01*
X71110111Y-130920896D02*
X71110111Y-131119893D01*
X121561302Y-134620000D02*
X121760830Y-134620000D01*
X134117363Y-77470159D02*
X133918228Y-77470159D01*
X120762031Y-134620000D02*
X120962021Y-134620000D01*
X111564899Y-134620000D02*
X111763599Y-134620000D01*
X172660095Y-77470159D02*
X172460792Y-77470159D01*
X152117004Y-134620000D02*
X152316299Y-134620000D01*
X207237442Y-134620000D02*
X207437134Y-134620000D01*
X223510116Y-125126012D02*
X223510116Y-124926511D01*
X191654098Y-134620000D02*
X191852905Y-134620000D01*
X223510116Y-79369161D02*
X223510116Y-79170163D01*
X182657989Y-77470159D02*
X182458191Y-77470159D01*
X223510116Y-94558934D02*
X223510116Y-94359937D01*
X223497513Y-78774167D02*
X223459610Y-78583165D01*
X71110111Y-91357984D02*
X71110111Y-91556981D01*
X87398308Y-134620000D02*
X87597408Y-134620000D01*
X98772415Y-77470159D02*
X98573215Y-77470159D01*
X170063690Y-77470159D02*
X169864197Y-77470159D01*
X186854980Y-77470159D02*
X186654678Y-77470159D01*
X71110111Y-82567113D02*
X71110111Y-82766111D01*
X102770599Y-134620000D02*
X102970703Y-134620000D01*
X172460792Y-77470159D02*
X172261597Y-77470159D01*
X198438476Y-77470159D02*
X198237686Y-77470159D01*
X135540695Y-134620000D02*
X135740715Y-134620000D01*
X223510116Y-78970166D02*
X223497513Y-78774167D01*
X223510116Y-130523709D02*
X223510116Y-130324712D01*
X147296905Y-77470159D02*
X147096901Y-77470159D01*
X100775001Y-134620000D02*
X100975403Y-134620000D01*
X130548881Y-134620000D02*
X130748901Y-134620000D01*
X108555206Y-77470159D02*
X108356109Y-77470159D01*
X71110111Y-79570157D02*
X71110111Y-79770154D01*
X78597809Y-77470159D02*
X78398010Y-77470159D01*
X109154411Y-77470159D02*
X108954307Y-77470159D01*
X103365612Y-77470159D02*
X103166115Y-77470159D01*
X71110111Y-121326299D02*
X71110111Y-121527097D01*
X130348656Y-134620000D02*
X130548881Y-134620000D01*
X223396271Y-133694486D02*
X223459473Y-133508489D01*
X223510116Y-125526212D02*
X223510116Y-125326009D01*
X71110111Y-79370160D02*
X71110111Y-79570157D01*
X151317703Y-134620000D02*
X151516899Y-134620000D01*
X71110111Y-129722295D02*
X71110111Y-129923093D01*
X196441681Y-77470159D02*
X196242081Y-77470159D01*
X219812759Y-134620000D02*
X220013260Y-134620000D01*
X110151611Y-77470159D02*
X109952614Y-77470159D01*
X214425644Y-134620000D02*
X214625046Y-134620000D01*
X154486496Y-77470159D02*
X154287102Y-77470159D01*
X222760788Y-77671163D02*
X222584701Y-77584165D01*
X132545372Y-134620000D02*
X132745163Y-134620000D01*
X119960979Y-134620000D02*
X120161400Y-134620000D01*
X202831680Y-77470159D02*
X202631882Y-77470159D01*
X201840927Y-134620000D02*
X202039810Y-134620000D01*
X144299606Y-77470159D02*
X144100105Y-77470159D01*
X135716095Y-77470159D02*
X135516067Y-77470159D01*
X78997909Y-77470159D02*
X78798408Y-77470159D01*
X223510116Y-122729207D02*
X223510116Y-122529905D01*
X223510116Y-101348836D02*
X223510116Y-101148839D01*
X127125755Y-77470159D02*
X126925735Y-77470159D01*
X223510116Y-108142202D02*
X223510116Y-107941899D01*
X85199505Y-134620000D02*
X85399505Y-134620000D01*
X223510116Y-96753904D02*
X223510116Y-96554906D01*
X223510116Y-99550862D02*
X223510116Y-99350866D01*
X71110111Y-94356939D02*
X71110111Y-94556935D01*
X71110111Y-123125898D02*
X71110111Y-123326696D01*
X71110111Y-95353925D02*
X71110111Y-95553922D01*
X71110111Y-117131299D02*
X71110111Y-117331494D01*
X223510116Y-102147824D02*
X223510116Y-101948827D01*
X74806805Y-134620000D02*
X75007103Y-134620000D01*
X159279899Y-77470159D02*
X159079597Y-77470159D01*
X172261597Y-77470159D02*
X172062591Y-77470159D01*
X176852096Y-77470159D02*
X176652695Y-77470159D01*
X71110111Y-100949842D02*
X71110111Y-101150838D01*
X71110111Y-111739293D02*
X71110111Y-111939496D01*
X205240738Y-134620000D02*
X205439743Y-134620000D01*
X223510116Y-118932996D02*
X223510116Y-118732793D01*
X171888306Y-134620000D02*
X172087601Y-134620000D01*
X180853897Y-77470159D02*
X180653396Y-77470159D01*
X163499702Y-134620000D02*
X163699905Y-134620000D01*
X71110111Y-116332898D02*
X71110111Y-116532994D01*
X168692398Y-134620000D02*
X168891502Y-134620000D01*
X107364799Y-134620000D02*
X107565002Y-134620000D01*
X90378818Y-77470159D02*
X90178520Y-77470159D01*
X152690498Y-77470159D02*
X152490204Y-77470159D01*
X184867691Y-134620000D02*
X185066795Y-134620000D01*
X129323158Y-77470159D02*
X129123688Y-77470159D01*
X126154159Y-134620000D02*
X126354370Y-134620000D01*
X100371315Y-77470159D02*
X100171516Y-77470159D01*
X177279693Y-134620000D02*
X177479202Y-134620000D01*
X205026474Y-77470159D02*
X204827072Y-77470159D01*
X213413681Y-77470159D02*
X213214889Y-77470159D01*
X223510116Y-98750875D02*
X223510116Y-98550878D01*
X220012710Y-77470159D02*
X219813492Y-77470159D01*
X96175316Y-77470159D02*
X95976417Y-77470159D01*
X71110111Y-118329999D02*
X71110111Y-118529500D01*
X109971100Y-134620000D02*
X110171802Y-134620000D01*
X189652679Y-77470159D02*
X189453384Y-77470159D01*
X163099304Y-134620000D02*
X163299003Y-134620000D01*
X190655899Y-134620000D02*
X190855606Y-134620000D01*
X197639572Y-77470159D02*
X197439682Y-77470159D01*
X160677299Y-77470159D02*
X160477203Y-77470159D01*
X223510116Y-85366071D02*
X223510116Y-85167073D01*
X129350296Y-134620000D02*
X129549583Y-134620000D01*
X156683296Y-77470159D02*
X156484497Y-77470159D01*
X223510116Y-114137296D02*
X223510116Y-113937093D01*
X215023453Y-134620000D02*
X215223556Y-134620000D01*
X109770401Y-134620000D02*
X109971100Y-134620000D01*
X120161400Y-134620000D02*
X120361721Y-134620000D01*
X223510116Y-119333303D02*
X223510116Y-119133199D01*
X134542518Y-134620000D02*
X134741882Y-134620000D01*
X71110111Y-105346677D02*
X71110111Y-105545774D01*
X120136837Y-77470159D02*
X119936466Y-77470159D01*
X71110111Y-89162015D02*
X71110111Y-89361013D01*
X101968216Y-77470159D02*
X101769012Y-77470159D01*
X167068191Y-77470159D02*
X166869194Y-77470159D01*
X190848282Y-77470159D02*
X190647568Y-77470159D01*
X133942978Y-134620000D02*
X134143051Y-134620000D01*
X223510116Y-127124005D02*
X223510116Y-126924009D01*
X103564613Y-77470159D02*
X103365612Y-77470159D01*
X149320801Y-134620000D02*
X149520500Y-134620000D01*
X173858291Y-77470159D02*
X173658295Y-77470159D01*
X113346908Y-77470159D02*
X113148010Y-77470159D01*
X217612503Y-77470159D02*
X217412704Y-77470159D01*
X151692299Y-77470159D02*
X151491897Y-77470159D01*
X183452881Y-77470159D02*
X183254181Y-77470159D01*
X71110111Y-127723600D02*
X71110111Y-127924398D01*
X79208107Y-134620000D02*
X79407806Y-134620000D01*
X87996208Y-134620000D02*
X88195808Y-134620000D01*
X71110111Y-102949811D02*
X71110111Y-103148809D01*
X185666000Y-134620000D02*
X185865097Y-134620000D01*
X71110111Y-81765126D02*
X71110111Y-81965123D01*
X133317894Y-77470159D02*
X133117805Y-77470159D01*
X103170799Y-134620000D02*
X103371101Y-134620000D01*
X223510116Y-99750859D02*
X223510116Y-99550862D01*
X142105202Y-77470159D02*
X141905105Y-77470159D01*
X197239380Y-77470159D02*
X197038879Y-77470159D01*
X218413406Y-77470159D02*
X218212906Y-77470159D01*
X166069092Y-77470159D02*
X165868996Y-77470159D01*
X132944733Y-134620000D02*
X133144089Y-134620000D01*
X83203606Y-134620000D02*
X83404205Y-134620000D01*
X127153541Y-134620000D02*
X127352913Y-134620000D01*
X186053375Y-77470159D02*
X185852875Y-77470159D01*
X71110111Y-109941899D02*
X71110111Y-110141599D01*
X223510116Y-109939405D02*
X223510116Y-109740102D01*
X153489105Y-77470159D02*
X153289398Y-77470159D01*
X223510116Y-92560964D02*
X223510116Y-92360967D01*
X128751274Y-134620000D02*
X128951141Y-134620000D01*
X97774017Y-77470159D02*
X97573616Y-77470159D01*
X78807606Y-134620000D02*
X79008007Y-134620000D01*
X119760448Y-134620000D02*
X119960979Y-134620000D01*
X223510116Y-106343389D02*
X223510116Y-106143689D01*
X71110111Y-111340993D02*
X71110111Y-111539800D01*
X221011902Y-77470159D02*
X220812805Y-77470159D01*
X204841736Y-134620000D02*
X205041427Y-134620000D01*
X159079597Y-77470159D02*
X158879593Y-77470159D01*
X184448486Y-77470159D02*
X184248779Y-77470159D01*
X184268791Y-134620000D02*
X184468689Y-134620000D01*
X189857895Y-134620000D02*
X190056999Y-134620000D01*
X89193207Y-134620000D02*
X89393207Y-134620000D01*
X188055778Y-77470159D02*
X187855774Y-77470159D01*
X166895004Y-134620000D02*
X167094101Y-134620000D01*
X77001106Y-77470159D02*
X76800907Y-77470159D01*
X171263794Y-77470159D02*
X171063393Y-77470159D01*
X215612289Y-77470159D02*
X215412186Y-77470159D01*
X159104202Y-134620000D02*
X159303802Y-134620000D01*
X77806305Y-134620000D02*
X78006004Y-134620000D01*
X71110111Y-128324796D02*
X71110111Y-128525594D01*
X217013199Y-77470159D02*
X216813995Y-77470159D01*
X146497299Y-77470159D02*
X146297005Y-77470159D01*
X223510116Y-97551892D02*
X223510116Y-97351895D01*
X198638870Y-77470159D02*
X198438476Y-77470159D01*
X165269997Y-77470159D02*
X165070694Y-77470159D01*
X223510116Y-88365026D02*
X223510116Y-88165029D01*
X75804611Y-77470159D02*
X75605011Y-77470159D01*
X197445709Y-134620000D02*
X197645706Y-134620000D01*
X71110111Y-93356954D02*
X71110111Y-93556951D01*
X117568699Y-134620000D02*
X117768200Y-134620000D01*
X198045105Y-134620000D02*
X198244507Y-134620000D01*
X223510116Y-86365056D02*
X223510116Y-86166059D01*
X86384514Y-77470159D02*
X86185314Y-77470159D01*
X104370300Y-134620000D02*
X104569298Y-134620000D01*
X119162300Y-134620000D02*
X119361099Y-134620000D01*
X223510116Y-95556920D02*
X223510116Y-95356923D01*
X219212906Y-77470159D02*
X219012695Y-77470159D01*
X178676102Y-134620000D02*
X178875900Y-134620000D01*
X186863006Y-134620000D02*
X187061798Y-134620000D01*
X148694900Y-77470159D02*
X148495804Y-77470159D01*
X71110111Y-126324300D02*
X71110111Y-126524694D01*
X186464096Y-134620000D02*
X186663101Y-134620000D01*
X114568397Y-134620000D02*
X114768799Y-134620000D01*
X126327904Y-77470159D02*
X126127586Y-77470159D01*
X127526192Y-77470159D02*
X127326355Y-77470159D01*
X74407406Y-134620000D02*
X74607605Y-134620000D01*
X189253982Y-77470159D02*
X189054474Y-77470159D01*
X71110111Y-81567128D02*
X71110111Y-81765126D01*
X181472290Y-134620000D02*
X181672493Y-134620000D01*
X71110111Y-91756978D02*
X71110111Y-91956975D01*
X121534546Y-77470159D02*
X121334217Y-77470159D01*
X71697510Y-77780164D02*
X71550011Y-77909162D01*
X71110111Y-93156957D02*
X71110111Y-93356954D01*
X130920418Y-77470159D02*
X130720802Y-77470159D01*
X205626388Y-77470159D02*
X205427078Y-77470159D01*
X157081596Y-77470159D02*
X156882294Y-77470159D01*
X213227142Y-134620000D02*
X213426834Y-134620000D01*
X71110111Y-122326993D02*
X71110111Y-122526197D01*
X223510116Y-116335996D02*
X223510116Y-116136197D01*
X121161888Y-134620000D02*
X121361660Y-134620000D01*
X223510116Y-118332585D02*
X223510116Y-118132589D01*
X211416687Y-77470159D02*
X211216080Y-77470159D01*
X199238083Y-77470159D02*
X199038681Y-77470159D01*
X71110111Y-104946782D02*
X71110111Y-105146779D01*
X77599510Y-77470159D02*
X77400108Y-77470159D01*
X110750110Y-77470159D02*
X110550308Y-77470159D01*
X72221706Y-134569196D02*
X72415005Y-134607396D01*
X169291900Y-134620000D02*
X169491806Y-134620000D01*
X118538406Y-77470159D02*
X118339107Y-77470159D01*
X71110111Y-123326696D02*
X71110111Y-123525899D01*
X164871597Y-77470159D02*
X164672699Y-77470159D01*
X180473694Y-134620000D02*
X180673797Y-134620000D01*
X74007408Y-134620000D02*
X74207706Y-134620000D01*
X98778103Y-134620000D02*
X98978401Y-134620000D01*
X119137306Y-77470159D02*
X118938209Y-77470159D01*
X212827041Y-134620000D02*
X213027145Y-134620000D01*
X146097107Y-77470159D02*
X145897606Y-77470159D01*
X194445267Y-77470159D02*
X194245468Y-77470159D01*
X71110111Y-103947797D02*
X71110111Y-104147794D01*
X132719162Y-77470159D02*
X132519142Y-77470159D01*
X218018463Y-134620000D02*
X218217453Y-134620000D01*
X75207603Y-134620000D02*
X75407402Y-134620000D01*
X71110111Y-94556935D02*
X71110111Y-94755933D01*
X222205978Y-134607297D02*
X222397873Y-134569394D01*
X132519142Y-77470159D02*
X132319649Y-77470159D01*
X181871796Y-134620000D02*
X182072296Y-134620000D01*
X189054474Y-77470159D02*
X188854874Y-77470159D01*
X223510116Y-123127904D02*
X223510116Y-122928106D01*
X223510116Y-117333692D02*
X223510116Y-117134290D01*
X71110111Y-131519796D02*
X71110111Y-131719899D01*
X210217880Y-77470159D02*
X210018478Y-77470159D01*
X139509323Y-77470159D02*
X139309921Y-77470159D01*
X163671600Y-77470159D02*
X163472000Y-77470159D01*
X94977817Y-77470159D02*
X94778416Y-77470159D01*
X157306801Y-134620000D02*
X157505997Y-134620000D01*
X223510116Y-98550878D02*
X223510116Y-98350881D01*
X101374801Y-134620000D02*
X101573700Y-134620000D01*
X175283096Y-134620000D02*
X175483002Y-134620000D01*
X118938209Y-77470159D02*
X118738510Y-77470159D01*
X161277099Y-77470159D02*
X161078201Y-77470159D01*
X92381321Y-77470159D02*
X92181820Y-77470159D01*
X71110111Y-105545774D02*
X71110111Y-105746473D01*
X112149513Y-77470159D02*
X111949509Y-77470159D01*
X219613205Y-77470159D02*
X219412704Y-77470159D01*
X223510116Y-129523610D02*
X223510116Y-129324109D01*
X135316513Y-77470159D02*
X135117432Y-77470159D01*
X184849884Y-77470159D02*
X184649185Y-77470159D01*
X223510116Y-80170148D02*
X223510116Y-79970151D01*
X172062591Y-77470159D02*
X171863693Y-77470159D01*
X202239029Y-134620000D02*
X202438522Y-134620000D01*
X148323303Y-134620000D02*
X148523208Y-134620000D01*
X208221695Y-77470159D02*
X208021377Y-77470159D01*
X188459900Y-134620000D02*
X188659599Y-134620000D01*
X145125900Y-134620000D02*
X145326301Y-134620000D01*
X183269493Y-134620000D02*
X183469993Y-134620000D01*
X195043579Y-77470159D02*
X194844375Y-77470159D01*
X144699707Y-77470159D02*
X144499504Y-77470159D01*
X223510116Y-119933606D02*
X223510116Y-119733609D01*
X223510116Y-92759961D02*
X223510116Y-92560964D01*
X95776516Y-77470159D02*
X95576916Y-77470159D01*
X81405407Y-134620000D02*
X81605907Y-134620000D01*
X129123688Y-77470159D02*
X128923393Y-77470159D01*
X76808102Y-134620000D02*
X77007702Y-134620000D01*
X214226639Y-134620000D02*
X214425644Y-134620000D01*
X134917343Y-77470159D02*
X134717735Y-77470159D01*
X83004204Y-134620000D02*
X83203606Y-134620000D01*
X192249176Y-77470159D02*
X192049484Y-77470159D01*
X71110111Y-79170163D02*
X71110111Y-79370160D01*
X223510116Y-101548833D02*
X223510116Y-101348836D01*
X223510116Y-97949887D02*
X223510116Y-97750890D01*
X163899505Y-134620000D02*
X164098602Y-134620000D01*
X185266800Y-134620000D02*
X185465896Y-134620000D01*
X223510116Y-131322210D02*
X223510116Y-131121411D01*
X123132694Y-77470159D02*
X122932026Y-77470159D01*
X223510116Y-79770154D02*
X223510116Y-79570157D01*
X215812698Y-77470159D02*
X215612289Y-77470159D01*
X223510116Y-89564008D02*
X223510116Y-89364011D01*
X140508102Y-77470159D02*
X140308105Y-77470159D01*
X82193111Y-77470159D02*
X81993412Y-77470159D01*
X198838882Y-77470159D02*
X198638870Y-77470159D01*
X96774818Y-77470159D02*
X96575218Y-77470159D01*
X80207306Y-134620000D02*
X80406105Y-134620000D01*
X223510116Y-108741307D02*
X223510116Y-108541204D01*
X177079399Y-134620000D02*
X177279693Y-134620000D01*
X221810806Y-77470159D02*
X221611099Y-77470159D01*
X220613571Y-134620000D02*
X220812179Y-134620000D01*
X86998707Y-134620000D02*
X87198109Y-134620000D01*
X110351509Y-77470159D02*
X110151611Y-77470159D01*
X71110111Y-84567083D02*
X71110111Y-84767080D01*
X116370201Y-134620000D02*
X116570099Y-134620000D01*
X218212906Y-77470159D02*
X218012405Y-77470159D01*
X92788402Y-134620000D02*
X92988602Y-134620000D01*
X71110111Y-92156972D02*
X71110111Y-92356969D01*
X71110111Y-111939496D02*
X71110111Y-112140294D01*
X86598907Y-134620000D02*
X86798408Y-134620000D01*
X124129146Y-77470159D02*
X123930385Y-77470159D01*
X195049011Y-134620000D02*
X195247909Y-134620000D01*
X223200699Y-78058164D02*
X223071304Y-77910161D01*
X162501098Y-134620000D02*
X162701004Y-134620000D01*
X223510116Y-115136098D02*
X223510116Y-114936696D01*
X200042007Y-134620000D02*
X200241623Y-134620000D01*
X71110111Y-120527898D02*
X71110111Y-120727597D01*
X159303802Y-134620000D02*
X159502899Y-134620000D01*
X128923393Y-77470159D02*
X128723656Y-77470159D01*
X108967903Y-134620000D02*
X109168503Y-134620000D01*
X71110111Y-96353910D02*
X71110111Y-96553907D01*
X71110111Y-84168088D02*
X71110111Y-84368085D01*
X109569702Y-134620000D02*
X109770401Y-134620000D01*
X94984299Y-134620000D02*
X95183098Y-134620000D01*
X71110111Y-84767080D02*
X71110111Y-84966077D01*
X99178902Y-134620000D02*
X99377701Y-134620000D01*
X131719894Y-77470159D02*
X131521034Y-77470159D01*
X126527489Y-77470159D02*
X126327904Y-77470159D01*
X80994312Y-77470159D02*
X80793712Y-77470159D01*
X185050476Y-77470159D02*
X184849884Y-77470159D01*
X206438827Y-134620000D02*
X206638336Y-134620000D01*
X223510116Y-109540204D02*
X223510116Y-109339704D01*
X223510116Y-94758931D02*
X223510116Y-94558934D01*
X202031677Y-77470159D02*
X201831879Y-77470159D01*
X132918236Y-77470159D02*
X132719162Y-77470159D01*
X106160309Y-77470159D02*
X105960708Y-77470159D01*
X123730965Y-77470159D02*
X123530895Y-77470159D01*
X177650589Y-77470159D02*
X177450790Y-77470159D01*
X204827072Y-77470159D02*
X204627090Y-77470159D01*
X100570816Y-77470159D02*
X100371315Y-77470159D01*
X216420944Y-134620000D02*
X216620651Y-134620000D01*
X223510116Y-124126508D02*
X223510116Y-123927007D01*
X164271599Y-77470159D02*
X164071396Y-77470159D01*
X223510116Y-129723813D02*
X223510116Y-129523610D01*
X223510116Y-79170163D02*
X223510116Y-78970166D01*
X71110111Y-109343183D02*
X71110111Y-109542081D01*
X223510116Y-131521207D02*
X223510116Y-131322210D01*
X223510116Y-93560949D02*
X223510116Y-93360952D01*
X167494507Y-134620000D02*
X167694603Y-134620000D01*
X223510116Y-106544088D02*
X223510116Y-106343389D01*
X223510116Y-84567083D02*
X223510116Y-84367086D01*
X105162109Y-77470159D02*
X104962608Y-77470159D01*
X201640213Y-134620000D02*
X201840927Y-134620000D01*
X71110111Y-129323293D02*
X71110111Y-129523000D01*
X223510116Y-104145795D02*
X223510116Y-103945798D01*
X112361801Y-134620000D02*
X112562500Y-134620000D01*
X159878403Y-77470159D02*
X159679298Y-77470159D01*
X71110111Y-116732793D02*
X71110111Y-116932294D01*
X151091904Y-77470159D02*
X150892403Y-77470159D01*
X188455475Y-77470159D02*
X188255676Y-77470159D01*
X162300705Y-134620000D02*
X162501098Y-134620000D01*
X174084305Y-134620000D02*
X174283600Y-134620000D01*
X94583999Y-134620000D02*
X94784000Y-134620000D01*
X118366199Y-134620000D02*
X118565300Y-134620000D01*
X80594112Y-77470159D02*
X80393711Y-77470159D01*
X71110111Y-89960004D02*
X71110111Y-90161000D01*
X194648697Y-134620000D02*
X194848801Y-134620000D01*
X143502205Y-77470159D02*
X143302605Y-77470159D01*
X165297104Y-134620000D02*
X165496605Y-134620000D01*
X86583412Y-77470159D02*
X86384514Y-77470159D01*
X161875099Y-77470159D02*
X161675598Y-77470159D01*
X212227829Y-134620000D02*
X212427139Y-134620000D01*
X118738510Y-77470159D02*
X118538406Y-77470159D01*
X156907097Y-134620000D02*
X157107200Y-134620000D01*
X174258591Y-77470159D02*
X174058395Y-77470159D01*
X72415005Y-134607396D02*
X72610103Y-134620000D01*
X78006004Y-134620000D02*
X78206104Y-134620000D01*
X143528404Y-134620000D02*
X143727905Y-134620000D01*
X133918228Y-77470159D02*
X133718109Y-77470159D01*
X155884399Y-77470159D02*
X155684898Y-77470159D01*
X223510116Y-127722402D02*
X223510116Y-127522702D01*
X98972916Y-77470159D02*
X98772415Y-77470159D01*
X214612778Y-77470159D02*
X214412979Y-77470159D01*
X92588604Y-134620000D02*
X92788402Y-134620000D01*
X83989010Y-77470159D02*
X83789509Y-77470159D01*
X188860000Y-134620000D02*
X189059296Y-134620000D01*
X157281097Y-77470159D02*
X157081596Y-77470159D01*
X216213791Y-77470159D02*
X216013199Y-77470159D01*
X161901100Y-134620000D02*
X162101105Y-134620000D01*
X203828689Y-77470159D02*
X203629593Y-77470159D01*
X202638321Y-134620000D02*
X202838425Y-134620000D01*
X191454208Y-134620000D02*
X191654098Y-134620000D01*
X87382915Y-77470159D02*
X87183216Y-77470159D01*
X107565002Y-134620000D02*
X107765301Y-134620000D01*
X92188606Y-134620000D02*
X92389305Y-134620000D01*
X180653396Y-77470159D02*
X180452789Y-77470159D01*
X223510116Y-102547818D02*
X223510116Y-102347821D01*
X223510116Y-89364011D02*
X223510116Y-89164014D01*
X154686096Y-77470159D02*
X154486496Y-77470159D01*
X157881393Y-77470159D02*
X157681099Y-77470159D01*
X223510116Y-110540197D02*
X223510116Y-110340200D01*
X205825180Y-77470159D02*
X205626388Y-77470159D01*
X221012466Y-134620000D02*
X221212479Y-134620000D01*
X71110111Y-131119893D02*
X71110111Y-131319097D01*
X138511947Y-77470159D02*
X138311584Y-77470159D01*
X223510116Y-119533506D02*
X223510116Y-119333303D01*
X201432968Y-77470159D02*
X201233780Y-77470159D01*
X223510116Y-100948842D02*
X223510116Y-100748845D01*
X73408707Y-134620000D02*
X73608406Y-134620000D01*
X223510116Y-116136197D02*
X223510116Y-115936795D01*
X88993805Y-134620000D02*
X89193207Y-134620000D01*
X173286102Y-134620000D02*
X173485702Y-134620000D01*
X223510116Y-126724912D02*
X223510116Y-126524312D01*
X169091301Y-134620000D02*
X169291900Y-134620000D01*
X77199707Y-77470159D02*
X77001106Y-77470159D01*
X129549583Y-134620000D02*
X129748688Y-134620000D01*
X223396499Y-78396169D02*
X223309997Y-78221166D01*
X71110111Y-110541394D02*
X71110111Y-110741498D01*
X71224110Y-78396169D02*
X71160911Y-78582166D01*
X71110111Y-130522199D02*
X71110111Y-130721494D01*
X199635971Y-77470159D02*
X199437179Y-77470159D01*
X155310402Y-134620000D02*
X155509300Y-134620000D01*
X115345108Y-77470159D02*
X115144409Y-77470159D01*
X128723656Y-77470159D02*
X128524483Y-77470159D01*
X189259300Y-134620000D02*
X189458198Y-134620000D01*
X171089401Y-134620000D02*
X171288803Y-134620000D01*
X223510116Y-107941899D02*
X223510116Y-107742498D01*
X103972702Y-134620000D02*
X104171501Y-134620000D01*
X202838425Y-134620000D02*
X203038620Y-134620000D01*
X163272598Y-77470159D02*
X163073395Y-77470159D01*
X71110111Y-117730298D02*
X71110111Y-117930394D01*
X184248779Y-77470159D02*
X184049087Y-77470159D01*
X191249176Y-77470159D02*
X191048782Y-77470159D01*
X223510116Y-132120504D02*
X223510116Y-131920003D01*
X217020859Y-134620000D02*
X217220260Y-134620000D01*
X71110111Y-115933499D02*
X71110111Y-116132398D01*
X191055694Y-134620000D02*
X191254700Y-134620000D01*
X85785915Y-77470159D02*
X85586014Y-77470159D01*
X203239029Y-134620000D02*
X203439529Y-134620000D01*
X71110111Y-116132398D02*
X71110111Y-116332898D01*
X189458198Y-134620000D02*
X189657699Y-134620000D01*
X168065895Y-77470159D02*
X167865997Y-77470159D01*
X216614303Y-77470159D02*
X216414200Y-77470159D01*
X174659294Y-77470159D02*
X174458893Y-77470159D01*
X223510116Y-123328603D02*
X223510116Y-123127904D01*
X71110111Y-82766111D02*
X71110111Y-82967107D01*
X223510116Y-96156911D02*
X223510116Y-95957914D01*
X72610103Y-134620000D02*
X72809505Y-134620000D01*
X223510116Y-121131101D02*
X223510116Y-120932004D01*
X71110111Y-85166074D02*
X71110111Y-85365071D01*
X143103409Y-77470159D02*
X142903007Y-77470159D01*
X223510116Y-112138890D02*
X223510116Y-111939389D01*
X71110111Y-95154927D02*
X71110111Y-95353925D01*
X71110111Y-127123098D02*
X71110111Y-127323796D01*
X130521728Y-77470159D02*
X130321770Y-77470159D01*
X216222351Y-134620000D02*
X216420944Y-134620000D01*
X145326301Y-134620000D02*
X145526405Y-134620000D01*
X110550308Y-77470159D02*
X110351509Y-77470159D01*
X223510116Y-98150884D02*
X223510116Y-97949887D01*
X102168613Y-77470159D02*
X101968216Y-77470159D01*
X99975403Y-134620000D02*
X100175003Y-134620000D01*
X80007507Y-134620000D02*
X80207306Y-134620000D01*
X147123001Y-134620000D02*
X147323402Y-134620000D01*
X170863190Y-77470159D02*
X170663093Y-77470159D01*
X84800606Y-134620000D02*
X85000305Y-134620000D01*
X200633972Y-77470159D02*
X200435074Y-77470159D01*
X136914024Y-77470159D02*
X136714226Y-77470159D01*
X88195808Y-134620000D02*
X88396107Y-134620000D01*
X78798408Y-77470159D02*
X78597809Y-77470159D01*
X71110111Y-102150823D02*
X71110111Y-102349820D01*
X132119202Y-77470159D02*
X131919296Y-77470159D01*
X108166000Y-134620000D02*
X108366402Y-134620000D01*
X71110111Y-89361013D02*
X71110111Y-89560010D01*
X104171501Y-134620000D02*
X104370300Y-134620000D01*
X200841019Y-134620000D02*
X201040909Y-134620000D01*
X190050979Y-77470159D02*
X189851883Y-77470159D01*
X210631225Y-134620000D02*
X210830826Y-134620000D01*
X71110111Y-110941198D02*
X71110111Y-111140798D01*
X77999710Y-77470159D02*
X77799610Y-77470159D01*
X112763199Y-134620000D02*
X112963901Y-134620000D01*
X90980320Y-77470159D02*
X90779720Y-77470159D01*
X71110111Y-92756963D02*
X71110111Y-92956960D01*
X82604603Y-134620000D02*
X82804504Y-134620000D01*
X163472000Y-77470159D02*
X163272598Y-77470159D01*
X200235870Y-77470159D02*
X200036270Y-77470159D01*
X199043411Y-134620000D02*
X199242599Y-134620000D01*
X223510116Y-104943784D02*
X223510116Y-104743787D01*
X111763599Y-134620000D02*
X111962299Y-134620000D01*
X115770100Y-134620000D02*
X115970199Y-134620000D01*
X71420811Y-78056165D02*
X71311210Y-78220166D01*
X71110111Y-83166104D02*
X71110111Y-83366101D01*
X135117432Y-77470159D02*
X134917343Y-77470159D01*
X160077797Y-77470159D02*
X159878403Y-77470159D01*
X132319649Y-77470159D02*
X132119202Y-77470159D01*
X203629593Y-77470159D02*
X203429977Y-77470159D01*
X176652695Y-77470159D02*
X176453392Y-77470159D01*
X223510116Y-107542699D02*
X223510116Y-107342397D01*
X91988308Y-134620000D02*
X92188606Y-134620000D01*
X122532657Y-77470159D02*
X122333958Y-77470159D01*
X223510116Y-117932691D02*
X223510116Y-117732892D01*
X207621475Y-77470159D02*
X207422180Y-77470159D01*
X177850296Y-77470159D02*
X177650589Y-77470159D01*
X129150810Y-134620000D02*
X129350296Y-134620000D01*
X80606907Y-134620000D02*
X80806507Y-134620000D01*
X223510116Y-118532689D02*
X223510116Y-118332585D01*
X196247604Y-134620000D02*
X196446808Y-134620000D01*
X142130104Y-134620000D02*
X142330002Y-134620000D01*
X141330803Y-134620000D02*
X141530205Y-134620000D01*
X129922081Y-77470159D02*
X129722351Y-77470159D01*
X145726105Y-134620000D02*
X145925407Y-134620000D01*
X105765400Y-134620000D02*
X105965000Y-134620000D01*
X107765301Y-134620000D02*
X107965599Y-134620000D01*
X154112198Y-134620000D02*
X154312202Y-134620000D01*
X87597408Y-134620000D02*
X87797310Y-134620000D01*
X186454285Y-77470159D02*
X186253876Y-77470159D01*
X195441376Y-77470159D02*
X195242569Y-77470159D01*
X146897201Y-77470159D02*
X146697906Y-77470159D01*
X95976417Y-77470159D02*
X95776516Y-77470159D01*
X196640976Y-77470159D02*
X196441681Y-77470159D01*
X223510116Y-84967076D02*
X223510116Y-84766080D01*
X151891296Y-77470159D02*
X151692299Y-77470159D01*
X150292305Y-77470159D02*
X150092300Y-77470159D01*
X71110111Y-98950872D02*
X71110111Y-99151868D01*
X223510116Y-130124814D02*
X223510116Y-129924314D01*
X90791511Y-134620000D02*
X90990711Y-134620000D01*
X88181515Y-77470159D02*
X87982014Y-77470159D01*
X218217453Y-134620000D02*
X218417160Y-134620000D01*
X223510116Y-107742498D02*
X223510116Y-107542699D01*
X203640030Y-134620000D02*
X203840622Y-134620000D01*
X77400108Y-77470159D02*
X77199707Y-77470159D01*
X153314598Y-134620000D02*
X153514603Y-134620000D01*
X71110111Y-112140294D02*
X71110111Y-112339498D01*
X187455673Y-77470159D02*
X187255478Y-77470159D01*
X175656891Y-77470159D02*
X175457992Y-77470159D01*
X197839279Y-77470159D02*
X197639572Y-77470159D01*
X161502502Y-134620000D02*
X161702103Y-134620000D01*
X204441727Y-134620000D02*
X204641937Y-134620000D01*
X223510116Y-111539289D02*
X223510116Y-111340192D01*
X78199409Y-77470159D02*
X77999710Y-77470159D01*
X71110111Y-130323194D02*
X71110111Y-130522199D01*
X223510116Y-85966062D02*
X223510116Y-85766065D01*
X71110111Y-117331494D02*
X71110111Y-117531194D01*
X95981399Y-134620000D02*
X96181801Y-134620000D01*
X71110111Y-90559995D02*
X71110111Y-90759992D01*
X223510116Y-116736196D02*
X223510116Y-116535993D01*
X159902603Y-134620000D02*
X160103203Y-134620000D01*
X119537907Y-77470159D02*
X119337208Y-77470159D01*
X99771515Y-77470159D02*
X99571316Y-77470159D01*
X81804806Y-134620000D02*
X82005306Y-134620000D01*
X223510116Y-128724408D02*
X223510116Y-128524106D01*
X71160911Y-78582166D02*
X71122711Y-78775167D01*
X223510116Y-112737996D02*
X223510116Y-112538198D01*
X102568214Y-77470159D02*
X102368614Y-77470159D01*
X174859794Y-77470159D02*
X174659294Y-77470159D01*
X153090103Y-77470159D02*
X152890999Y-77470159D01*
X213613891Y-77470159D02*
X213413681Y-77470159D01*
X223510116Y-83366101D02*
X223510116Y-83165105D01*
X223510116Y-82567113D02*
X223510116Y-82368116D01*
X144900406Y-77470159D02*
X144699707Y-77470159D01*
X203038620Y-134620000D02*
X203239029Y-134620000D01*
X223510116Y-105143781D02*
X223510116Y-104943784D01*
X187855774Y-77470159D02*
X187655777Y-77470159D01*
X197245605Y-134620000D02*
X197445709Y-134620000D01*
X186264198Y-134620000D02*
X186464096Y-134620000D01*
X223510116Y-83165105D02*
X223510116Y-82966108D01*
X71110111Y-122126798D02*
X71110111Y-122326993D01*
X223510116Y-112938298D02*
X223510116Y-112737996D01*
X88795105Y-134620000D02*
X88993805Y-134620000D01*
X171863693Y-77470159D02*
X171664894Y-77470159D01*
X71110111Y-84368085D02*
X71110111Y-84567083D01*
X178250091Y-77470159D02*
X178050194Y-77470159D01*
X223510116Y-132719999D02*
X223510116Y-132520101D01*
X212626938Y-134620000D02*
X212827041Y-134620000D01*
X98978401Y-134620000D02*
X99178902Y-134620000D01*
X187055282Y-77470159D02*
X186854980Y-77470159D01*
X150693207Y-77470159D02*
X150492599Y-77470159D01*
X151491897Y-77470159D02*
X151291702Y-77470159D01*
X125328415Y-77470159D02*
X125128506Y-77470159D01*
X141530205Y-134620000D02*
X141729301Y-134620000D01*
X116542610Y-77470159D02*
X116343807Y-77470159D01*
X173684708Y-134620000D02*
X173884201Y-134620000D01*
X162074898Y-77470159D02*
X161875099Y-77470159D01*
X223510116Y-117533193D02*
X223510116Y-117333692D01*
X71110111Y-131319097D02*
X71110111Y-131519796D01*
X105361008Y-77470159D02*
X105162109Y-77470159D01*
X106164802Y-134620000D02*
X106364601Y-134620000D01*
X116742107Y-77470159D02*
X116542610Y-77470159D01*
X134143051Y-134620000D02*
X134342903Y-134620000D01*
X191449478Y-77470159D02*
X191249176Y-77470159D01*
X81793312Y-77470159D02*
X81593212Y-77470159D01*
X179450897Y-77470159D02*
X179250595Y-77470159D01*
X141305702Y-77470159D02*
X141105705Y-77470159D01*
X92980118Y-77470159D02*
X92779419Y-77470159D01*
X85598907Y-134620000D02*
X85799106Y-134620000D01*
X136538277Y-134620000D02*
X136738891Y-134620000D01*
X223510116Y-111140195D02*
X223510116Y-110939595D01*
X71110111Y-120128293D02*
X71110111Y-120328099D01*
X138135788Y-134620000D02*
X138336113Y-134620000D01*
X173485702Y-134620000D02*
X173684708Y-134620000D01*
X109168503Y-134620000D02*
X109369102Y-134620000D01*
X122358681Y-134620000D02*
X122557720Y-134620000D01*
X223510116Y-87565038D02*
X223510116Y-87366040D01*
X131919296Y-77470159D02*
X131719894Y-77470159D01*
X223510116Y-101747831D02*
X223510116Y-101548833D01*
X91180820Y-77470159D02*
X90980320Y-77470159D01*
X71110111Y-118129796D02*
X71110111Y-118329999D01*
X204641937Y-134620000D02*
X204841736Y-134620000D01*
X71550011Y-77909162D02*
X71420811Y-78056165D01*
X159502899Y-134620000D02*
X159703003Y-134620000D01*
X135916603Y-77470159D02*
X135716095Y-77470159D01*
X75405311Y-77470159D02*
X75206013Y-77470159D01*
X140108604Y-77470159D02*
X139909408Y-77470159D01*
X71110111Y-93556951D02*
X71110111Y-93757947D01*
X102371101Y-134620000D02*
X102570801Y-134620000D01*
X71110111Y-91956975D02*
X71110111Y-92156972D01*
X223510116Y-109139905D02*
X223510116Y-108940908D01*
X71110111Y-124924100D02*
X71110111Y-125123593D01*
X172087601Y-134620000D02*
X172286301Y-134620000D01*
X133718109Y-77470159D02*
X133518486Y-77470159D01*
X188854874Y-77470159D02*
X188655182Y-77470159D01*
X123331474Y-77470159D02*
X123132694Y-77470159D01*
X213027145Y-134620000D02*
X213227142Y-134620000D01*
X79806908Y-134620000D02*
X80007507Y-134620000D01*
X164672699Y-77470159D02*
X164472099Y-77470159D01*
X117369099Y-134620000D02*
X117568699Y-134620000D01*
X92988602Y-134620000D02*
X93187301Y-134620000D01*
X89993210Y-134620000D02*
X90191910Y-134620000D01*
X84189411Y-77470159D02*
X83989010Y-77470159D01*
X223510116Y-89963002D02*
X223510116Y-89763005D01*
X83191112Y-77470159D02*
X82990612Y-77470159D01*
X71110111Y-85566068D02*
X71110111Y-85765065D01*
X112548012Y-77470159D02*
X112348312Y-77470159D01*
X161476196Y-77470159D02*
X161277099Y-77470159D01*
X211629730Y-134620000D02*
X211828934Y-134620000D01*
X153289398Y-77470159D02*
X153090103Y-77470159D01*
X150492599Y-77470159D02*
X150292305Y-77470159D01*
X71110111Y-132320493D02*
X71110111Y-132519994D01*
X131944656Y-134620000D02*
X132145119Y-134620000D01*
X71110111Y-131719899D02*
X71110111Y-131920095D01*
X99571316Y-77470159D02*
X99372413Y-77470159D01*
X113365204Y-134620000D02*
X113565803Y-134620000D01*
X71419605Y-134032598D02*
X71549003Y-134180097D01*
X122732017Y-77470159D02*
X122532657Y-77470159D01*
X90990711Y-134620000D02*
X91190311Y-134620000D01*
X146124405Y-134620000D02*
X146324905Y-134620000D01*
X159480400Y-77470159D02*
X159279899Y-77470159D01*
X208634628Y-134620000D02*
X208834427Y-134620000D01*
X164497909Y-134620000D02*
X164698204Y-134620000D01*
X168092804Y-134620000D02*
X168292404Y-134620000D01*
X100770214Y-77470159D02*
X100570816Y-77470159D01*
X93586002Y-134620000D02*
X93786003Y-134620000D01*
X178450096Y-77470159D02*
X178250091Y-77470159D01*
X74206413Y-77470159D02*
X74006813Y-77470159D01*
X130948715Y-134620000D02*
X131148323Y-134620000D01*
X71110111Y-103747800D02*
X71110111Y-103947797D01*
X91190311Y-134620000D02*
X91390510Y-134620000D01*
X75605011Y-77470159D02*
X75405311Y-77470159D01*
X105965000Y-134620000D02*
X106164802Y-134620000D01*
X146924003Y-134620000D02*
X147123001Y-134620000D01*
X71110111Y-111140798D02*
X71110111Y-111340993D01*
X98178604Y-134620000D02*
X98378204Y-134620000D01*
X183469993Y-134620000D02*
X183669494Y-134620000D01*
X73008812Y-77470159D02*
X72809612Y-77470159D01*
X143702202Y-77470159D02*
X143502205Y-77470159D01*
X179050400Y-77470159D02*
X178850197Y-77470159D01*
X205840225Y-134620000D02*
X206039734Y-134620000D01*
X71110111Y-112539296D02*
X71110111Y-112739598D01*
X71110111Y-85365071D02*
X71110111Y-85566068D01*
X71110111Y-100749845D02*
X71110111Y-100949842D01*
X162274902Y-77470159D02*
X162074898Y-77470159D01*
X114745411Y-77470159D02*
X114545009Y-77470159D01*
X223510116Y-106943395D02*
X223510116Y-106743291D01*
X132345352Y-134620000D02*
X132545372Y-134620000D01*
X85000305Y-134620000D02*
X85199505Y-134620000D01*
X198643906Y-134620000D02*
X198843796Y-134620000D01*
X193651001Y-134620000D02*
X193850113Y-134620000D01*
X121134556Y-77470159D02*
X120935585Y-77470159D01*
X223510116Y-100350850D02*
X223510116Y-100150853D01*
X208421280Y-77470159D02*
X208221695Y-77470159D01*
X215821945Y-134620000D02*
X216022552Y-134620000D01*
X172286301Y-134620000D02*
X172486900Y-134620000D01*
X107757309Y-77470159D02*
X107558510Y-77470159D01*
X217412704Y-77470159D02*
X217212799Y-77470159D01*
X180252395Y-77470159D02*
X180051895Y-77470159D01*
X134316994Y-77470159D02*
X134117363Y-77470159D01*
X101573700Y-134620000D02*
X101772800Y-134620000D01*
X154886001Y-77470159D02*
X154686096Y-77470159D01*
X184468689Y-134620000D02*
X184667694Y-134620000D01*
X198843796Y-134620000D02*
X199043411Y-134620000D01*
X92181820Y-77470159D02*
X91982021Y-77470159D01*
X223510116Y-114537694D02*
X223510116Y-114337995D01*
X81605907Y-134620000D02*
X81804806Y-134620000D01*
X79197510Y-77470159D02*
X78997909Y-77470159D01*
X178650101Y-77470159D02*
X178450096Y-77470159D01*
M02*
