M48
; DRILL file {KiCad 7.0.8-dirty} date Wed Nov 22 20:27:47 2023
; FORMAT={-:-/ absolute / inch / decimal}
; #@! TF.CreationDate,2023-11-22T20:27:47+09:00
; #@! TF.GenerationSoftware,Kicad,Pcbnew,7.0.8-dirty
; #@! TF.FileFunction,NonPlated,1,2,NPTH
FMAT,2
INCH
; #@! TA.AperFunction,NonPlated,NPTH,ComponentDrill
T1C0.0689
; #@! TA.AperFunction,NonPlated,NPTH,ComponentDrill
T2C0.1181
; #@! TA.AperFunction,NonPlated,NPTH,ComponentDrill
T3C0.1200
; #@! TA.AperFunction,NonPlated,NPTH,ComponentDrill
T4C0.1570
%
G90
G05
T1
X2.974Y-4.924
X2.975Y-3.424
X2.975Y-4.174
X3.374Y-4.924
X3.375Y-3.424
X3.375Y-4.174
X3.725Y-3.424
X3.725Y-4.174
X4.125Y-3.424
X4.125Y-4.174
X4.194Y-4.925
X4.475Y-3.424
X4.475Y-4.174
X4.594Y-4.925
X4.875Y-3.424
X4.875Y-4.174
X5.225Y-3.424
X5.225Y-4.174
X5.412Y-4.924
X5.625Y-3.424
X5.625Y-4.174
X5.812Y-4.924
X5.975Y-3.424
X5.975Y-4.174
X6.375Y-3.424
X6.375Y-4.174
X6.725Y-3.424
X6.725Y-4.174
X6.818Y-4.925
X7.125Y-3.424
X7.125Y-4.174
X7.218Y-4.925
X7.475Y-3.424
X7.475Y-4.174
X7.875Y-3.424
X7.875Y-4.174
X8.225Y-4.924
X8.226Y-3.424
X8.226Y-4.174
X8.625Y-4.924
X8.626Y-3.424
X8.626Y-4.174
T2
X3.024Y-4.824
X3.025Y-3.324
X3.025Y-4.074
X3.274Y-4.724
X3.275Y-3.224
X3.275Y-3.974
X3.775Y-3.324
X3.775Y-4.074
X4.025Y-3.224
X4.025Y-3.974
X4.244Y-4.825
X4.494Y-4.725
X4.525Y-3.324
X4.525Y-4.074
X4.775Y-3.224
X4.775Y-3.974
X5.275Y-3.324
X5.275Y-4.074
X5.462Y-4.824
X5.525Y-3.224
X5.525Y-3.974
X5.712Y-4.724
X6.025Y-3.324
X6.025Y-4.074
X6.275Y-3.224
X6.275Y-3.974
X6.775Y-3.324
X6.775Y-4.074
X6.868Y-4.825
X7.025Y-3.224
X7.025Y-3.974
X7.118Y-4.725
X7.525Y-3.324
X7.525Y-4.074
X7.775Y-3.224
X7.775Y-3.974
X8.275Y-4.824
X8.276Y-3.324
X8.276Y-4.074
X8.525Y-4.724
X8.526Y-3.224
X8.526Y-3.974
T3
X3.924Y-5.2
X4.864Y-5.2
X6.548Y-5.2
X7.488Y-5.2
T4
X3.174Y-4.924
X3.175Y-3.424
X3.175Y-4.174
X3.924Y-4.6
X3.925Y-3.424
X3.925Y-4.174
X4.394Y-4.925
X4.675Y-3.424
X4.675Y-4.174
X4.864Y-4.6
X5.425Y-3.424
X5.425Y-4.174
X5.612Y-4.924
X6.175Y-3.424
X6.175Y-4.174
X6.548Y-4.6
X6.925Y-3.424
X6.925Y-4.174
X7.018Y-4.925
X7.488Y-4.6
X7.675Y-3.424
X7.675Y-4.174
X8.425Y-4.924
X8.426Y-3.424
X8.426Y-4.174
T0
M30
