%TF.GenerationSoftware,KiCad,Pcbnew,7.0.8-dirty*%
%TF.CreationDate,2023-11-22T20:27:44+09:00*%
%TF.ProjectId,typing-check-board,74797069-6e67-42d6-9368-65636b2d626f,rev?*%
%TF.SameCoordinates,Original*%
%TF.FileFunction,Copper,L2,Bot*%
%TF.FilePolarity,Positive*%
%FSLAX46Y46*%
G04 Gerber Fmt 4.6, Leading zero omitted, Abs format (unit mm)*
G04 Created by KiCad (PCBNEW 7.0.8-dirty) date 2023-11-22 20:27:44*
%MOMM*%
%LPD*%
G01*
G04 APERTURE LIST*
%TA.AperFunction,SMDPad,CuDef*%
%ADD10R,2.550000X2.500000*%
%TD*%
G04 APERTURE END LIST*
D10*
%TO.P,REF13,1*%
%TO.N,N/C*%
X130710000Y-103479600D03*
%TO.P,REF13,2*%
X143637000Y-100939600D03*
%TD*%
%TO.P,REFS2,1*%
%TO.N,N/C*%
X171172200Y-122555000D03*
%TO.P,REFS2,2*%
X184099200Y-120015000D03*
%TD*%
%TO.P,REF03,1*%
%TO.N,N/C*%
X130710000Y-84429600D03*
%TO.P,REF03,2*%
X143637000Y-81889600D03*
%TD*%
%TO.P,REF00,1*%
%TO.N,N/C*%
X73560000Y-84429600D03*
%TO.P,REF00,2*%
X86487000Y-81889600D03*
%TD*%
%TO.P,REF02,1*%
%TO.N,N/C*%
X111660000Y-84429600D03*
%TO.P,REF02,2*%
X124587000Y-81889600D03*
%TD*%
%TO.P,REF07,1*%
%TO.N,N/C*%
X206935400Y-84429600D03*
%TO.P,REF07,2*%
X219862400Y-81889600D03*
%TD*%
%TO.P,REF27,1*%
%TO.N,N/C*%
X206910000Y-122529600D03*
%TO.P,REF27,2*%
X219837000Y-119989600D03*
%TD*%
%TO.P,REF20,1*%
%TO.N,N/C*%
X73534600Y-122529600D03*
%TO.P,REF20,2*%
X86461600Y-119989600D03*
%TD*%
%TO.P,REF06,1*%
%TO.N,N/C*%
X187860000Y-84429600D03*
%TO.P,REF06,2*%
X200787000Y-81889600D03*
%TD*%
%TO.P,REF01,1*%
%TO.N,N/C*%
X92610000Y-84429600D03*
%TO.P,REF01,2*%
X105537000Y-81889600D03*
%TD*%
%TO.P,REF12,1*%
%TO.N,N/C*%
X111660000Y-103479600D03*
%TO.P,REF12,2*%
X124587000Y-100939600D03*
%TD*%
%TO.P,REFS0,1*%
%TO.N,N/C*%
X104522600Y-122555000D03*
%TO.P,REFS0,2*%
X117449600Y-120015000D03*
%TD*%
%TO.P,REF10,1*%
%TO.N,N/C*%
X73560000Y-103479600D03*
%TO.P,REF10,2*%
X86487000Y-100939600D03*
%TD*%
%TO.P,REF14,1*%
%TO.N,N/C*%
X149760000Y-103479600D03*
%TO.P,REF14,2*%
X162687000Y-100939600D03*
%TD*%
%TO.P,REFS1,1*%
%TO.N,N/C*%
X135459800Y-122529600D03*
%TO.P,REFS1,2*%
X148386800Y-119989600D03*
%TD*%
%TO.P,REF11,1*%
%TO.N,N/C*%
X92610000Y-103479600D03*
%TO.P,REF11,2*%
X105537000Y-100939600D03*
%TD*%
%TO.P,REF04,1*%
%TO.N,N/C*%
X149760000Y-84429600D03*
%TO.P,REF04,2*%
X162687000Y-81889600D03*
%TD*%
%TO.P,REF17,1*%
%TO.N,N/C*%
X206935400Y-103479600D03*
%TO.P,REF17,2*%
X219862400Y-100939600D03*
%TD*%
%TO.P,REF05,1*%
%TO.N,N/C*%
X168810000Y-84429600D03*
%TO.P,REF05,2*%
X181737000Y-81889600D03*
%TD*%
%TO.P,REF15,1*%
%TO.N,N/C*%
X168810000Y-103479600D03*
%TO.P,REF15,2*%
X181737000Y-100939600D03*
%TD*%
%TO.P,REF16,1*%
%TO.N,N/C*%
X187860000Y-103479600D03*
%TO.P,REF16,2*%
X200787000Y-100939600D03*
%TD*%
M02*
